<svg width="173" height="35" viewBox="0 0 173 35" fill="none" xmlns="http://www.w3.org/2000/svg">
<g clip-path="url(#clip0)">
<path d="M44.1785 29.4527C42.9066 29.4527 41.7573 29.3148 40.7459 29.0236C39.7345 28.7325 38.8764 28.334 38.1562 27.7977C37.4359 27.2767 36.8843 26.6331 36.4705 25.8975C36.0568 25.162 35.8269 24.3498 35.7656 23.4763H40.654C40.8072 24.3192 41.1903 24.9474 41.788 25.3918C42.3856 25.8362 43.1978 26.0508 44.2092 26.0508C45.1286 26.0508 45.8488 25.8822 46.3545 25.5298C46.8602 25.1773 47.1207 24.6869 47.1207 24.0433C47.1207 23.6449 46.9981 23.3231 46.7529 23.0932C46.5078 22.8481 46.1859 22.6488 45.7569 22.4956C45.3431 22.3424 44.8528 22.2198 44.3164 22.1125C43.7801 22.0206 43.1978 21.9133 42.5848 21.806C41.788 21.6528 41.0218 21.4689 40.2709 21.285C39.52 21.0858 38.8457 20.7946 38.2634 20.3962C37.6658 19.9978 37.1908 19.4768 36.823 18.8485C36.4552 18.2049 36.2713 17.3774 36.2713 16.3354C36.2713 15.4312 36.4705 14.6344 36.8536 13.9601C37.2367 13.2859 37.7577 12.7036 38.4167 12.2438C39.0756 11.7841 39.8571 11.4317 40.7613 11.2018C41.6654 10.972 42.6308 10.8494 43.6728 10.8494C46.1093 10.8494 47.9635 11.3244 49.2201 12.2898C50.4767 13.2399 51.2275 14.4965 51.4574 16.0289H46.6457C46.3085 14.7723 45.3278 14.144 43.6728 14.144C42.876 14.144 42.2477 14.2973 41.7726 14.6037C41.2976 14.9102 41.0677 15.3546 41.0677 15.9216C41.0677 16.2587 41.175 16.5192 41.4049 16.7338C41.6194 16.9483 41.9259 17.1169 42.3243 17.2395C42.7227 17.3774 43.1824 17.4847 43.7035 17.5766C44.2245 17.6685 44.7915 17.7605 45.3891 17.8678C46.1859 18.0057 46.9675 18.1742 47.7643 18.3734C48.5612 18.588 49.2661 18.8945 49.9097 19.3082C50.5533 19.722 51.0743 20.2889 51.4727 20.9785C51.8865 21.6681 52.0857 22.5722 52.0857 23.6602C52.0857 24.6103 51.8865 25.4378 51.4881 26.1734C51.0896 26.8936 50.538 27.5065 49.8331 27.9816C49.1282 28.472 48.2853 28.8244 47.3199 29.0696C46.3852 29.3301 45.3278 29.4527 44.1785 29.4527Z" fill="white"/>
<path d="M65.4338 28.9009V26.3878H65.3419C64.6983 27.4145 63.9627 28.1807 63.1352 28.671C62.2924 29.1614 61.281 29.3913 60.0704 29.3913C58.063 29.3913 56.5459 28.809 55.4885 27.629C54.4312 26.4491 53.9102 24.9013 53.9102 22.9552V11.3396H59.0897V21.9591C59.0897 22.9552 59.3195 23.7061 59.7946 24.2424C60.2696 24.7634 60.9592 25.0392 61.894 25.0392C62.9513 25.0392 63.7788 24.6868 64.3611 23.9819C64.9588 23.277 65.2499 22.3729 65.2499 21.2695V11.3396H70.3681V28.9009H65.4338Z" fill="white"/>
<path d="M78.1067 14.4814H78.1986C78.7656 13.2555 79.4552 12.3667 80.2367 11.8457C81.0335 11.3247 81.9683 11.0488 83.0716 11.0488C83.5926 11.0488 83.9604 11.0948 84.1596 11.1867V15.7073H84.0217C83.6539 15.646 83.2862 15.6154 82.9337 15.6154C81.5239 15.6001 80.4052 16.0138 79.5471 16.8873C78.7043 17.7607 78.2752 19.0479 78.2752 20.7642V28.9166H73.0957V11.34H78.076V14.4814H78.1067Z" fill="white"/>
<path d="M94.1047 29.422C92.6796 29.422 91.3924 29.1922 90.2431 28.7171C89.0938 28.2421 88.1283 27.5832 87.3162 26.7557C86.5193 25.9129 85.891 24.9474 85.462 23.8135C85.0329 22.6948 84.8184 21.4689 84.8184 20.151C84.8184 18.8332 85.0329 17.6072 85.4773 16.4733C85.9217 15.3393 86.5347 14.3586 87.3315 13.5157C88.1283 12.6729 89.0631 12.0293 90.1664 11.5543C91.2698 11.0792 92.4804 10.8494 93.8289 10.8494C95.0854 10.8494 96.2041 11.0486 97.2155 11.447C98.2115 11.8454 99.1003 12.3971 99.8665 13.102C100.863 14.0674 101.583 15.2627 102.043 16.7031C102.502 18.1436 102.717 19.722 102.701 21.4536H89.9059C90.0745 22.7714 90.5189 23.8135 91.2238 24.549C91.9287 25.2999 92.9094 25.6677 94.166 25.6677C94.9782 25.6677 95.6524 25.5144 96.1581 25.2233C96.6791 24.9321 97.0776 24.503 97.3687 23.9514H102.38C102.165 24.7176 101.813 25.4378 101.338 26.1121C100.863 26.7863 100.28 27.3686 99.5907 27.859C98.9011 28.3494 98.0889 28.7325 97.1695 29.0083C96.2501 29.2841 95.2234 29.422 94.1047 29.422ZM93.8442 14.5118C92.6489 14.5118 91.7601 14.8643 91.1319 15.5692C90.5189 16.2741 90.1205 17.2241 89.9366 18.4347H97.43C97.3381 17.2088 96.9856 16.2434 96.342 15.5538C95.7137 14.8489 94.8709 14.5118 93.8442 14.5118Z" fill="white"/>
<path d="M112.815 35.0001C110.393 35.0001 108.447 34.5251 106.976 33.5597C105.505 32.6096 104.632 31.2611 104.371 29.5141H109.413C109.581 30.0351 109.934 30.4642 110.455 30.8013C110.976 31.1385 111.742 31.2917 112.753 31.2917C113.979 31.2917 114.899 31.0005 115.512 30.4029C116.109 29.8053 116.416 28.9778 116.416 27.8898V27.522C116.416 26.5719 116.446 25.8057 116.508 25.2081H116.37C115.328 26.9244 113.749 27.7825 111.619 27.7825C110.608 27.7825 109.643 27.5986 108.723 27.2308C107.804 26.8631 106.991 26.3267 106.287 25.6065C105.582 24.8863 105.015 24.0128 104.601 22.9861C104.187 21.9594 103.973 20.7794 103.973 19.4616C103.973 18.1897 104.157 17.0097 104.524 15.9524C104.892 14.8797 105.398 13.9756 106.057 13.2094C106.716 12.4432 107.497 11.8609 108.401 11.4471C109.305 11.0334 110.286 10.8188 111.374 10.8188C112.569 10.8188 113.581 11.0334 114.408 11.4471C115.251 11.8609 115.91 12.5658 116.416 13.5618H116.477V11.3399H121.427V27.3381C121.427 28.656 121.227 29.79 120.814 30.7247C120.4 31.6595 119.848 32.441 119.143 33.0846C118.377 33.7435 117.442 34.2339 116.37 34.5404C115.297 34.8469 114.117 35.0001 112.815 35.0001ZM112.784 23.9055C113.443 23.9055 114.01 23.7829 114.485 23.5531C114.96 23.3232 115.358 23.0014 115.68 22.5877C116.002 22.1739 116.232 21.6836 116.37 21.1319C116.508 20.5802 116.584 19.9826 116.584 19.3237C116.584 18.0211 116.262 16.9484 115.634 16.075C114.991 15.2015 114.041 14.7724 112.769 14.7724C111.619 14.7724 110.715 15.1862 110.056 16.0137C109.397 16.8412 109.06 17.9598 109.06 19.3696C109.06 20.7488 109.397 21.8674 110.056 22.6796C110.7 23.5071 111.619 23.9055 112.784 23.9055Z" fill="white"/>
<path d="M124.201 4.35205H129.442V8.87263H124.201V4.35205ZM124.232 11.3398H129.411V28.9011H124.232V11.3398Z" fill="white"/>
<path d="M131.127 11.3398H133.763V9.85339C133.763 7.99919 134.253 6.63535 135.249 5.73123C135.816 5.22554 136.552 4.85777 137.44 4.64323C138.329 4.42869 139.341 4.32143 140.459 4.35207C140.812 4.35207 141.164 4.3674 141.517 4.38272C141.869 4.39805 142.237 4.44402 142.605 4.47467V8.16775C141.946 8.15242 141.379 8.15242 140.919 8.16775C140.459 8.18307 140.076 8.27502 139.785 8.41293C139.494 8.55085 139.279 8.76538 139.141 9.05654C139.003 9.3477 138.942 9.7308 138.942 10.2058V11.3398H142.605V14.7111H138.942V28.9011H133.763V14.7111H131.127V11.3398Z" fill="white"/>
<path d="M143.539 11.3398H146.175V5.7312H151.247V11.3398H154.68V14.6344H151.247V23.3385C151.247 23.9974 151.416 24.4418 151.753 24.6717C152.09 24.9015 152.565 25.0241 153.193 25.0241C153.362 25.0241 153.561 25.0241 153.791 25.0088C154.005 24.9935 154.205 24.9781 154.388 24.9628H154.649V28.8245C154.358 28.8704 153.959 28.9164 153.454 28.993C152.948 29.0543 152.35 29.085 151.645 29.085C150.833 29.085 150.082 29.0084 149.423 28.8704C148.749 28.7325 148.182 28.472 147.692 28.1042C147.201 27.7365 146.834 27.2614 146.573 26.6791C146.313 26.0968 146.175 25.3612 146.175 24.4571V14.6344H143.539V11.3398Z" fill="white"/>
<path d="M164.348 29.4527C163.077 29.4527 161.927 29.3148 160.916 29.0236C159.904 28.7325 159.046 28.334 158.326 27.7977C157.606 27.2767 157.054 26.6331 156.64 25.8975C156.227 25.162 155.997 24.3498 155.936 23.4763H160.824C160.977 24.3192 161.36 24.9474 161.958 25.3918C162.556 25.8362 163.368 26.0508 164.379 26.0508C165.298 26.0508 166.019 25.8822 166.524 25.5298C167.03 25.1773 167.291 24.6869 167.291 24.0433C167.291 23.6449 167.168 23.3231 166.923 23.0932C166.678 22.8481 166.356 22.6488 165.927 22.4956C165.513 22.3424 165.023 22.2198 164.486 22.1125C163.95 22.0206 163.368 21.9133 162.755 21.806C161.958 21.6528 161.192 21.4689 160.441 21.285C159.69 21.0858 159.016 20.7946 158.433 20.3962C157.836 19.9978 157.361 19.4768 156.993 18.8485C156.625 18.2049 156.441 17.3774 156.441 16.3354C156.441 15.4312 156.64 14.6344 157.024 13.9601C157.407 13.2859 157.928 12.7036 158.587 12.2438C159.246 11.7841 160.027 11.4317 160.931 11.2018C161.835 10.972 162.801 10.8494 163.843 10.8494C166.279 10.8494 168.133 11.3244 169.39 12.2898C170.647 13.2399 171.397 14.4965 171.627 16.0289H166.816C166.478 14.7723 165.498 14.144 163.843 14.144C163.046 14.144 162.418 14.2973 161.943 14.6037C161.468 14.9102 161.238 15.3546 161.238 15.9216C161.238 16.2587 161.345 16.5192 161.575 16.7338C161.789 16.9483 162.096 17.1169 162.494 17.2395C162.893 17.3774 163.352 17.4847 163.873 17.5766C164.394 17.6685 164.961 17.7605 165.559 17.8678C166.356 18.0057 167.137 18.1742 167.934 18.3734C168.731 18.588 169.436 18.8945 170.08 19.3082C170.723 19.722 171.244 20.2889 171.643 20.9785C172.056 21.6681 172.256 22.5722 172.256 23.6602C172.256 24.6103 172.056 25.4378 171.658 26.1734C171.26 26.8936 170.708 27.5065 170.003 27.9816C169.298 28.472 168.455 28.8244 167.49 29.0696C166.555 29.3301 165.498 29.4527 164.348 29.4527Z" fill="white"/>
<path d="M19.1243 8.07574C20.1051 7.49343 20.9326 6.88047 21.4229 6.39011C22.8634 4.93433 22.8634 2.55911 21.4229 1.10333C20.7334 0.3831 19.7986 0 18.8179 0C17.8371 0 16.9024 0.3831 16.1975 1.088C14.9102 2.39054 13.623 4.79641 12.8722 6.81918C12.1213 4.78109 10.8341 2.37522 9.54685 1.088C8.85727 0.3831 7.92251 0 6.94177 0C5.94571 0 5.02627 0.3831 4.32137 1.088C2.88091 2.54378 2.88091 4.919 4.32137 6.37478C4.81174 6.86515 5.65456 7.47811 6.61997 8.06042H0V30.8778H16.979C16.0596 29.7132 13.6843 29.4221 10.972 28.9011C6.52802 28.0582 2.03809 26.9396 2.03809 21.1318C2.03809 18.5267 3.24869 16.5499 5.22548 15.2474C7.11033 14.0061 9.66944 13.3625 12.5197 13.3625C15.8297 13.3625 18.3582 14.0521 20.1511 15.2474C22.1125 16.5499 23.2159 18.4501 23.553 20.718H16.7185C16.2588 18.9405 14.849 18.0517 12.5044 18.0517C10.2518 18.0517 8.8113 18.9864 8.8113 20.5801C8.8113 22.4497 11.5236 22.7255 14.9409 23.3384C19.2163 24.1046 24.028 25.2233 24.3958 30.8778H25.729V8.07574H19.1243ZM17.4081 2.57443C17.7758 2.20666 18.2662 1.99212 18.7872 1.99212C19.3082 1.99212 19.7986 2.19133 20.1664 2.57443C20.9326 3.34063 20.9326 4.61252 20.1664 5.37872C19.3849 6.17557 16.9637 7.49343 15.7071 7.49343C15.4466 7.49343 15.37 7.43214 15.37 7.43214C14.9562 6.97242 16.1821 3.81567 17.4081 2.57443ZM5.79247 2.57443C6.16025 2.20666 6.65062 1.99212 7.17163 1.99212C7.69265 1.99212 8.18301 2.19133 8.55079 2.57443C9.77671 3.81567 11.0026 6.98774 10.5889 7.43214C10.5889 7.43214 10.5123 7.49343 10.2518 7.49343C8.97986 7.49343 6.574 6.17557 5.79247 5.37872C5.02627 4.5972 5.02627 3.34063 5.79247 2.57443Z" fill="white"/>
</g>
<defs>
<clipPath id="clip0">
<rect width="172.272" height="35" fill="white"/>
</clipPath>
</defs>
</svg>
