<svg width="24" height="24" viewBox="0 0 24 24" fill="none" xmlns="http://www.w3.org/2000/svg">
<path d="M9.19922 7L8.99802 7.47905C8.6732 8.25243 8.59156 9.10637 8.76395 9.92729C9.02699 11.1799 10.0242 12.1473 11.2842 12.3723L11.3951 12.3921C11.7947 12.4635 12.2038 12.4635 12.6033 12.3921L12.7143 12.3723C13.9743 12.1473 14.9714 11.1799 15.2345 9.92729C15.4069 9.10637 15.3252 8.25243 15.0004 7.47905L14.7992 7" stroke="#AAAABE" stroke-width="1.5" stroke-linecap="round"/>
<path d="M20.2204 15.143C19.6503 17.6504 17.7013 19.6204 15.202 20.2251C13.1015 20.7334 10.8978 20.7334 8.79741 20.2251C6.29813 19.6204 4.34912 17.6504 3.77895 15.143C3.26951 12.9026 3.3934 10.5648 4.13678 8.39084L4.24722 8.06787C5.06517 5.67585 7.10851 3.91013 9.59385 3.44766L10.2744 3.32102C11.4148 3.10881 12.5846 3.10881 13.725 3.32102L14.4056 3.44766C16.8909 3.91013 18.9342 5.67586 19.7522 8.06789L19.8626 8.39084C20.606 10.5648 20.7299 12.9026 20.2204 15.143Z" stroke="#AAAABE" stroke-width="1.5"/>
</svg>
