<svg width="23" height="27" viewBox="0 0 23 27" fill="none" xmlns="http://www.w3.org/2000/svg">
<path d="M16.3923 6.92207C17.2329 6.42294 17.9422 5.89755 18.3625 5.47723C19.5972 4.22942 19.5972 2.19352 18.3625 0.945709C17.7715 0.328371 16.9702 0 16.1296 0C15.289 0 14.4877 0.328371 13.8835 0.932575C12.7802 2.04904 11.6769 4.11121 11.0333 5.84501C10.3897 4.09807 9.28634 2.0359 8.18301 0.932575C7.59195 0.328371 6.79072 0 5.95009 0C5.09632 0 4.30823 0.328371 3.70403 0.932575C2.46935 2.18039 2.46935 4.21629 3.70403 5.4641C4.12434 5.88441 4.84676 6.40981 5.67426 6.90893H0V26.4667H14.5534C13.7653 25.4685 11.7294 25.2189 9.40456 24.7723C5.59545 24.0499 1.74694 23.0911 1.74694 18.113C1.74694 15.88 2.78459 14.1856 4.47899 13.0692C6.09457 12.0053 8.28809 11.4536 10.7312 11.4536C13.5683 11.4536 15.7356 12.0447 17.2723 13.0692C18.9536 14.1856 19.8993 15.8144 20.1883 17.7583H14.3301C13.9361 16.2347 12.7277 15.4729 10.718 15.4729C8.78722 15.4729 7.55254 16.2741 7.55254 17.6401C7.55254 19.2426 9.87741 19.479 12.8065 20.0044C16.4711 20.6611 20.5955 21.62 20.9107 26.4667H22.0534V6.92207H16.3923ZM14.9212 2.20666C15.2364 1.89142 15.6567 1.70753 16.1033 1.70753C16.5499 1.70753 16.9702 1.87828 17.2855 2.20666C17.9422 2.8634 17.9422 3.95359 17.2855 4.61033C16.6156 5.29334 14.5403 6.42294 13.4632 6.42294C13.2399 6.42294 13.1743 6.3704 13.1743 6.3704C12.8196 5.97636 13.8704 3.27058 14.9212 2.20666ZM4.96497 2.20666C5.28021 1.89142 5.70053 1.70753 6.14711 1.70753C6.5937 1.70753 7.01401 1.87828 7.32925 2.20666C8.38004 3.27058 9.43083 5.98949 9.07618 6.3704C9.07618 6.3704 9.01051 6.42294 8.78722 6.42294C7.69703 6.42294 5.63485 5.29334 4.96497 4.61033C4.30823 3.94046 4.30823 2.8634 4.96497 2.20666Z" fill="#100F15"/>
</svg>
