<svg width="36" height="11" viewBox="0 0 36 11" fill="none" xmlns="http://www.w3.org/2000/svg">
<path d="M5.86807 6.84933C5.68302 6.69345 5.84802 6.47969 6.07211 6.60132C8.79982 8.05721 11.8835 8.82086 15.0201 8.81732C17.3652 8.80763 19.6854 8.3647 21.8488 7.51362C22.1842 7.38294 22.4628 7.72209 22.1352 7.94783C20.1536 9.31158 17.2847 10.0373 14.8132 10.0373C11.514 10.0547 8.32579 8.91852 5.86807 6.84933ZM22.4342 9.17609C22.6744 8.61941 23.2088 7.37061 22.9556 7.06844C22.7023 6.76627 21.2832 6.9258 20.6456 6.9962C20.4509 7.01675 20.4229 6.85921 20.5957 6.74579C21.7284 6.00282 23.5859 6.21771 23.8012 6.46729C24.0166 6.71686 23.7461 8.4576 22.6807 9.28578C22.6364 9.32409 22.5794 9.34716 22.5193 9.35105C22.4354 9.35133 22.3873 9.28457 22.4345 9.17609H22.4342ZM25.1633 3.29324C25.1633 1.72101 26.0084 0.497497 27.5353 0.497497C29.102 0.497497 29.9509 1.75123 29.9474 3.34675C29.9474 4.88803 29.011 6.1112 27.5353 6.1112C25.9993 6.11202 25.1639 4.85753 25.1639 3.29351L25.1633 3.29324ZM26.7177 3.13379C26.7177 3.75129 26.7089 5.06995 27.5351 5.06995C28.3551 5.06995 28.3944 4.00672 28.3909 3.35799C28.4085 2.90648 28.3553 2.45511 28.233 2.01817C28.2003 1.87216 28.1124 1.7421 27.9858 1.65218C27.8591 1.56226 27.7022 1.5185 27.5438 1.52885C26.7666 1.52912 26.7182 2.51848 26.7182 3.13406L26.7177 3.13379ZM14.8185 4.5413C14.8065 4.19685 14.908 3.85715 15.1092 3.56907C15.3104 3.28099 15.6015 3.05861 15.9424 2.93207C16.5145 2.69674 17.3144 2.65537 17.9258 2.58989V2.46495C17.9589 2.22063 17.9136 1.97241 17.7956 1.75251C17.7267 1.66818 17.637 1.60102 17.5343 1.5564C17.4316 1.51179 17.319 1.49117 17.206 1.49648C17.0126 1.48167 16.82 1.53344 16.6641 1.64201C16.5081 1.75059 16.3994 1.90867 16.358 2.08693C16.352 2.13163 16.3309 2.17319 16.2977 2.20571C16.2646 2.23823 16.2211 2.25976 16.1738 2.26725L15.1522 2.16451C15.127 2.16149 15.1027 2.15374 15.0809 2.1415C15.0591 2.12926 15.0402 2.11303 15.0255 2.09361C15.0107 2.0742 15.0004 2.05195 14.9951 2.0286C14.9898 2.00525 14.9897 1.98109 14.9948 1.95771C15.2279 0.799966 16.3501 0.450946 17.3538 0.450946C17.9283 0.430234 18.4917 0.604172 18.9414 0.941071C19.4548 1.38872 19.4076 1.98583 19.4076 2.63511V4.16916C19.4123 4.50932 19.5536 4.83526 19.8034 5.08145C19.8213 5.0989 19.8354 5.11961 19.8448 5.14218C19.8543 5.16476 19.8588 5.18883 19.8583 5.21308C19.8579 5.23733 19.8523 5.26122 19.842 5.28344C19.8316 5.30567 19.8167 5.32577 19.7981 5.34257C19.5833 5.50995 19.2016 5.82275 18.9912 5.99589L18.9895 5.99428C18.9551 6.02131 18.9129 6.03807 18.8684 6.04217C18.8238 6.04628 18.779 6.03754 18.7397 6.01729C18.4966 5.83504 18.2914 5.61203 18.1344 5.35969C17.9249 5.59925 17.6583 5.78897 17.3562 5.91349C17.054 6.03801 16.7249 6.09388 16.3956 6.07642C15.5079 6.07532 14.8188 5.56453 14.8188 4.5413H14.8185ZM16.3566 4.37061C16.3566 4.79689 16.5941 5.08279 17.0003 5.08279C17.1532 5.07655 17.3015 5.03191 17.4297 4.9533C17.5578 4.87469 17.6612 4.76504 17.7288 4.63601C17.8991 4.31267 17.9678 3.95028 17.927 3.59155V3.37832C17.1629 3.37969 16.3569 3.53176 16.3569 4.37061H16.3566ZM0.990139 4.5421C0.97861 4.19788 1.08049 3.85866 1.28183 3.57095C1.48318 3.28324 1.7742 3.06104 2.11502 2.93475C2.6888 2.69914 3.48783 2.6578 4.09833 2.5915V2.46495C4.1309 2.22098 4.08689 1.97323 3.97162 1.75251C3.90208 1.66843 3.81206 1.60125 3.70917 1.55667C3.60627 1.5121 3.4935 1.49155 3.38033 1.49648C3.1868 1.48164 2.99409 1.53318 2.83799 1.64175C2.68189 1.75031 2.57296 1.90861 2.53143 2.08693C2.52568 2.13145 2.50488 2.17293 2.47202 2.20544C2.43917 2.23796 2.39601 2.25957 2.34901 2.26725L1.32381 2.16451C1.29881 2.16116 1.2748 2.15305 1.25323 2.1407C1.23166 2.12835 1.21302 2.11216 1.19838 2.09281C1.18374 2.07346 1.17341 2.05154 1.16807 2.02834C1.16274 2.00513 1.16252 1.98101 1.16736 1.95771C1.40399 0.799966 2.52273 0.450946 3.52547 0.450946C4.10086 0.430079 4.66506 0.604001 5.11564 0.941071C5.62823 1.38872 5.57844 1.98583 5.57844 2.63511V4.16916C5.58321 4.50961 5.72528 4.83568 5.97592 5.08145C5.99424 5.09868 6.0087 5.11911 6.01854 5.14165C6.02838 5.16419 6.03336 5.18845 6.0332 5.21281C6.03303 5.23717 6.02775 5.26129 6.01762 5.28371C6.00748 5.30613 5.99269 5.32636 5.97415 5.34337C5.75763 5.51076 5.37503 5.82355 5.16551 5.99669L5.16288 5.99509C5.12844 6.02191 5.08629 6.03834 5.04179 6.04244C4.99728 6.04654 4.95248 6.03812 4.91316 6.0181C4.67032 5.83558 4.46512 5.61262 4.30785 5.36049C4.09849 5.60015 3.83192 5.78989 3.52974 5.91429C3.22756 6.03869 2.8984 6.09431 2.56906 6.07642C1.6823 6.07532 0.990779 5.56535 0.990779 4.5413L0.990139 4.5421ZM2.53171 4.37061C2.53171 4.79689 2.76658 5.08279 3.1728 5.08279C3.32568 5.07652 3.474 5.03164 3.60216 4.95304C3.73033 4.87443 3.83363 4.76502 3.90133 4.63601C4.07089 4.31246 4.1393 3.95019 4.09862 3.59155V3.37832C3.33716 3.37969 2.532 3.53176 2.532 4.37061H2.53171ZM33.8086 6.00766C33.7628 6.00491 33.7194 5.98753 33.6856 5.95843C33.6518 5.92934 33.6296 5.89027 33.6227 5.84767V3.10303C33.6227 2.55018 33.6926 1.74154 32.9658 1.74154C32.8334 1.7464 32.7054 1.78729 32.597 1.85899C32.4887 1.93068 32.4048 2.03027 32.3553 2.14578C32.224 2.44907 32.1665 2.77615 32.1869 3.10303V5.82306C32.1847 5.87301 32.1618 5.92008 32.1231 5.95442C32.0845 5.98876 32.0331 6.00762 31.9799 6.00686H30.9309C30.8803 6.00458 30.8325 5.98426 30.7972 5.95014C30.7619 5.91602 30.7416 5.87066 30.7406 5.82306L30.7389 0.767173C30.7448 0.720747 30.769 0.678017 30.8068 0.647585C30.8446 0.617152 30.8931 0.601336 30.9428 0.602906H31.9202C31.9638 0.604006 32.0059 0.618346 32.04 0.643839C32.0742 0.669332 32.0986 0.704496 32.1096 0.744165V1.51681H32.1263C32.4206 0.825616 32.8364 0.495892 33.5638 0.495892C33.8069 0.485467 34.0487 0.535092 34.265 0.639826C34.4814 0.74456 34.6648 0.900937 34.797 1.09303C35.073 1.49794 35.073 2.17739 35.073 2.66668V5.84741C35.0645 5.89241 35.0394 5.93317 35.0021 5.96245C34.9648 5.99173 34.9176 6.00764 34.869 6.00739L33.8086 6.00766ZM6.99031 6.00606C6.94262 6.00461 6.8971 5.98694 6.86225 5.95629C6.8274 5.92565 6.80564 5.88402 6.80092 5.83938V0.785365C6.80164 0.760863 6.80743 0.736579 6.81807 0.714201C6.82871 0.691823 6.84395 0.671651 6.86289 0.654808C6.88184 0.637966 6.90413 0.624756 6.92849 0.616015C6.95285 0.607275 6.97883 0.603283 7.0049 0.603976H7.98926C8.03752 0.605289 8.08359 0.623104 8.11868 0.654273C8.15377 0.685442 8.17545 0.727573 8.17958 0.772791V1.43307H8.19793C8.2861 1.15415 8.47048 0.910717 8.72206 0.741222C8.97364 0.571728 9.27811 0.485819 9.5874 0.496962C10.2469 0.496962 10.6606 0.795846 10.957 1.43307C11.0567 1.19242 11.2221 0.98078 11.4365 0.819343C11.651 0.657905 11.9069 0.552435 12.1784 0.513549C12.45 0.474663 12.7277 0.503718 12.9835 0.597823C13.2393 0.691928 13.4642 0.847859 13.6356 1.04969C13.9684 1.47487 13.9011 2.09242 13.9011 2.63404L13.8994 5.82306C13.8987 5.84762 13.893 5.87177 13.8824 5.89423C13.8718 5.91668 13.8565 5.93696 13.8375 5.95389C13.8186 5.97081 13.7963 5.98414 13.7719 5.99295C13.7475 6.00175 13.7215 6.00591 13.6954 6.00525H12.6422C12.5919 6.00306 12.5443 5.98313 12.509 5.94934C12.4738 5.91555 12.4533 5.8704 12.4519 5.82306V3.14396C12.4672 2.82766 12.4575 2.51075 12.4228 2.19581C12.4016 2.061 12.3245 1.93962 12.2082 1.85818C12.092 1.77674 11.9461 1.74189 11.8026 1.76134C11.666 1.76485 11.5335 1.80602 11.4214 1.87959C11.3093 1.95316 11.2227 2.05583 11.1721 2.17521C11.0848 2.49115 11.0517 2.81821 11.0741 3.14396V5.82306C11.0735 5.84763 11.0678 5.87175 11.0572 5.89423C11.0466 5.9167 11.0314 5.93696 11.0124 5.95389C10.9935 5.97082 10.9712 5.98415 10.9468 5.99295C10.9224 6.00174 10.8963 6.00595 10.8701 6.00525H9.81698C9.76662 6.00319 9.71898 5.98315 9.68366 5.94934C9.64834 5.91552 9.62802 5.87044 9.62674 5.82306V3.14396C9.62674 2.57988 9.72463 1.75063 8.97512 1.75063C8.21745 1.75063 8.24866 2.55934 8.24866 3.14396V5.82386C8.24802 5.84843 8.24219 5.87257 8.23158 5.89503C8.22098 5.91748 8.20578 5.93777 8.18683 5.95469C8.16789 5.97161 8.14557 5.98494 8.12117 5.99375C8.09677 6.00255 8.07074 6.00671 8.04461 6.00606H6.99031ZM20.4946 5.69571V4.9616C20.483 4.78773 20.5274 4.61475 20.6222 4.46505L22.7034 1.6792H20.8912C20.8652 1.68044 20.8392 1.67655 20.8148 1.66797C20.7904 1.65938 20.7682 1.64617 20.7494 1.62917C20.7307 1.61217 20.7158 1.59185 20.7058 1.56924C20.6958 1.54664 20.6909 1.52229 20.6913 1.49781V0.774664C20.6905 0.750342 20.695 0.726118 20.7045 0.7035C20.7141 0.680881 20.7285 0.660217 20.7468 0.643037C20.7651 0.625856 20.787 0.612348 20.8111 0.603441C20.8352 0.594534 20.861 0.590565 20.8868 0.591402H24.3532C24.3793 0.590352 24.4054 0.594128 24.4298 0.602906C24.4542 0.611684 24.4765 0.625067 24.4952 0.642234C24.514 0.659401 24.5288 0.679957 24.5387 0.702697C24.5487 0.725437 24.5535 0.75008 24.5531 0.774664V1.39347C24.5531 1.49785 24.4589 1.63269 24.2928 1.84775L22.4936 4.24219C23.1788 4.20554 23.8619 4.34233 24.4718 4.63815C24.5261 4.66542 24.5718 4.70571 24.6044 4.75479C24.6371 4.80387 24.6554 4.86015 24.6577 4.91799V5.68956C24.6583 5.71852 24.6513 5.74724 24.6373 5.77303C24.6233 5.79882 24.6026 5.82081 24.5773 5.83724C24.5519 5.85368 24.5226 5.86406 24.492 5.8672C24.4613 5.87035 24.4304 5.86634 24.4018 5.85543C23.835 5.58351 23.2075 5.44204 22.5711 5.44289C21.9347 5.44375 21.3077 5.5868 20.7417 5.86025C20.7213 5.87106 20.6983 5.87696 20.675 5.8771C20.6267 5.87232 20.582 5.85129 20.5489 5.81798C20.5158 5.78466 20.4967 5.74126 20.4949 5.69571H20.4946Z" fill="white"/>
</svg>
