<svg width="33" height="11" viewBox="0 0 33 11" fill="none" xmlns="http://www.w3.org/2000/svg">
<path d="M5.28736 7.25558C5.11355 7.09941 5.26874 6.88601 5.47698 7.00903C8.03657 8.46477 10.9297 9.22843 13.8725 9.22516C16.0725 9.21524 18.249 8.7724 20.2788 7.92165C20.5933 7.79014 20.854 8.12931 20.5476 8.35588C18.6893 9.71944 15.997 10.4452 13.678 10.4452C10.5833 10.4622 7.59277 9.32533 5.28736 7.25558ZM20.8295 9.58247C21.0541 9.02576 21.5561 7.7773 21.3192 7.4751C21.0822 7.17291 19.7491 7.33259 19.1515 7.40273C18.9692 7.42383 18.9427 7.26573 19.105 7.1523C20.1676 6.40929 21.9103 6.62459 22.1111 6.87418C22.312 7.12377 22.0592 8.86462 21.06 9.69284C21.0184 9.73123 20.9651 9.75439 20.9087 9.75839C20.8303 9.75839 20.7849 9.69124 20.8303 9.58247H20.8295ZM23.3897 3.69942C23.3897 2.12654 24.1839 0.902705 25.6156 0.902705C27.0853 0.902705 27.882 2.1572 27.8785 3.75199C27.8785 5.29418 27.0001 6.517 25.6156 6.517C24.1735 6.51837 23.3895 5.26324 23.3895 3.69995L23.3897 3.69942ZM24.8484 3.53942C24.8484 4.15751 24.8398 5.47609 25.6154 5.47609C26.3844 5.47609 26.4215 4.4128 26.4185 3.76403C26.4348 3.3122 26.3847 2.86056 26.2699 2.42333C26.239 2.27732 26.1566 2.14732 26.0377 2.05746C25.9188 1.96759 25.7716 1.92387 25.6231 1.93425C24.8953 1.93452 24.8474 2.92327 24.8474 3.53916L24.8484 3.53942ZM0.711761 4.94875C0.700967 4.60423 0.796536 4.26474 0.985443 3.97674C1.17435 3.68874 1.44746 3.46627 1.76726 3.3397C2.30508 3.1049 3.05459 3.06299 3.62739 2.99696V2.86988C3.65814 2.62592 3.61689 2.37824 3.50876 2.15752C3.44371 2.07329 3.35943 2.00595 3.26297 1.96127C3.16651 1.91659 3.06074 1.89587 2.95459 1.90081C2.77284 1.88593 2.59182 1.9377 2.44526 2.04649C2.2987 2.15528 2.19654 2.31373 2.1577 2.49236C2.15231 2.53681 2.13282 2.57829 2.10205 2.61075C2.07129 2.64322 2.0309 2.66488 1.9869 2.67256L1.02441 2.56982C1.00096 2.56647 0.978449 2.55836 0.958221 2.54601C0.937994 2.53365 0.920441 2.51733 0.906714 2.49798C0.892987 2.47863 0.883426 2.45671 0.878425 2.4335C0.873424 2.41029 0.873088 2.3863 0.877625 2.363C1.09953 1.20547 2.1495 0.856151 3.09123 0.856151C3.63081 0.83543 4.15993 1.00935 4.58254 1.34631C5.06379 1.79452 5.01755 2.39181 5.01755 3.04057V4.57471C5.02177 4.91543 5.15498 5.24182 5.39011 5.48787C5.40713 5.50517 5.42062 5.52568 5.42974 5.5482C5.43886 5.57071 5.4434 5.5948 5.44322 5.6191C5.44304 5.6434 5.43812 5.66749 5.42867 5.68987C5.41923 5.71225 5.40551 5.73248 5.38824 5.74953C5.18492 5.9172 4.82627 6.22986 4.62951 6.40356L4.62657 6.40222C4.59438 6.42917 4.55477 6.44562 4.51302 6.44958C4.47126 6.45354 4.42932 6.44484 4.39266 6.42443C4.1649 6.24186 3.97239 6.0189 3.82474 5.76679C3.62832 6.00658 3.3781 6.19647 3.09457 6.32089C2.81104 6.4453 2.50217 6.50078 2.19319 6.48276C1.35996 6.48303 0.711494 5.9715 0.711494 4.94848L0.711761 4.94875ZM2.15797 4.77698C2.15797 5.20328 2.37883 5.49094 2.75924 5.49094C2.90264 5.48451 3.04165 5.43961 3.16182 5.36091C3.282 5.28222 3.37894 5.17265 3.44244 5.0436C3.60108 4.72002 3.66507 4.35802 3.62712 3.99948V3.78597C2.91276 3.7857 2.15743 3.93808 2.15743 4.77671L2.15797 4.77698ZM13.685 4.94768C13.6737 4.60306 13.769 4.26335 13.9578 3.97513C14.1466 3.68692 14.4196 3.46431 14.7396 3.33782C15.2763 3.10276 16.0265 3.06111 16.5999 2.99536V2.86988C16.6308 2.62565 16.5885 2.3777 16.4787 2.15752C16.414 2.07307 16.3299 2.00558 16.2334 1.96087C16.137 1.91616 16.0312 1.89557 15.9251 1.90081C15.7434 1.88597 15.5626 1.93782 15.4163 2.04662C15.2699 2.15542 15.1679 2.31382 15.1292 2.49236C15.1238 2.53709 15.1041 2.57879 15.0729 2.61129C15.0418 2.64379 15.0009 2.66526 14.9566 2.67256L13.9977 2.56982C13.9741 2.56669 13.9514 2.55883 13.9311 2.54654C13.9107 2.53426 13.8931 2.51779 13.8793 2.49838C13.8656 2.47898 13.8559 2.45694 13.851 2.43363C13.8461 2.41033 13.8461 2.38633 13.8509 2.363C14.0695 1.20547 15.1222 0.856151 16.0645 0.856151C16.6036 0.835607 17.132 1.00953 17.5541 1.34631C18.0348 1.79452 17.9914 2.39181 17.9914 3.04057V4.57471C17.9956 4.91515 18.1282 5.24136 18.3625 5.48787C18.3793 5.5053 18.3925 5.52601 18.4014 5.5486C18.4103 5.57119 18.4147 5.59523 18.4142 5.6195C18.4137 5.64378 18.4084 5.66778 18.3986 5.69C18.3889 5.71222 18.3748 5.73225 18.3572 5.749C18.1561 5.91612 17.7981 6.22906 17.6 6.40276L17.5986 6.40129C17.5663 6.42815 17.5267 6.44472 17.4848 6.44878C17.443 6.45283 17.4009 6.44418 17.3639 6.42403C17.1361 6.24168 16.9437 6.0188 16.7966 5.76652C16.5999 6.00623 16.3497 6.19613 16.0661 6.32062C15.7825 6.44511 15.4737 6.50074 15.1646 6.48302C14.3316 6.48275 13.6848 5.9707 13.6848 4.94741L13.685 4.94768ZM15.1282 4.77698C15.1282 5.20328 15.3504 5.49094 15.7316 5.49094C15.875 5.48451 16.0141 5.43961 16.1343 5.36091C16.2545 5.28222 16.3513 5.17265 16.4148 5.0436C16.5738 4.72015 16.6382 4.35808 16.6001 3.99948V3.78597C15.8839 3.7857 15.1276 3.93808 15.1276 4.77671L15.1282 4.77698ZM31.5008 6.41453C31.4578 6.41185 31.417 6.39454 31.3852 6.36543C31.3534 6.33633 31.3324 6.2972 31.3259 6.25453V3.50825C31.3259 2.95565 31.3915 2.14682 30.7096 2.14682C30.5854 2.15148 30.465 2.19201 30.3632 2.26361C30.2614 2.3352 30.1824 2.43486 30.1357 2.55042C30.0124 2.85424 29.9583 3.18186 29.9775 3.50932V6.22979C29.976 6.2799 29.9548 6.32746 29.9185 6.36196C29.8822 6.39645 29.8337 6.41517 29.7837 6.41399H28.8C28.7525 6.41165 28.7076 6.3913 28.6744 6.35714C28.6413 6.32298 28.6222 6.27744 28.6212 6.22979L28.6199 1.17373C28.6257 1.12743 28.6486 1.08492 28.6839 1.05454C28.7193 1.02416 28.7647 1.00807 28.8112 1.00932H29.7283C29.7692 1.01092 29.8084 1.02561 29.8403 1.0512C29.8722 1.07678 29.8951 1.11194 29.9057 1.15153V1.92462H29.9218C30.1973 1.23284 30.5878 0.903508 31.2705 0.903508C31.4983 0.892983 31.725 0.942533 31.9278 1.04718C32.1306 1.15183 32.3026 1.30799 32.4265 1.50001C32.6858 1.90549 32.6857 2.58524 32.6857 3.07429V6.25641C32.6778 6.30172 32.6541 6.3428 32.6187 6.37212C32.5834 6.40145 32.5387 6.41709 32.4928 6.4164L31.5008 6.41453ZM6.34032 6.41319C6.29577 6.41139 6.25328 6.39348 6.22076 6.36289C6.18824 6.3323 6.16788 6.29097 6.16325 6.24651V1.19153C6.16382 1.16696 6.16919 1.14268 6.17913 1.12022C6.18907 1.09777 6.20325 1.07747 6.22103 1.06056C6.23881 1.04365 6.25978 1.03053 6.28268 1.02177C6.30557 1.013 6.32997 1.00886 6.35447 1.00959H7.27546C7.32091 1.01057 7.36437 1.02834 7.39756 1.05949C7.43074 1.09064 7.45137 1.13288 7.45533 1.17828V1.83914H7.47201C7.5547 1.56006 7.72757 1.31659 7.9636 1.14698C8.19963 0.977374 8.48526 0.891299 8.77544 0.902438C9.39442 0.902438 9.78254 1.2016 10.0599 1.83914C10.1535 1.59848 10.3087 1.3868 10.5099 1.22537C10.711 1.06394 10.9509 0.958445 11.2056 0.919561C11.4603 0.880677 11.7208 0.909745 11.9607 1.00384C12.2007 1.09793 12.4116 1.25377 12.5724 1.4556C12.8851 1.88081 12.8214 2.49893 12.8214 3.04057L12.8201 6.23045C12.819 6.27987 12.7984 6.32677 12.7628 6.36102C12.7273 6.39527 12.6798 6.41407 12.6305 6.41319H11.6414C11.5943 6.41066 11.5498 6.39046 11.5169 6.35661C11.484 6.32275 11.4651 6.27771 11.4638 6.23045V3.55066C11.4784 3.23453 11.4692 2.91775 11.4365 2.60299C11.4164 2.46821 11.344 2.34689 11.235 2.26548C11.126 2.18407 10.9892 2.14919 10.8547 2.16849C10.7265 2.17188 10.602 2.21282 10.4968 2.28635C10.3916 2.35988 10.3103 2.4627 10.2627 2.58212C10.181 2.89811 10.1501 3.22518 10.1712 3.55093V6.23072C10.1707 6.25534 10.1654 6.27962 10.1555 6.30216C10.1456 6.3247 10.1312 6.34497 10.1134 6.36196C10.0956 6.37894 10.0747 6.39219 10.0518 6.40102C10.0288 6.40984 10.0044 6.41415 9.97985 6.41346H8.99254C8.9452 6.41139 8.90029 6.39133 8.86711 6.35741C8.83393 6.32348 8.81487 6.27822 8.81374 6.23072V3.55093C8.81374 2.98709 8.90534 2.15752 8.20246 2.15752C7.49192 2.15752 7.51925 2.96682 7.51925 3.55093V6.23179C7.51825 6.28123 7.4977 6.32823 7.46214 6.36249C7.42658 6.39676 7.37895 6.41548 7.32964 6.41453L6.34032 6.41319ZM19.0099 6.10243V5.36854C18.9989 5.19481 19.0405 5.0218 19.1291 4.8721L21.0819 2.08435H19.3818C19.3573 2.08574 19.3328 2.08203 19.3099 2.07351C19.2869 2.06499 19.2659 2.05187 19.2482 2.03485C19.2305 2.01783 19.2167 1.99733 19.2072 1.97465C19.1978 1.95197 19.1931 1.92751 19.1935 1.90295V1.17949C19.1928 1.15516 19.1971 1.13092 19.206 1.10832C19.215 1.08571 19.2286 1.06514 19.2458 1.04799C19.263 1.03083 19.2835 1.0174 19.3061 1.00852C19.3287 0.999648 19.353 0.995609 19.3772 0.996482H22.6293C22.6538 0.995435 22.6782 0.999361 22.7011 1.00812C22.724 1.01688 22.7449 1.03018 22.7624 1.04732C22.78 1.06445 22.7939 1.08507 22.8033 1.10778C22.8127 1.13049 22.8174 1.15491 22.817 1.17949V1.79833C22.817 1.90272 22.7285 2.03755 22.5732 2.25317L20.8851 4.64816C21.5277 4.61164 22.1683 4.74833 22.7404 5.04386C22.7914 5.07129 22.8343 5.11156 22.8649 5.16078C22.8955 5.21001 22.9127 5.26644 22.9148 5.32439V6.09641C22.9155 6.12535 22.9091 6.15395 22.896 6.17975C22.8829 6.20555 22.8636 6.22776 22.8398 6.24423C22.8161 6.2607 22.7886 6.27102 22.7599 6.2742C22.7312 6.27738 22.7022 6.2733 22.6754 6.26243C22.1436 5.99032 21.5549 5.84892 20.9578 5.84973C20.3608 5.85054 19.7725 5.99357 19.2414 6.26711C19.2222 6.27794 19.2006 6.2837 19.1786 6.28383C19.1332 6.27909 19.0911 6.25801 19.0601 6.22457C19.029 6.19112 19.0111 6.14756 19.0096 6.1019L19.0099 6.10243Z" fill="white"/>
</svg>
