<svg width="54" height="35" viewBox="0 0 54 35" fill="none" xmlns="http://www.w3.org/2000/svg">
<path d="M37.2854 1.06191C39.2125 0.115433 40.1674 0.239637 40.1889 1.19899C40.2147 2.44523 40.0305 4.1025 39.8977 5.30165C39.1824 11.8192 37.9876 17.145 37.8977 23.8369C41.0453 15.6881 43.6834 10.0244 47.0837 3.04904C48.163 0.826373 48.8524 1.24181 49.7389 0.847787C53.1906 -0.689615 53.3192 0.252517 52.8694 2.13259C51.195 9.09601 46.9081 31.0208 46.253 34.3968C46.0645 35.3736 45.0025 34.9595 44.7283 34.5775C43.4993 32.8773 42.1118 32.8508 42.2658 31.7202C43.0368 26.0916 45.8118 11.9696 46.5356 8.64201C42.8482 16.2015 39.024 25.6518 37.0583 31.0102C36.6428 32.148 35.8848 32.0645 35.4138 31.232C34.75 30.0625 33.461 29.4654 33.2468 28.0834C32.5745 23.6896 34.0177 15.3146 34.2189 10.0163C32.2105 15.8041 28.8401 27.0411 27.3626 32.118C26.7545 34.2186 24.7245 33.8759 25.2641 31.8285C27.5081 23.3084 32.3432 8.23945 34.4331 2.82204C34.9258 1.54578 36.2147 1.5886 37.2854 1.06191Z" fill="#100F15"/>
<path d="M25.0461 0.0166489C24.3952 -0.141771 22.5066 0.877477 21.346 1.07872C20.9777 1.14296 20.6265 1.53264 20.5023 1.81107C18.6436 6.08076 16.9778 10.1509 15.5345 13.8587C13.6888 14.1739 11.5304 14.5888 9.11506 15.1314C10.8452 10.6934 12.5925 6.31622 14.2969 2.1065C15.1363 0.0337187 12.9265 -0.163255 12.07 1.9352C10.9565 4.66322 8.8709 9.77442 6.56258 15.7318C4.86669 16.1477 3.06806 16.623 1.18799 17.1661C-0.178189 17.5605 -0.233791 17.9245 0.357212 18.7438C0.682661 19.1999 1.35503 19.154 1.66333 19.479C2.45992 20.3214 2.94386 21.3291 4.36986 21.4816C3.09794 24.884 1.82603 28.3928 0.674046 31.7712C-0.0496972 33.8919 2.01018 34.3257 2.8025 32.0816C4.07869 28.4642 5.42342 24.803 6.80667 21.1526C7.95865 20.8849 10.7466 20.2845 13.3204 19.726C11.2776 25.325 9.93281 29.5772 9.42326 31.6469C9.32908 32.0452 9.4875 32.2662 9.57315 32.4285C10.2626 33.4319 10.9179 33.473 11.8044 34.7136C12.0442 35.0519 12.8494 35.2344 13.1234 34.4014C15.0163 28.6838 16.9648 23.3191 18.7806 18.5097C19.5343 18.3449 20.8919 18.0172 21.7227 16.7774C23.2001 14.577 23.6241 15.0233 23.9796 14.3544C24.425 13.5146 24.1294 12.7261 22.5535 12.9209C22.5535 12.9209 21.9582 12.9633 20.8576 13.0888C22.6049 8.59002 24.1337 4.77425 25.2344 1.86647C25.6114 0.881743 25.6585 0.162266 25.0461 0.0166489Z" fill="#100F15"/>
<path d="M22.4684 29.1948C22.8752 30.223 24.1472 29.9116 23.6632 28.6706C23.1707 27.4063 21.9459 23.6004 21.6247 22.3743C21.1879 20.7222 23.0807 21.174 22.1215 22.2541C21.2993 23.1829 20.751 23.5551 19.2308 25.3212C17.7619 27.0261 18.1601 29.2385 19.7318 29.7272C21.5048 30.2787 23.068 28.325 24.0358 26.8917C24.9736 25.5037 24.0657 24.6896 23.1193 25.5102C22.5112 26.0378 21.8088 26.848 21.0979 27.2848C20.5197 27.6364 20.0658 27.2587 20.8367 26.1975C21.7317 24.9689 22.7338 23.9394 23.479 22.7783C24.9993 20.4122 21.9929 19.0483 20.6996 20.5852C20.0058 21.4045 20.1814 22.2088 20.3699 22.8991C20.674 24.0048 21.8046 27.5345 22.4684 29.1948Z" fill="#100F15"/>
</svg>
