<svg width="784" height="733" viewBox="0 0 784 733" fill="none" xmlns="http://www.w3.org/2000/svg">
<circle opacity="0.1" cx="409.5" cy="344.893" r="252.5" stroke="white"/>
<circle opacity="0.1" cx="409.5" cy="344.893" r="343.5" stroke="white"/>
<circle opacity="0.1" cx="409.5" cy="344.893" r="155.5" stroke="white"/>
<path d="M156.5 344.893C156.5 484.621 269.772 597.893 409.5 597.893C549.228 597.893 662.5 484.621 662.5 344.893C662.5 205.165 549.228 91.8926 409.5 91.8926" stroke="white"/>
<path d="M409.5 500.893C495.656 500.893 565.5 431.049 565.5 344.893C565.5 258.736 495.656 188.893 409.5 188.893" stroke="white"/>
<path d="M409.5 188.893L409.5 91.8926" stroke="white"/>
<path d="M409.5 501.393V406.893" stroke="white"/>
<path opacity="0.1" d="M409.5 732.393V597.893" stroke="white"/>
<path opacity="0.1" d="M409.5 135.393V0.892578" stroke="white"/>
<path d="M0 345.393H156.5" stroke="white"/>
<path opacity="0.1" d="M662.5 345.893H783.5" stroke="white"/>
<g filter="url(#filter0_b)">
<circle cx="78.5" cy="345.893" r="40" fill="url(#paint0_linear)" fill-opacity="0.06"/>
<circle cx="78.5" cy="345.893" r="39.5" stroke="url(#paint1_linear)" stroke-opacity="0.5"/>
</g>
<g clip-path="url(#clip0)">
<path d="M86.0668 334.621C87.3882 333.972 88.0431 334.057 88.0578 334.715C88.0754 335.569 87.9491 336.706 87.8581 337.528C87.3676 341.997 86.5483 345.649 86.4867 350.238C88.645 344.65 90.454 340.767 92.7856 335.983C93.5257 334.459 93.9985 334.744 94.6063 334.474C96.9732 333.42 97.0614 334.066 96.753 335.355C95.6048 340.13 92.6652 355.164 92.216 357.479C92.0867 358.149 91.3585 357.865 91.1705 357.603C90.3278 356.437 89.3763 356.419 89.482 355.644C90.0106 351.784 91.9135 342.1 92.4098 339.819C89.8813 345.002 87.259 351.482 85.9111 355.157C85.6262 355.937 85.1064 355.88 84.7834 355.309C84.3282 354.507 83.4443 354.097 83.2975 353.15C82.8364 350.137 83.8261 344.394 83.964 340.761C82.5869 344.73 80.2757 352.435 79.2626 355.916C78.8456 357.357 77.4536 357.122 77.8236 355.718C79.3624 349.876 82.6779 339.543 84.1109 335.828C84.4488 334.953 85.3326 334.982 86.0668 334.621Z" fill="white"/>
<path d="M77.6745 333.904C77.2281 333.795 75.9331 334.494 75.1372 334.632C74.8847 334.676 74.6439 334.944 74.5587 335.134C73.2842 338.062 72.1419 340.853 71.1523 343.396C69.8866 343.612 68.4066 343.896 66.7503 344.268C67.9367 341.225 69.1348 338.224 70.3036 335.337C70.8791 333.916 69.3639 333.781 68.7766 335.22C68.013 337.09 66.5829 340.595 65.0001 344.68C63.8372 344.965 62.6038 345.291 61.3146 345.664C60.3778 345.934 60.3397 346.184 60.7449 346.745C60.9681 347.058 61.4292 347.027 61.6406 347.25C62.1868 347.827 62.5186 348.518 63.4965 348.623C62.6243 350.956 61.7521 353.362 60.9622 355.679C60.4659 357.133 61.8784 357.43 62.4217 355.891C63.2968 353.411 64.2189 350.9 65.1674 348.397C65.9574 348.214 67.8691 347.802 69.634 347.419C68.2332 351.258 67.3111 354.174 66.9617 355.593C66.8971 355.866 67.0057 356.018 67.0644 356.129C67.5372 356.817 67.9865 356.845 68.5944 357.696C68.7589 357.928 69.311 358.053 69.4989 357.482C70.7969 353.561 72.133 349.883 73.3781 346.585C73.8949 346.472 74.8258 346.247 75.3955 345.397C76.4086 343.888 76.6994 344.194 76.9432 343.736C77.2486 343.16 77.0459 342.619 75.9653 342.753C75.9653 342.753 75.5571 342.782 74.8024 342.868C76.0005 339.783 77.0489 337.166 77.8036 335.172C78.0621 334.497 78.0944 334.004 77.6745 333.904Z" fill="white"/>
<path d="M75.9057 353.912C76.1847 354.617 77.0568 354.404 76.725 353.553C76.3872 352.686 75.5474 350.076 75.3271 349.235C75.0276 348.102 76.3256 348.412 75.6678 349.153C75.104 349.79 74.728 350.045 73.6856 351.256C72.6783 352.425 72.9514 353.942 74.0292 354.277C75.2449 354.655 76.3168 353.316 76.9804 352.333C77.6236 351.381 77.001 350.823 76.352 351.385C75.935 351.747 75.4534 352.303 74.9659 352.602C74.5695 352.843 74.2582 352.584 74.7868 351.857C75.4005 351.014 76.0877 350.308 76.5986 349.512C77.6412 347.89 75.5796 346.954 74.6928 348.008C74.217 348.57 74.3375 349.122 74.4667 349.595C74.6752 350.353 75.4505 352.774 75.9057 353.912Z" fill="white"/>
</g>
<g filter="url(#filter1_b)">
<circle cx="410.5" cy="141.893" r="40" fill="url(#paint2_linear)" fill-opacity="0.06"/>
<circle cx="410.5" cy="141.893" r="39.5" stroke="url(#paint3_linear)" stroke-opacity="0.5"/>
</g>
<g clip-path="url(#clip1)">
<path d="M418.067 130.621C419.388 129.972 420.043 130.057 420.058 130.715C420.075 131.569 419.949 132.706 419.858 133.528C419.368 137.997 418.548 141.649 418.487 146.238C420.645 140.65 422.454 136.767 424.786 131.983C425.526 130.459 425.998 130.744 426.606 130.474C428.973 129.42 429.061 130.066 428.753 131.355C427.605 136.13 424.665 151.164 424.216 153.479C424.087 154.149 423.359 153.865 423.171 153.603C422.328 152.437 421.376 152.419 421.482 151.644C422.011 147.784 423.913 138.1 424.41 135.819C421.881 141.002 419.259 147.482 417.911 151.157C417.626 151.937 417.106 151.88 416.783 151.309C416.328 150.507 415.444 150.097 415.297 149.15C414.836 146.137 415.826 140.394 415.964 136.761C414.587 140.73 412.276 148.435 411.263 151.916C410.846 153.357 409.454 153.122 409.824 151.718C411.362 145.876 414.678 135.543 416.111 131.828C416.449 130.953 417.333 130.982 418.067 130.621Z" fill="white"/>
<path d="M409.674 129.904C409.228 129.795 407.933 130.494 407.137 130.632C406.885 130.676 406.644 130.944 406.559 131.134C405.284 134.062 404.142 136.853 403.152 139.396C401.887 139.612 400.407 139.896 398.75 140.268C399.937 137.225 401.135 134.224 402.304 131.337C402.879 129.916 401.364 129.781 400.777 131.22C400.013 133.09 398.583 136.595 397 140.68C395.837 140.965 394.604 141.291 393.315 141.664C392.378 141.934 392.34 142.184 392.745 142.745C392.968 143.058 393.429 143.027 393.641 143.25C394.187 143.827 394.519 144.518 395.496 144.623C394.624 146.956 393.752 149.362 392.962 151.679C392.466 153.133 393.878 153.43 394.422 151.891C395.297 149.411 396.219 146.9 397.167 144.397C397.957 144.214 399.869 143.802 401.634 143.419C400.233 147.258 399.311 150.174 398.962 151.593C398.897 151.866 399.006 152.018 399.064 152.129C399.537 152.817 399.987 152.845 400.594 153.696C400.759 153.928 401.311 154.053 401.499 153.482C402.797 149.561 404.133 145.883 405.378 142.585C405.895 142.472 406.826 142.247 407.396 141.397C408.409 139.888 408.699 140.194 408.943 139.736C409.249 139.16 409.046 138.619 407.965 138.753C407.965 138.753 407.557 138.782 406.802 138.868C408 135.783 409.049 133.166 409.804 131.172C410.062 130.497 410.094 130.004 409.674 129.904Z" fill="white"/>
<path d="M407.907 149.912C408.186 150.617 409.058 150.404 408.726 149.553C408.388 148.686 407.548 146.076 407.328 145.235C407.029 144.102 408.327 144.412 407.669 145.153C407.105 145.79 406.729 146.045 405.687 147.256C404.679 148.425 404.952 149.942 406.03 150.277C407.246 150.655 408.318 149.316 408.981 148.333C409.625 147.381 409.002 146.823 408.353 147.385C407.936 147.747 407.454 148.303 406.967 148.602C406.57 148.843 406.259 148.584 406.788 147.857C407.402 147.014 408.089 146.308 408.6 145.512C409.642 143.89 407.581 142.954 406.694 144.008C406.218 144.57 406.338 145.122 406.468 145.595C406.676 146.353 407.451 148.774 407.907 149.912Z" fill="white"/>
</g>
<g filter="url(#filter2_b)">
<circle cx="622.5" cy="483.893" r="40" fill="url(#paint4_linear)" fill-opacity="0.06"/>
<circle cx="622.5" cy="483.893" r="39.5" stroke="url(#paint5_linear)" stroke-opacity="0.5"/>
</g>
<g clip-path="url(#clip2)">
<path d="M630.067 472.621C631.388 471.972 632.043 472.057 632.058 472.715C632.075 473.569 631.949 474.706 631.858 475.528C631.368 479.997 630.548 483.649 630.487 488.238C632.645 482.65 634.454 478.767 636.786 473.983C637.526 472.459 637.998 472.744 638.606 472.474C640.973 471.42 641.061 472.066 640.753 473.355C639.605 478.13 636.665 493.164 636.216 495.479C636.087 496.149 635.359 495.865 635.171 495.603C634.328 494.437 633.376 494.419 633.482 493.644C634.011 489.784 635.913 480.1 636.41 477.819C633.881 483.002 631.259 489.482 629.911 493.157C629.626 493.937 629.106 493.88 628.783 493.309C628.328 492.507 627.444 492.097 627.297 491.15C626.836 488.137 627.826 482.394 627.964 478.761C626.587 482.73 624.276 490.435 623.263 493.916C622.846 495.357 621.454 495.122 621.824 493.718C623.362 487.876 626.678 477.543 628.111 473.828C628.449 472.953 629.333 472.982 630.067 472.621Z" fill="white"/>
<path d="M621.674 471.904C621.228 471.795 619.933 472.494 619.137 472.632C618.885 472.676 618.644 472.944 618.559 473.134C617.284 476.062 616.142 478.853 615.152 481.396C613.887 481.612 612.407 481.896 610.75 482.268C611.937 479.225 613.135 476.224 614.304 473.337C614.879 471.916 613.364 471.781 612.777 473.22C612.013 475.09 610.583 478.595 609 482.68C607.837 482.965 606.604 483.291 605.315 483.664C604.378 483.934 604.34 484.184 604.745 484.745C604.968 485.058 605.429 485.027 605.641 485.25C606.187 485.827 606.519 486.518 607.496 486.623C606.624 488.956 605.752 491.362 604.962 493.679C604.466 495.133 605.878 495.43 606.422 493.891C607.297 491.411 608.219 488.9 609.167 486.397C609.957 486.214 611.869 485.802 613.634 485.419C612.233 489.258 611.311 492.174 610.962 493.593C610.897 493.866 611.006 494.018 611.064 494.129C611.537 494.817 611.987 494.845 612.594 495.696C612.759 495.928 613.311 496.053 613.499 495.482C614.797 491.561 616.133 487.883 617.378 484.585C617.895 484.472 618.826 484.247 619.396 483.397C620.409 481.888 620.699 482.194 620.943 481.736C621.249 481.16 621.046 480.619 619.965 480.753C619.965 480.753 619.557 480.782 618.802 480.868C620 477.783 621.049 475.166 621.804 473.172C622.062 472.497 622.094 472.004 621.674 471.904Z" fill="white"/>
<path d="M619.907 491.912C620.186 492.617 621.058 492.404 620.726 491.553C620.388 490.686 619.548 488.076 619.328 487.235C619.029 486.102 620.327 486.412 619.669 487.153C619.105 487.79 618.729 488.045 617.687 489.256C616.679 490.425 616.952 491.942 618.03 492.277C619.246 492.655 620.318 491.316 620.981 490.333C621.625 489.381 621.002 488.823 620.353 489.385C619.936 489.747 619.454 490.303 618.967 490.602C618.57 490.843 618.259 490.584 618.788 489.857C619.402 489.014 620.089 488.308 620.6 487.512C621.642 485.89 619.581 484.954 618.694 486.008C618.218 486.57 618.338 487.122 618.468 487.595C618.676 488.353 619.451 490.774 619.907 491.912Z" fill="white"/>
</g>
<g filter="url(#filter3_b)">
<circle cx="409.5" cy="396.893" r="25" fill="url(#paint6_linear)" fill-opacity="0.06"/>
<circle cx="409.5" cy="396.893" r="24.6875" stroke="url(#paint7_linear)" stroke-opacity="0.5" stroke-width="0.625"/>
</g>
<g clip-path="url(#clip3)">
<path d="M414.23 389.847C415.056 389.442 415.465 389.495 415.474 389.906C415.485 390.44 415.406 391.151 415.349 391.664C415.043 394.458 414.531 396.74 414.492 399.608C415.841 396.116 416.972 393.689 418.429 390.699C418.892 389.746 419.187 389.925 419.567 389.756C421.046 389.097 421.101 389.501 420.909 390.306C420.191 393.291 418.354 402.687 418.073 404.134C417.992 404.552 417.537 404.375 417.42 404.211C416.893 403.483 416.298 403.471 416.364 402.987C416.695 400.574 417.884 394.522 418.194 393.096C416.614 396.336 414.975 400.386 414.132 402.682C413.954 403.17 413.629 403.134 413.428 402.777C413.143 402.276 412.591 402.02 412.499 401.428C412.211 399.545 412.829 395.956 412.916 393.685C412.055 396.166 410.61 400.981 409.977 403.157C409.716 404.057 408.847 403.911 409.078 403.033C410.039 399.382 412.112 392.924 413.007 390.602C413.218 390.055 413.771 390.073 414.23 389.847Z" fill="white"/>
<path d="M408.984 389.399C408.705 389.332 407.896 389.768 407.398 389.855C407.24 389.882 407.09 390.049 407.037 390.169C406.24 391.998 405.526 393.743 404.908 395.332C404.117 395.467 403.192 395.645 402.156 395.877C402.898 393.975 403.647 392.099 404.377 390.295C404.737 389.407 403.79 389.322 403.423 390.222C402.946 391.391 402.052 393.581 401.063 396.135C400.336 396.313 399.565 396.516 398.759 396.749C398.174 396.918 398.15 397.074 398.403 397.425C398.543 397.621 398.831 397.601 398.963 397.74C399.304 398.102 399.512 398.533 400.123 398.599C399.578 400.057 399.033 401.561 398.539 403.009C398.229 403.917 399.112 404.103 399.451 403.142C399.998 401.591 400.574 400.022 401.167 398.458C401.661 398.343 402.856 398.086 403.959 397.846C403.083 400.246 402.507 402.068 402.289 402.955C402.248 403.126 402.316 403.221 402.353 403.29C402.648 403.72 402.929 403.738 403.309 404.27C403.412 404.415 403.757 404.493 403.874 404.136C404.686 401.685 405.521 399.386 406.299 397.325C406.622 397.254 407.204 397.114 407.56 396.583C408.193 395.64 408.375 395.831 408.527 395.544C408.718 395.184 408.591 394.846 407.916 394.93C407.916 394.93 407.661 394.948 407.189 395.002C407.938 393.074 408.593 391.438 409.065 390.192C409.226 389.77 409.247 389.462 408.984 389.399Z" fill="white"/>
<path d="M407.879 401.904C408.053 402.345 408.599 402.211 408.391 401.68C408.18 401.138 407.655 399.507 407.517 398.981C407.33 398.273 408.141 398.467 407.73 398.93C407.378 399.328 407.143 399.487 406.491 400.244C405.862 400.975 406.033 401.923 406.706 402.132C407.466 402.369 408.136 401.531 408.551 400.917C408.953 400.322 408.564 399.973 408.158 400.325C407.897 400.551 407.596 400.898 407.292 401.086C407.044 401.236 406.849 401.074 407.18 400.62C407.563 400.093 407.993 399.652 408.312 399.154C408.964 398.14 407.675 397.556 407.121 398.214C406.824 398.565 406.899 398.91 406.98 399.206C407.11 399.68 407.595 401.193 407.879 401.904Z" fill="white"/>
</g>
<g filter="url(#filter4_b)">
<circle cx="210.5" cy="497.893" r="40" fill="url(#paint8_linear)" fill-opacity="0.06"/>
<circle cx="210.5" cy="497.893" r="39.5" stroke="url(#paint9_linear)" stroke-opacity="0.5"/>
</g>
<path fill-rule="evenodd" clip-rule="evenodd" d="M213.007 497.138C213.007 497.138 212.378 496.745 212.024 496.627C212.024 496.627 210.845 496.077 210.609 495.841C210.609 495.841 210.138 495.409 210.413 494.898C210.413 494.898 210.531 494.584 211.002 494.584C211.002 494.584 211.631 494.623 211.631 495.134V495.88H213.871V494.819C213.871 494.819 214.028 493.051 211.199 492.972C211.199 492.972 208.959 492.815 208.33 494.033C208.33 494.033 208.094 494.308 208.094 495.212V495.88C208.094 495.88 208.055 496.667 208.448 497.138C208.448 497.138 208.683 497.453 209.234 497.846C209.234 497.846 210.373 498.435 211.041 498.789C211.041 498.789 211.71 499.182 211.631 499.811C211.631 499.811 211.592 500.439 210.924 500.4C210.924 500.4 210.334 500.361 210.334 499.771V499.025H207.937V500.086C207.937 500.086 207.858 502.129 210.963 502.129C210.963 502.129 213.91 502.208 214.068 500.046V499.182C214.028 499.142 214.146 497.846 213.007 497.138Z" fill="white"/>
<path fill-rule="evenodd" clip-rule="evenodd" d="M201.452 493.169L200.705 497.925H200.548L199.801 493.209H196.028L195.871 501.776H198.072L198.111 495.331H198.308L199.487 501.776H201.806L202.985 495.331H203.142L203.181 501.776H205.421L205.185 493.169H201.452Z" fill="white"/>
<path fill-rule="evenodd" clip-rule="evenodd" d="M188.207 493.208L186.714 501.775H189.111L189.976 495.134H190.172L191.076 501.775H193.474L191.98 493.208H188.207Z" fill="white"/>
<path fill-rule="evenodd" clip-rule="evenodd" d="M238.552 497.02V498.278H239.181V499.614C239.181 500.282 238.631 500.282 238.631 500.282C237.924 500.282 237.963 499.653 237.963 499.653V495.016C237.963 494.544 238.592 494.505 238.592 494.505C239.181 494.505 239.181 495.094 239.181 495.094V495.802H241.421C241.5 494.426 241.225 494.073 241.225 494.073C240.675 492.815 238.552 492.894 238.552 492.894C235.29 492.894 235.644 495.409 235.644 495.409V499.928C235.723 502.287 238.906 502.051 238.985 502.051C240.399 501.894 240.832 501.422 240.832 501.422C241.225 501.107 241.343 500.714 241.343 500.714C241.461 500.479 241.5 499.732 241.5 499.732V497.059H238.552V497.02Z" fill="white"/>
<path fill-rule="evenodd" clip-rule="evenodd" d="M231.046 498.436H230.967L228.648 493.169H225.937V501.776H228.137L228.019 496.549H228.137L230.495 501.776H233.168V493.169H230.888L231.046 498.436Z" fill="white"/>
<path fill-rule="evenodd" clip-rule="evenodd" d="M220.474 499.654C220.474 499.654 220.513 500.362 219.845 500.362C219.845 500.362 219.137 500.401 219.137 499.654V493.169H216.701V499.576C216.701 499.576 216.465 502.012 219.884 502.012C219.884 502.012 222.871 502.052 222.871 499.693V493.209H220.474V499.654Z" fill="white"/>
<path fill-rule="evenodd" clip-rule="evenodd" d="M183.531 497.139C183.531 497.139 182.902 496.746 182.548 496.628C182.548 496.628 181.369 496.078 181.133 495.842C181.133 495.842 180.662 495.41 180.937 494.899C180.937 494.899 181.055 494.585 181.526 494.585C181.526 494.585 182.155 494.624 182.155 495.135V495.882H184.395V494.821C184.395 494.821 184.553 493.052 181.723 492.973C181.723 492.973 181.526 492.973 181.212 492.973C181.212 492.973 179.483 493.052 178.893 493.995C178.893 493.995 178.657 494.27 178.657 495.174V495.842C178.657 495.842 178.618 496.628 179.011 497.1C179.011 497.1 179.247 497.414 179.797 497.807C179.797 497.807 180.898 498.397 181.605 498.751C181.605 498.751 182.273 499.144 182.194 499.772C182.194 499.772 182.155 500.401 181.487 500.362C181.487 500.362 180.898 500.323 180.898 499.733V498.986H178.5V500.048C178.5 500.048 178.422 502.091 181.526 502.091C181.526 502.091 184.474 502.17 184.631 500.008V499.144C184.592 499.144 184.67 497.847 183.531 497.139Z" fill="white"/>
<g filter="url(#filter5_b)">
<circle cx="619.5" cy="207.893" r="40" fill="url(#paint10_linear)" fill-opacity="0.06"/>
<circle cx="619.5" cy="207.893" r="39.5" stroke="url(#paint11_linear)" stroke-opacity="0.5"/>
</g>
<path fill-rule="evenodd" clip-rule="evenodd" d="M622.007 207.138C622.007 207.138 621.378 206.745 621.024 206.627C621.024 206.627 619.845 206.077 619.609 205.841C619.609 205.841 619.138 205.409 619.413 204.898C619.413 204.898 619.531 204.584 620.002 204.584C620.002 204.584 620.631 204.623 620.631 205.134V205.88H622.871V204.819C622.871 204.819 623.028 203.051 620.199 202.972C620.199 202.972 617.959 202.815 617.33 204.033C617.33 204.033 617.094 204.308 617.094 205.212V205.88C617.094 205.88 617.055 206.667 617.448 207.138C617.448 207.138 617.683 207.453 618.234 207.846C618.234 207.846 619.373 208.435 620.041 208.789C620.041 208.789 620.71 209.182 620.631 209.811C620.631 209.811 620.592 210.439 619.924 210.4C619.924 210.4 619.334 210.361 619.334 209.771V209.025H616.937V210.086C616.937 210.086 616.858 212.129 619.963 212.129C619.963 212.129 622.91 212.208 623.068 210.046V209.182C623.028 209.142 623.146 207.846 622.007 207.138Z" fill="white"/>
<path fill-rule="evenodd" clip-rule="evenodd" d="M610.452 203.169L609.705 207.925H609.548L608.801 203.209H605.028L604.871 211.776H607.072L607.111 205.331H607.308L608.487 211.776H610.806L611.985 205.331H612.142L612.181 211.776H614.421L614.185 203.169H610.452Z" fill="white"/>
<path fill-rule="evenodd" clip-rule="evenodd" d="M597.207 203.208L595.714 211.775H598.111L598.976 205.134H599.172L600.076 211.775H602.474L600.98 203.208H597.207Z" fill="white"/>
<path fill-rule="evenodd" clip-rule="evenodd" d="M647.552 207.02V208.278H648.181V209.614C648.181 210.282 647.631 210.282 647.631 210.282C646.924 210.282 646.963 209.653 646.963 209.653V205.016C646.963 204.544 647.592 204.505 647.592 204.505C648.181 204.505 648.181 205.094 648.181 205.094V205.802H650.421C650.5 204.426 650.225 204.073 650.225 204.073C649.675 202.815 647.552 202.894 647.552 202.894C644.29 202.894 644.644 205.409 644.644 205.409V209.928C644.723 212.287 647.906 212.051 647.985 212.051C649.399 211.894 649.832 211.422 649.832 211.422C650.225 211.107 650.343 210.714 650.343 210.714C650.461 210.479 650.5 209.732 650.5 209.732V207.059H647.552V207.02Z" fill="white"/>
<path fill-rule="evenodd" clip-rule="evenodd" d="M640.046 208.436H639.967L637.648 203.169H634.937V211.776H637.137L637.019 206.549H637.137L639.495 211.776H642.168V203.169H639.888L640.046 208.436Z" fill="white"/>
<path fill-rule="evenodd" clip-rule="evenodd" d="M629.474 209.654C629.474 209.654 629.513 210.362 628.845 210.362C628.845 210.362 628.137 210.401 628.137 209.654V203.169H625.701V209.576C625.701 209.576 625.465 212.012 628.884 212.012C628.884 212.012 631.871 212.052 631.871 209.693V203.209H629.474V209.654Z" fill="white"/>
<path fill-rule="evenodd" clip-rule="evenodd" d="M592.531 207.139C592.531 207.139 591.902 206.746 591.548 206.628C591.548 206.628 590.369 206.078 590.133 205.842C590.133 205.842 589.662 205.41 589.937 204.899C589.937 204.899 590.055 204.585 590.526 204.585C590.526 204.585 591.155 204.624 591.155 205.135V205.882H593.395V204.821C593.395 204.821 593.553 203.052 590.723 202.973C590.723 202.973 590.526 202.973 590.212 202.973C590.212 202.973 588.483 203.052 587.893 203.995C587.893 203.995 587.657 204.27 587.657 205.174V205.842C587.657 205.842 587.618 206.628 588.011 207.1C588.011 207.1 588.247 207.414 588.797 207.807C588.797 207.807 589.898 208.397 590.605 208.751C590.605 208.751 591.273 209.144 591.194 209.772C591.194 209.772 591.155 210.401 590.487 210.362C590.487 210.362 589.898 210.323 589.898 209.733V208.986H587.5V210.048C587.5 210.048 587.422 212.091 590.526 212.091C590.526 212.091 593.474 212.17 593.631 210.008V209.144C593.592 209.144 593.67 207.847 592.531 207.139Z" fill="white"/>
<g filter="url(#filter6_b)">
<circle cx="409.5" cy="592.893" r="40" fill="url(#paint12_linear)" fill-opacity="0.06"/>
<circle cx="409.5" cy="592.893" r="39.5" stroke="url(#paint13_linear)" stroke-opacity="0.5"/>
</g>
<path fill-rule="evenodd" clip-rule="evenodd" d="M408.92 585.32V586.357C408.945 586.998 408.797 587.443 408.155 587.813C407.538 588.183 405.514 588.158 404.206 586.233C403.466 585.147 402.997 583.79 402.997 582.383C402.997 578.631 406.033 575.571 409.809 575.571C413.561 575.571 416.621 578.631 416.621 582.383C416.621 583.79 416.201 585.147 415.486 586.233C414.054 588.06 412.203 588.282 411.389 587.788C410.846 587.467 410.673 586.949 410.673 586.332V585.295H415.115C413.955 583.987 412.721 582.161 411.512 579.816C410.821 578.459 410.204 577.052 409.76 575.867C409.389 577.076 408.797 578.508 408.106 579.841C406.921 582.185 405.663 583.963 404.503 585.295H408.92V585.32ZM401.294 582.408C401.294 577.693 405.095 573.893 409.809 573.893C414.498 573.893 418.324 577.718 418.324 582.408C418.324 587.122 414.523 590.503 409.834 590.503C405.095 590.503 401.294 587.122 401.294 582.408Z" fill="white"/>
<path d="M406.366 599.729C406.366 599.729 407.403 599.754 407.403 600.741C407.403 601.852 405.946 601.753 405.946 601.753H399.85C399.85 603.037 400.739 603.925 401.948 603.925C402.22 603.925 404.712 603.925 407.032 603.925C408.587 603.925 409.92 602.271 409.92 600.667C409.92 598.915 408.365 597.483 406.563 597.483C406.489 597.483 399.628 597.483 399.628 597.483C398.024 597.385 396.913 598.693 396.913 600.223V605.875C396.913 606.739 397.431 607.331 398.147 607.331H398.197C398.888 607.331 399.431 606.739 399.431 605.875V599.705H406.366" fill="white"/>
<path fill-rule="evenodd" clip-rule="evenodd" d="M415.572 602.741L417.67 599.927C417.744 599.828 417.892 599.754 418.015 599.754C418.139 599.754 418.287 599.828 418.361 599.927L420.385 602.741H415.572ZM416.041 598.496C416.806 597.558 417.719 597.459 417.991 597.459C418.287 597.459 419.299 597.607 420.015 598.52L425.173 605.406C425.667 606.073 425.445 606.714 424.902 607.085C424.359 607.455 423.717 607.381 423.248 606.764L421.989 605.085C421.421 605.085 414.535 605.085 413.992 605.085L412.882 606.739C412.314 607.504 411.623 607.406 411.129 607.109L411.08 607.06C410.537 606.69 410.636 605.925 410.957 605.382L416.041 598.496Z" fill="white"/>
<path fill-rule="evenodd" clip-rule="evenodd" d="M438.797 603.505C439.809 603.036 440.5 602.099 440.5 600.667C440.5 598.915 439.167 597.483 437.34 597.483C437.291 597.483 429.788 597.483 429.788 597.483C428.48 597.483 427.542 598.52 427.542 599.828V605.949C427.542 606.813 428.011 607.306 428.702 607.306C429.393 607.306 430.035 606.788 430.035 605.924V599.655H436.97C436.97 599.655 437.982 599.704 438.007 600.692C438.007 601.728 436.748 601.728 436.748 601.728H430.504C430.504 603.012 431.54 603.925 432.824 603.925C432.824 603.925 435.168 603.925 435.909 603.925L437.883 606.615C438.352 607.331 439.192 607.528 439.809 607.183C440.426 606.862 440.475 606.097 440.105 605.529L438.797 603.629V603.505Z" fill="white"/>
<path d="M383.881 601.186C383.881 601.186 382.968 601.26 382.968 600.471C382.968 599.656 383.98 599.779 383.98 599.779H392.717C392.717 598.644 391.656 597.533 390.372 597.533C390.126 597.533 383.166 597.533 383.166 597.533C382.154 597.533 380.5 598.545 380.5 600.495C380.5 602.025 381.561 603.432 383.511 603.432C384.029 603.432 389.533 603.432 389.533 603.432C389.533 603.432 390.447 603.383 390.447 604.173C390.447 605.012 389.583 604.938 389.583 604.938H380.549C380.549 606.468 381.833 607.159 382.845 607.159C383.116 607.159 388.225 607.159 390.372 607.159C391.952 607.159 393.161 606.048 393.161 604.148C393.161 602.519 391.804 601.211 389.805 601.211C388.793 601.186 383.881 601.186 383.881 601.186Z" fill="white"/>
<g filter="url(#filter7_b)">
<circle cx="555.5" cy="352.893" r="40" fill="url(#paint14_linear)" fill-opacity="0.06"/>
<circle cx="555.5" cy="352.893" r="39.5" stroke="url(#paint15_linear)" stroke-opacity="0.5"/>
</g>
<path fill-rule="evenodd" clip-rule="evenodd" d="M554.92 345.32V346.357C554.945 346.998 554.797 347.443 554.155 347.813C553.538 348.183 551.514 348.158 550.206 346.233C549.466 345.147 548.997 343.79 548.997 342.383C548.997 338.631 552.033 335.571 555.809 335.571C559.561 335.571 562.621 338.631 562.621 342.383C562.621 343.79 562.201 345.147 561.486 346.233C560.054 348.06 558.203 348.282 557.389 347.788C556.846 347.467 556.673 346.949 556.673 346.332V345.295H561.115C559.955 343.987 558.721 342.161 557.512 339.816C556.821 338.459 556.204 337.052 555.76 335.867C555.389 337.076 554.797 338.508 554.106 339.841C552.921 342.185 551.663 343.963 550.503 345.295H554.92V345.32ZM547.294 342.408C547.294 337.693 551.095 333.893 555.809 333.893C560.498 333.893 564.324 337.718 564.324 342.408C564.324 347.122 560.523 350.503 555.834 350.503C551.095 350.503 547.294 347.122 547.294 342.408Z" fill="white"/>
<path d="M552.366 359.729C552.366 359.729 553.403 359.754 553.403 360.741C553.403 361.852 551.946 361.753 551.946 361.753H545.85C545.85 363.037 546.739 363.925 547.948 363.925C548.22 363.925 550.712 363.925 553.032 363.925C554.587 363.925 555.92 362.271 555.92 360.667C555.92 358.915 554.365 357.483 552.563 357.483C552.489 357.483 545.628 357.483 545.628 357.483C544.024 357.385 542.913 358.693 542.913 360.223V365.875C542.913 366.739 543.431 367.331 544.147 367.331H544.197C544.888 367.331 545.431 366.739 545.431 365.875V359.705H552.366" fill="white"/>
<path fill-rule="evenodd" clip-rule="evenodd" d="M561.572 362.741L563.67 359.927C563.744 359.828 563.892 359.754 564.015 359.754C564.139 359.754 564.287 359.828 564.361 359.927L566.385 362.741H561.572ZM562.041 358.496C562.806 357.558 563.719 357.459 563.991 357.459C564.287 357.459 565.299 357.607 566.015 358.52L571.173 365.406C571.667 366.073 571.445 366.714 570.902 367.085C570.359 367.455 569.717 367.381 569.248 366.764L567.989 365.085C567.421 365.085 560.535 365.085 559.992 365.085L558.882 366.739C558.314 367.504 557.623 367.406 557.129 367.109L557.08 367.06C556.537 366.69 556.636 365.925 556.957 365.382L562.041 358.496Z" fill="white"/>
<path fill-rule="evenodd" clip-rule="evenodd" d="M584.797 363.505C585.809 363.036 586.5 362.099 586.5 360.667C586.5 358.915 585.167 357.483 583.34 357.483C583.291 357.483 575.788 357.483 575.788 357.483C574.48 357.483 573.542 358.52 573.542 359.828V365.949C573.542 366.813 574.011 367.306 574.702 367.306C575.393 367.306 576.035 366.788 576.035 365.924V359.655H582.97C582.97 359.655 583.982 359.704 584.007 360.692C584.007 361.728 582.748 361.728 582.748 361.728H576.504C576.504 363.012 577.54 363.925 578.824 363.925C578.824 363.925 581.168 363.925 581.909 363.925L583.883 366.615C584.352 367.331 585.192 367.528 585.809 367.183C586.426 366.862 586.475 366.097 586.105 365.529L584.797 363.629V363.505Z" fill="white"/>
<path d="M529.881 361.186C529.881 361.186 528.968 361.26 528.968 360.471C528.968 359.656 529.98 359.779 529.98 359.779H538.717C538.717 358.644 537.656 357.533 536.372 357.533C536.126 357.533 529.166 357.533 529.166 357.533C528.154 357.533 526.5 358.545 526.5 360.495C526.5 362.025 527.561 363.432 529.511 363.432C530.029 363.432 535.533 363.432 535.533 363.432C535.533 363.432 536.447 363.383 536.447 364.173C536.447 365.012 535.583 364.938 535.583 364.938H526.549C526.549 366.468 527.833 367.159 528.845 367.159C529.116 367.159 534.225 367.159 536.372 367.159C537.952 367.159 539.161 366.048 539.161 364.148C539.161 362.519 537.804 361.211 535.805 361.211C534.793 361.186 529.881 361.186 529.881 361.186Z" fill="white"/>
<defs>
<filter id="filter0_b" x="33.5" y="300.893" width="90" height="90" filterUnits="userSpaceOnUse" color-interpolation-filters="sRGB">
<feFlood flood-opacity="0" result="BackgroundImageFix"/>
<feGaussianBlur in="BackgroundImage" stdDeviation="2.5"/>
<feComposite in2="SourceAlpha" operator="in" result="effect1_backgroundBlur"/>
<feBlend mode="normal" in="SourceGraphic" in2="effect1_backgroundBlur" result="shape"/>
</filter>
<filter id="filter1_b" x="365.5" y="96.8926" width="90" height="90" filterUnits="userSpaceOnUse" color-interpolation-filters="sRGB">
<feFlood flood-opacity="0" result="BackgroundImageFix"/>
<feGaussianBlur in="BackgroundImage" stdDeviation="2.5"/>
<feComposite in2="SourceAlpha" operator="in" result="effect1_backgroundBlur"/>
<feBlend mode="normal" in="SourceGraphic" in2="effect1_backgroundBlur" result="shape"/>
</filter>
<filter id="filter2_b" x="577.5" y="438.893" width="90" height="90" filterUnits="userSpaceOnUse" color-interpolation-filters="sRGB">
<feFlood flood-opacity="0" result="BackgroundImageFix"/>
<feGaussianBlur in="BackgroundImage" stdDeviation="2.5"/>
<feComposite in2="SourceAlpha" operator="in" result="effect1_backgroundBlur"/>
<feBlend mode="normal" in="SourceGraphic" in2="effect1_backgroundBlur" result="shape"/>
</filter>
<filter id="filter3_b" x="381.375" y="368.768" width="56.25" height="56.25" filterUnits="userSpaceOnUse" color-interpolation-filters="sRGB">
<feFlood flood-opacity="0" result="BackgroundImageFix"/>
<feGaussianBlur in="BackgroundImage" stdDeviation="1.5625"/>
<feComposite in2="SourceAlpha" operator="in" result="effect1_backgroundBlur"/>
<feBlend mode="normal" in="SourceGraphic" in2="effect1_backgroundBlur" result="shape"/>
</filter>
<filter id="filter4_b" x="165.5" y="452.893" width="90" height="90" filterUnits="userSpaceOnUse" color-interpolation-filters="sRGB">
<feFlood flood-opacity="0" result="BackgroundImageFix"/>
<feGaussianBlur in="BackgroundImage" stdDeviation="2.5"/>
<feComposite in2="SourceAlpha" operator="in" result="effect1_backgroundBlur"/>
<feBlend mode="normal" in="SourceGraphic" in2="effect1_backgroundBlur" result="shape"/>
</filter>
<filter id="filter5_b" x="574.5" y="162.893" width="90" height="90" filterUnits="userSpaceOnUse" color-interpolation-filters="sRGB">
<feFlood flood-opacity="0" result="BackgroundImageFix"/>
<feGaussianBlur in="BackgroundImage" stdDeviation="2.5"/>
<feComposite in2="SourceAlpha" operator="in" result="effect1_backgroundBlur"/>
<feBlend mode="normal" in="SourceGraphic" in2="effect1_backgroundBlur" result="shape"/>
</filter>
<filter id="filter6_b" x="364.5" y="547.893" width="90" height="90" filterUnits="userSpaceOnUse" color-interpolation-filters="sRGB">
<feFlood flood-opacity="0" result="BackgroundImageFix"/>
<feGaussianBlur in="BackgroundImage" stdDeviation="2.5"/>
<feComposite in2="SourceAlpha" operator="in" result="effect1_backgroundBlur"/>
<feBlend mode="normal" in="SourceGraphic" in2="effect1_backgroundBlur" result="shape"/>
</filter>
<filter id="filter7_b" x="510.5" y="307.893" width="90" height="90" filterUnits="userSpaceOnUse" color-interpolation-filters="sRGB">
<feFlood flood-opacity="0" result="BackgroundImageFix"/>
<feGaussianBlur in="BackgroundImage" stdDeviation="2.5"/>
<feComposite in2="SourceAlpha" operator="in" result="effect1_backgroundBlur"/>
<feBlend mode="normal" in="SourceGraphic" in2="effect1_backgroundBlur" result="shape"/>
</filter>
<linearGradient id="paint0_linear" x1="78.5" y1="305.893" x2="78.5" y2="385.893" gradientUnits="userSpaceOnUse">
<stop stop-color="#FFFEFB" stop-opacity="0.13"/>
<stop offset="1" stop-color="#FFFEFB"/>
</linearGradient>
<linearGradient id="paint1_linear" x1="85.9074" y1="389.413" x2="67.3214" y2="308.482" gradientUnits="userSpaceOnUse">
<stop stop-color="white"/>
<stop offset="1" stop-color="white" stop-opacity="0.17"/>
</linearGradient>
<linearGradient id="paint2_linear" x1="410.5" y1="101.893" x2="410.5" y2="181.893" gradientUnits="userSpaceOnUse">
<stop stop-color="#FFFEFB" stop-opacity="0.13"/>
<stop offset="1" stop-color="#FFFEFB"/>
</linearGradient>
<linearGradient id="paint3_linear" x1="417.907" y1="185.413" x2="399.321" y2="104.482" gradientUnits="userSpaceOnUse">
<stop stop-color="white"/>
<stop offset="1" stop-color="white" stop-opacity="0.17"/>
</linearGradient>
<linearGradient id="paint4_linear" x1="622.5" y1="443.893" x2="622.5" y2="523.893" gradientUnits="userSpaceOnUse">
<stop stop-color="#FFFEFB" stop-opacity="0.13"/>
<stop offset="1" stop-color="#FFFEFB"/>
</linearGradient>
<linearGradient id="paint5_linear" x1="629.907" y1="527.413" x2="611.321" y2="446.482" gradientUnits="userSpaceOnUse">
<stop stop-color="white"/>
<stop offset="1" stop-color="white" stop-opacity="0.17"/>
</linearGradient>
<linearGradient id="paint6_linear" x1="409.5" y1="371.893" x2="409.5" y2="421.893" gradientUnits="userSpaceOnUse">
<stop stop-color="#FFFEFB" stop-opacity="0.13"/>
<stop offset="1" stop-color="#FFFEFB"/>
</linearGradient>
<linearGradient id="paint7_linear" x1="414.13" y1="424.093" x2="402.513" y2="373.511" gradientUnits="userSpaceOnUse">
<stop stop-color="white"/>
<stop offset="1" stop-color="white" stop-opacity="0.17"/>
</linearGradient>
<linearGradient id="paint8_linear" x1="210.5" y1="457.893" x2="210.5" y2="537.893" gradientUnits="userSpaceOnUse">
<stop stop-color="#FFFEFB" stop-opacity="0.13"/>
<stop offset="1" stop-color="#FFFEFB"/>
</linearGradient>
<linearGradient id="paint9_linear" x1="217.907" y1="541.413" x2="199.321" y2="460.482" gradientUnits="userSpaceOnUse">
<stop stop-color="white"/>
<stop offset="1" stop-color="white" stop-opacity="0.17"/>
</linearGradient>
<linearGradient id="paint10_linear" x1="619.5" y1="167.893" x2="619.5" y2="247.893" gradientUnits="userSpaceOnUse">
<stop stop-color="#FFFEFB" stop-opacity="0.13"/>
<stop offset="1" stop-color="#FFFEFB"/>
</linearGradient>
<linearGradient id="paint11_linear" x1="626.907" y1="251.413" x2="608.321" y2="170.482" gradientUnits="userSpaceOnUse">
<stop stop-color="white"/>
<stop offset="1" stop-color="white" stop-opacity="0.17"/>
</linearGradient>
<linearGradient id="paint12_linear" x1="409.5" y1="552.893" x2="409.5" y2="632.893" gradientUnits="userSpaceOnUse">
<stop stop-color="#FFFEFB" stop-opacity="0.13"/>
<stop offset="1" stop-color="#FFFEFB"/>
</linearGradient>
<linearGradient id="paint13_linear" x1="416.907" y1="636.413" x2="398.321" y2="555.482" gradientUnits="userSpaceOnUse">
<stop stop-color="white"/>
<stop offset="1" stop-color="white" stop-opacity="0.17"/>
</linearGradient>
<linearGradient id="paint14_linear" x1="555.5" y1="312.893" x2="555.5" y2="392.893" gradientUnits="userSpaceOnUse">
<stop stop-color="#FFFEFB" stop-opacity="0.13"/>
<stop offset="1" stop-color="#FFFEFB"/>
</linearGradient>
<linearGradient id="paint15_linear" x1="562.907" y1="396.413" x2="544.321" y2="315.482" gradientUnits="userSpaceOnUse">
<stop stop-color="white"/>
<stop offset="1" stop-color="white" stop-opacity="0.17"/>
</linearGradient>
<clipPath id="clip0">
<rect width="36.3811" height="24" fill="white" transform="translate(60.5 333.893)"/>
</clipPath>
<clipPath id="clip1">
<rect width="36.3811" height="24" fill="white" transform="translate(392.5 129.893)"/>
</clipPath>
<clipPath id="clip2">
<rect width="36.3811" height="24" fill="white" transform="translate(604.5 471.893)"/>
</clipPath>
<clipPath id="clip3">
<rect width="22.7382" height="15" fill="white" transform="translate(398.25 389.392)"/>
</clipPath>
</defs>
</svg>
