<svg width="80" height="80" viewBox="0 0 80 80" fill="none" xmlns="http://www.w3.org/2000/svg">
<path d="M27.6273 45V44.082C27.8633 43.878 28.0993 43.674 28.3353 43.47C28.5713 43.266 28.8073 43.064 29.0433 42.864C29.5953 42.388 30.0693 41.942 30.4653 41.526C30.8613 41.11 31.1633 40.71 31.3713 40.326C31.5833 39.938 31.6893 39.55 31.6893 39.162C31.6893 38.69 31.5593 38.336 31.2993 38.1C31.0433 37.86 30.6533 37.74 30.1293 37.74C29.9413 37.74 29.7453 37.76 29.5413 37.8C29.3413 37.84 29.1373 37.896 28.9293 37.968C28.7253 38.04 28.5213 38.128 28.3173 38.232C28.1133 38.336 27.9133 38.454 27.7173 38.586L27.5853 37.302C27.7693 37.206 27.9693 37.116 28.1853 37.032C28.4013 36.948 28.6293 36.874 28.8693 36.81C29.1093 36.746 29.3553 36.696 29.6073 36.66C29.8633 36.62 30.1173 36.6 30.3693 36.6C30.9453 36.6 31.4313 36.698 31.8273 36.894C32.2273 37.086 32.5313 37.362 32.7393 37.722C32.9473 38.078 33.0513 38.504 33.0513 39C33.0513 39.444 32.9533 39.886 32.7573 40.326C32.5613 40.762 32.2673 41.206 31.8753 41.658C31.4833 42.106 30.9973 42.572 30.4173 43.056L29.1333 44.118L28.9533 43.854H30.5613C30.9973 43.854 31.4353 43.854 31.8753 43.854C32.3153 43.854 32.7533 43.854 33.1893 43.854V45H27.6273Z" fill="white"/>
<path d="M37.335 45C37.519 44.552 37.697 44.12 37.869 43.704C38.041 43.288 38.241 42.808 38.469 42.264L39.699 39.288C39.935 38.72 40.143 38.22 40.323 37.788C40.503 37.352 40.687 36.904 40.875 36.444H42.129C42.001 36.752 41.877 37.052 41.757 37.344C41.637 37.636 41.511 37.94 41.379 38.256C41.247 38.572 41.101 38.924 40.941 39.312L39.723 42.264C39.495 42.808 39.295 43.29 39.123 43.71C38.951 44.13 38.773 44.56 38.589 45H37.335ZM49.8948 45C49.8948 44.612 49.8948 44.244 49.8948 43.896C49.8948 43.544 49.8948 43.136 49.8948 42.672L49.9368 42.456V39.894C49.9368 39.47 49.9368 39.05 49.9368 38.634C49.9368 38.214 49.9368 37.792 49.9368 37.368L50.9088 37.092C50.6888 37.408 50.4728 37.716 50.2608 38.016C50.0488 38.316 49.8368 38.618 49.6248 38.922L48.2268 40.896C48.0428 41.16 47.8588 41.424 47.6748 41.688C47.4948 41.948 47.3088 42.21 47.1168 42.474L47.0748 42.012H50.2308H50.4108C50.6308 42.012 50.8728 42.012 51.1368 42.012C51.4048 42.012 51.6688 42.012 51.9288 42.012C52.1888 42.012 52.4188 42.012 52.6188 42.012V43.158C52.4188 43.158 52.1888 43.158 51.9288 43.158C51.6688 43.158 51.4048 43.158 51.1368 43.158C50.8728 43.158 50.6308 43.158 50.4108 43.158H46.0128V42.264C46.1768 42.028 46.3588 41.768 46.5588 41.484C46.7628 41.2 46.9668 40.914 47.1708 40.626C47.3748 40.334 47.5648 40.066 47.7408 39.822L48.7788 38.352C48.9668 38.088 49.1548 37.824 49.3428 37.56C49.5308 37.292 49.7168 37.026 49.9008 36.762H51.2088C51.2088 37.258 51.2088 37.746 51.2088 38.226C51.2088 38.702 51.2088 39.178 51.2088 39.654V42.672C51.2088 43.136 51.2088 43.544 51.2088 43.896C51.2088 44.244 51.2088 44.612 51.2088 45H49.8948Z" fill="white" fill-opacity="0.3"/>
<path d="M40 1C45.1216 1 50.193 2.00876 54.9247 3.9687C59.6564 5.92863 63.9557 8.80135 67.5772 12.4228C71.1986 16.0443 74.0714 20.3436 76.0313 25.0753C77.9912 29.807 79 34.8784 79 40" stroke="url(#paint0_angular)" stroke-width="2" stroke-linecap="round"/>
<rect x="1" y="1" width="78" height="78" rx="39" stroke="white" stroke-opacity="0.1" stroke-width="2"/>
<defs>
<radialGradient id="paint0_angular" cx="0" cy="0" r="1" gradientUnits="userSpaceOnUse" gradientTransform="translate(40 40) rotate(61.1134) scale(38.9659)">
<stop offset="0.0371284" stop-color="#A082F4"/>
<stop offset="0.296875" stop-color="#A6E8F7"/>
<stop offset="0.567708" stop-color="#FFF5DD"/>
<stop offset="0.848958" stop-color="#FFF4D9"/>
<stop offset="1" stop-color="#CC9AC7"/>
</radialGradient>
</defs>
</svg>
