<svg width="30" height="30" viewBox="0 0 30 30" fill="none" xmlns="http://www.w3.org/2000/svg">
<path fill-rule="evenodd" clip-rule="evenodd" d="M22.9547 22.955C23.5405 22.3692 23.5405 21.4194 22.9547 20.8336L17.1211 15.0001L22.9547 9.16649C23.5405 8.5807 23.5405 7.63095 22.9547 7.04517C22.3689 6.45938 21.4192 6.45938 20.8334 7.04517L14.9998 12.8787L9.16615 7.04505C8.58036 6.45927 7.63061 6.45927 7.04483 7.04505C6.45904 7.63084 6.45904 8.58059 7.04483 9.16637L12.8785 15.0001L7.04481 20.8337C6.45902 21.4195 6.45902 22.3693 7.04481 22.9551C7.63059 23.5409 8.58034 23.5409 9.16613 22.9551L14.9998 17.1214L20.8334 22.955C21.4192 23.5407 22.3689 23.5407 22.9547 22.955Z" fill="white"/>
</svg>
