<svg width="50" height="50" viewBox="0 0 50 50" fill="none" xmlns="http://www.w3.org/2000/svg">
<rect width="50" height="50" rx="25" fill="#100F15"/>
<path fill-rule="evenodd" clip-rule="evenodd" d="M20.7096 12.4965C23.5316 11.8345 26.4684 11.8345 29.2904 12.4965C33.3656 13.4524 36.5476 16.6344 37.5035 20.7096C38.1655 23.5316 38.1655 26.4684 37.5035 29.2904C36.5476 33.3656 33.3656 36.5476 29.2904 37.5035C26.4684 38.1655 23.5316 38.1655 20.7096 37.5035C16.6344 36.5476 13.4524 33.3656 12.4965 29.2904C11.8345 26.4684 11.8345 23.5316 12.4965 20.7096C13.4524 16.6344 16.6344 13.4524 20.7096 12.4965ZM23.1422 21.9689C22.8182 21.6449 22.2929 21.6449 21.9689 21.9689C21.6449 22.2929 21.6449 22.8182 21.9689 23.1422L23.8267 25L21.9689 26.8577C21.6449 27.1817 21.6449 27.707 21.9689 28.031C22.2929 28.355 22.8182 28.355 23.1422 28.031L25 26.1733L26.8577 28.031C27.1817 28.355 27.707 28.355 28.031 28.031C28.355 27.707 28.355 27.1817 28.031 26.8577L26.1733 25L28.031 23.1422C28.355 22.8182 28.355 22.2929 28.031 21.9689C27.707 21.6449 27.1817 21.6449 26.8577 21.9689L25 23.8267L23.1422 21.9689Z" fill="white"/>
</svg>
