<svg width="23" height="24" viewBox="0 0 23 24" fill="none" xmlns="http://www.w3.org/2000/svg">
<path d="M3.60554 9.75195C1.7302 9.75195 0.314576 11.4533 0.655542 13.2974L2.24803 21.9103C2.4613 23.1103 3.49895 23.9883 4.71769 24H18.1425C19.3613 23.9883 20.3989 23.1103 20.6122 21.9103L22.2046 13.2974C22.5456 11.4533 21.13 9.75195 19.2546 9.75195H3.60554ZM7.31401 15.1979C7.31401 15.5477 7.03051 15.8312 6.68077 15.8312C6.33102 15.8312 6.04752 15.5477 6.04752 15.1979V13.2982C6.04752 12.9484 6.33102 12.6649 6.68077 12.6649C7.03051 12.6649 7.31401 12.9484 7.31401 13.2982V15.1979ZM16.8127 15.1979C16.8127 15.5477 16.5292 15.8312 16.1795 15.8312C15.8297 15.8312 15.5462 15.5477 15.5462 15.1979V13.2982C15.5462 12.9484 15.8297 12.6649 16.1795 12.6649C16.5292 12.6649 16.8127 12.9484 16.8127 13.2982V15.1979Z" fill="white"/>
<path d="M7.31435 5.38257C7.31435 3.10933 9.15719 1.2665 11.4304 1.2665C13.7037 1.2665 15.5465 3.10933 15.5465 5.38257V8.48548C15.5465 8.83521 15.83 9.11873 16.1798 9.11873C16.5295 9.11873 16.813 8.83521 16.813 8.48548V5.38257C16.8131 2.40984 14.4032 0 11.4304 0C8.4577 0 6.04785 2.40984 6.04785 5.38257V8.48548C6.04785 8.83521 6.33137 9.11873 6.6811 9.11873C7.03083 9.11873 7.31435 8.83521 7.31435 8.48548V5.38257Z" fill="white"/>
</svg>
