<svg width="18" height="18" viewBox="0 0 18 18" fill="none" xmlns="http://www.w3.org/2000/svg">
<path fill-rule="evenodd" clip-rule="evenodd" d="M16.9547 16.9547C17.5405 16.3689 17.5405 15.4192 16.9547 14.8334L11.1211 8.99981L16.9547 3.16624C17.5405 2.58046 17.5405 1.63071 16.9547 1.04492C16.3689 0.459136 15.4192 0.459135 14.8334 1.04492L8.99983 6.87849L3.16615 1.04481C2.58036 0.459022 1.63061 0.459022 1.04483 1.04481C0.459041 1.63059 0.459041 2.58034 1.04483 3.16613L6.8785 8.99981L1.04481 14.8335C0.459022 15.4193 0.459022 16.369 1.04481 16.9548C1.63059 17.5406 2.58034 17.5406 3.16613 16.9548L8.99982 11.1211L14.8334 16.9547C15.4192 17.5405 16.3689 17.5405 16.9547 16.9547Z" fill="#100F15"/>
</svg>
