<svg width="80" height="80" viewBox="0 0 80 80" fill="none" xmlns="http://www.w3.org/2000/svg">
<path d="M28.648 39.348L28.336 38.298C28.848 38.034 29.36 37.772 29.872 37.512C30.384 37.248 30.896 36.984 31.408 36.72L31.366 37.932C30.914 38.168 30.462 38.404 30.01 38.64C29.558 38.872 29.104 39.108 28.648 39.348ZM30.736 45C30.736 44.564 30.736 44.142 30.736 43.734C30.736 43.326 30.736 42.876 30.736 42.384V39.864C30.736 39.44 30.736 39.018 30.736 38.598C30.736 38.174 30.736 37.75 30.736 37.326L31.408 36.72L32.056 36.762C32.056 37.222 32.056 37.69 32.056 38.166C32.056 38.642 32.056 39.128 32.056 39.624V42.384C32.056 42.876 32.056 43.326 32.056 43.734C32.056 44.142 32.056 44.564 32.056 45H30.736Z" fill="white"/>
<path d="M36.7892 45C36.9732 44.552 37.1512 44.12 37.3232 43.704C37.4952 43.288 37.6952 42.808 37.9232 42.264L39.1532 39.288C39.3892 38.72 39.5972 38.22 39.7772 37.788C39.9572 37.352 40.1412 36.904 40.3292 36.444H41.5832C41.4552 36.752 41.3312 37.052 41.2112 37.344C41.0912 37.636 40.9652 37.94 40.8332 38.256C40.7012 38.572 40.5552 38.924 40.3952 39.312L39.1772 42.264C38.9492 42.808 38.7492 43.29 38.5772 43.71C38.4052 44.13 38.2272 44.56 38.0432 45H36.7892ZM49.3489 45C49.3489 44.612 49.3489 44.244 49.3489 43.896C49.3489 43.544 49.3489 43.136 49.3489 42.672L49.3909 42.456V39.894C49.3909 39.47 49.3909 39.05 49.3909 38.634C49.3909 38.214 49.3909 37.792 49.3909 37.368L50.3629 37.092C50.1429 37.408 49.9269 37.716 49.7149 38.016C49.5029 38.316 49.2909 38.618 49.0789 38.922L47.6809 40.896C47.4969 41.16 47.3129 41.424 47.1289 41.688C46.9489 41.948 46.7629 42.21 46.5709 42.474L46.5289 42.012H49.6849H49.8649C50.0849 42.012 50.3269 42.012 50.5909 42.012C50.8589 42.012 51.1229 42.012 51.3829 42.012C51.6429 42.012 51.8729 42.012 52.0729 42.012V43.158C51.8729 43.158 51.6429 43.158 51.3829 43.158C51.1229 43.158 50.8589 43.158 50.5909 43.158C50.3269 43.158 50.0849 43.158 49.8649 43.158H45.4669V42.264C45.6309 42.028 45.8129 41.768 46.0129 41.484C46.2169 41.2 46.4209 40.914 46.6249 40.626C46.8289 40.334 47.0189 40.066 47.1949 39.822L48.2329 38.352C48.4209 38.088 48.6089 37.824 48.7969 37.56C48.9849 37.292 49.1709 37.026 49.3549 36.762H50.6629C50.6629 37.258 50.6629 37.746 50.6629 38.226C50.6629 38.702 50.6629 39.178 50.6629 39.654V42.672C50.6629 43.136 50.6629 43.544 50.6629 43.896C50.6629 44.244 50.6629 44.612 50.6629 45H49.3489Z" fill="white" fill-opacity="0.3"/>
<rect x="1" y="1" width="78" height="78" rx="39" stroke="white" stroke-opacity="0.1" stroke-width="2"/>
</svg>
