<svg width="17" height="16" viewBox="0 0 17 16" fill="none" xmlns="http://www.w3.org/2000/svg">
<rect x="0.5" width="16" height="16" rx="8" fill="#FF4F6E"/>
<path fill-rule="evenodd" clip-rule="evenodd" d="M12.7432 12.2427C13.0556 11.9302 13.0556 11.4237 12.7432 11.1113L9.63183 7.99997L12.743 4.88876C13.0555 4.57634 13.0555 4.06981 12.743 3.75739C12.4306 3.44497 11.9241 3.44497 11.6117 3.75739L8.50046 6.8686L5.38925 3.75739C5.07683 3.44497 4.5703 3.44497 4.25788 3.75739C3.94546 4.06981 3.94546 4.57634 4.25788 4.88876L7.36909 7.99997L4.25775 11.1113C3.94533 11.4237 3.94533 11.9303 4.25775 12.2427C4.57017 12.5551 5.0767 12.5551 5.38912 12.2427L8.50046 9.13134L11.6118 12.2427C11.9242 12.5551 12.4307 12.5551 12.7432 12.2427Z" fill="white"/>
</svg>
