<svg width="40" height="40" viewBox="0 0 40 40" fill="none" xmlns="http://www.w3.org/2000/svg">
<rect width="40" height="40" rx="15" fill="#100F15"/>
<path fill-rule="evenodd" clip-rule="evenodd" d="M27.2727 12C28.779 12 30 13.221 30 14.7273C30 15.2294 29.593 15.6364 29.0909 15.6364L10.9091 15.6364C10.407 15.6364 10 15.2293 10 14.7273C10 13.221 11.221 12 12.7273 12H27.2727ZM13 28.3641C11.3431 28.3641 10 27.0209 10 25.3641V19.3641C10 18.8118 10.4477 18.3641 11 18.3641H29C29.5523 18.3641 30 18.8118 30 19.3641V25.3641C30 27.0209 28.6569 28.3641 27 28.3641H13Z" fill="white"/>
</svg>
