<svg width="220" height="141" viewBox="0 0 220 141" fill="none" xmlns="http://www.w3.org/2000/svg">
<path d="M210.435 0.501953H9.56486C4.28233 0.501953 0 4.79511 0 10.091V130.913C0 136.209 4.28233 140.502 9.56486 140.502H210.435C215.718 140.502 220 136.209 220 130.913V10.091C220 4.79511 215.718 0.501953 210.435 0.501953Z" fill="#0063FF"/>
<mask id="mask0" mask-type="alpha" maskUnits="userSpaceOnUse" x="0" y="0" width="220" height="141">
<path d="M210.435 0.501953H9.56486C4.28233 0.501953 0 4.79511 0 10.091V130.913C0 136.209 4.28233 140.502 9.56486 140.502H210.435C215.718 140.502 220 136.209 220 130.913V10.091C220 4.79511 215.718 0.501953 210.435 0.501953Z" fill="#101F5C"/>
</mask>
<g mask="url(#mask0)">
<path d="M126.561 15.8421L232.175 76.4311C238.126 79.8454 242.951 87.453 242.951 93.4237V226.748C242.951 232.718 238.127 234.789 232.175 231.375L126.561 170.786C120.609 167.372 115.784 159.764 115.784 153.794V20.4696C115.784 14.4994 120.608 12.4273 126.561 15.8421Z" fill="#701FFF"/>
<path d="M103.969 26.5106L209.583 87.1275C215.534 90.5437 220.359 98.155 220.359 104.128V237.514C220.359 243.487 215.534 245.56 209.583 242.144L103.969 181.527C98.0172 178.111 93.1924 170.499 93.1924 164.526V31.1404C93.1924 25.1675 98.0172 23.0947 103.969 26.5106Z" fill="#23FFCE"/>
<path d="M126.561 170.785C120.609 167.37 115.784 159.763 115.784 153.792V33.2915L209.583 87.1271C215.534 90.5427 220.36 98.1546 220.36 104.127V224.595L126.561 170.785Z" fill="#23D9FF"/>
</g>
<path d="M174.287 25.2556C174.114 25.0994 174.269 24.886 174.477 25.009C177.037 26.4648 179.93 27.2284 182.873 27.2252C185.072 27.2152 187.249 26.7724 189.279 25.9216C189.593 25.7901 189.854 26.1293 189.548 26.3559C187.689 27.7194 184.997 28.4452 182.678 28.4452C179.583 28.4622 176.593 27.3253 174.287 25.2556ZM189.829 27.5825C190.054 27.0258 190.556 25.7773 190.319 25.4751C190.082 25.1729 188.749 25.3326 188.151 25.4027C187.969 25.4238 187.943 25.2657 188.105 25.1523C189.168 24.4093 190.91 24.6246 191.111 24.8742C191.312 25.1238 191.059 26.8646 190.06 27.6928C190.018 27.7312 189.965 27.7544 189.909 27.7584C189.83 27.7584 189.785 27.6912 189.83 27.5825H189.829ZM192.39 21.6994C192.39 20.1265 193.184 18.9027 194.616 18.9027C196.085 18.9027 196.882 20.1572 196.878 21.752C196.878 23.2942 196 24.517 194.616 24.517C193.174 24.5184 192.389 23.2632 192.389 21.7L192.39 21.6994ZM193.848 21.5394C193.848 22.1575 193.84 23.4761 194.615 23.4761C195.384 23.4761 195.422 22.4128 195.419 21.764C195.435 21.3122 195.385 20.8606 195.27 20.4233C195.239 20.2773 195.157 20.1473 195.038 20.0575C194.919 19.9676 194.772 19.9239 194.623 19.9342C193.895 19.9345 193.847 20.9233 193.847 21.5392L193.848 21.5394ZM169.712 22.9488C169.701 22.6042 169.797 22.2647 169.985 21.9767C170.174 21.6887 170.447 21.4663 170.767 21.3397C171.305 21.1049 172.055 21.063 172.627 20.997V20.8699C172.658 20.6259 172.617 20.3782 172.509 20.1575C172.444 20.0733 172.359 20.006 172.263 19.9613C172.167 19.9166 172.061 19.8959 171.955 19.9008C171.773 19.8859 171.592 19.9377 171.445 20.0465C171.299 20.1553 171.197 20.3137 171.158 20.4924C171.152 20.5368 171.133 20.5783 171.102 20.6108C171.071 20.6432 171.031 20.6649 170.987 20.6726L170.024 20.5698C170.001 20.5665 169.978 20.5584 169.958 20.546C169.938 20.5337 169.92 20.5173 169.907 20.498C169.893 20.4786 169.883 20.4567 169.878 20.4335C169.873 20.4103 169.873 20.3863 169.878 20.363C170.1 19.2055 171.15 18.8562 172.091 18.8562C172.631 18.8354 173.16 19.0093 173.583 19.3463C174.064 19.7945 174.018 20.3918 174.018 21.0406V22.5747C174.022 22.9154 174.155 23.2418 174.39 23.4879C174.407 23.5052 174.421 23.5257 174.43 23.5482C174.439 23.5707 174.443 23.5948 174.443 23.6191C174.443 23.6434 174.438 23.6675 174.429 23.6899C174.419 23.7122 174.406 23.7325 174.388 23.7495C174.185 23.9172 173.826 24.2299 173.63 24.4036L173.627 24.4022C173.594 24.4292 173.555 24.4456 173.513 24.4496C173.471 24.4535 173.429 24.4448 173.393 24.4244C173.165 24.2419 172.972 24.0189 172.825 23.7668C172.628 24.0066 172.378 24.1965 172.095 24.3209C171.811 24.4453 171.502 24.5008 171.193 24.4828C170.36 24.483 169.711 23.9715 169.711 22.9485L169.712 22.9488ZM171.158 22.777C171.158 23.2033 171.379 23.4909 171.759 23.4909C171.903 23.4845 172.042 23.4396 172.162 23.3609C172.282 23.2822 172.379 23.1727 172.442 23.0436C172.601 22.72 172.665 22.358 172.627 21.9995V21.786C171.913 21.7857 171.157 21.9381 171.157 22.7767L171.158 22.777ZM182.685 22.9477C182.674 22.6031 182.769 22.2633 182.958 21.9751C183.147 21.6869 183.42 21.4643 183.74 21.3378C184.276 21.1028 185.027 21.0611 185.6 20.9954V20.8699C185.631 20.6257 185.589 20.3777 185.479 20.1575C185.414 20.0731 185.33 20.0056 185.233 19.9609C185.137 19.9162 185.031 19.8956 184.925 19.9008C184.743 19.886 184.563 19.9378 184.416 20.0466C184.27 20.1554 184.168 20.3138 184.129 20.4924C184.124 20.5371 184.104 20.5788 184.073 20.6113C184.042 20.6438 184.001 20.6653 183.957 20.6726L182.998 20.5698C182.974 20.5667 182.951 20.5588 182.931 20.5465C182.911 20.5343 182.893 20.5178 182.879 20.4984C182.866 20.479 182.856 20.4569 182.851 20.4336C182.846 20.4103 182.846 20.3863 182.851 20.363C183.07 19.2055 184.122 18.8562 185.065 18.8562C185.604 18.8356 186.132 19.0095 186.554 19.3463C187.035 19.7945 186.991 20.3918 186.991 21.0406V22.5747C186.996 22.9152 187.128 23.2414 187.362 23.4879C187.379 23.5053 187.393 23.526 187.401 23.5486C187.41 23.5712 187.415 23.5952 187.414 23.6195C187.414 23.6438 187.408 23.6678 187.399 23.69C187.389 23.7122 187.375 23.7323 187.357 23.749C187.156 23.9161 186.798 24.2291 186.6 24.4028L186.599 24.4013C186.566 24.4281 186.527 24.4447 186.485 24.4488C186.443 24.4528 186.401 24.4442 186.364 24.424C186.136 24.2417 185.944 24.0188 185.797 23.7665C185.6 24.0062 185.35 24.1961 185.066 24.3206C184.783 24.4451 184.474 24.5007 184.165 24.483C183.332 24.4827 182.685 23.9707 182.685 22.9474L182.685 22.9477ZM184.128 22.777C184.128 23.2033 184.35 23.4909 184.732 23.4909C184.875 23.4845 185.014 23.4396 185.134 23.3609C185.254 23.2822 185.351 23.1727 185.415 23.0436C185.574 22.7201 185.638 22.3581 185.6 21.9995V21.786C184.884 21.7857 184.128 21.9381 184.128 22.7767L184.128 22.777ZM200.501 24.4145C200.458 24.4119 200.417 24.3945 200.385 24.3654C200.353 24.3363 200.332 24.2972 200.326 24.2545V21.5083C200.326 20.9557 200.391 20.1468 199.71 20.1468C199.585 20.1515 199.465 20.192 199.363 20.2636C199.261 20.3352 199.182 20.4349 199.136 20.5504C199.012 20.8542 198.958 21.1819 198.977 21.5093V24.2298C198.976 24.2799 198.955 24.3275 198.918 24.362C198.882 24.3964 198.834 24.4152 198.784 24.414H197.8C197.753 24.4117 197.708 24.3913 197.674 24.3571C197.641 24.323 197.622 24.2774 197.621 24.2298L197.62 19.1737C197.626 19.1274 197.649 19.0849 197.684 19.0545C197.719 19.0242 197.765 19.0081 197.811 19.0093H198.728C198.769 19.0109 198.808 19.0256 198.84 19.0512C198.872 19.0768 198.895 19.1119 198.906 19.1515V19.9246H198.922C199.197 19.2328 199.588 18.9035 200.27 18.9035C200.498 18.893 200.725 18.9425 200.928 19.0472C201.131 19.1518 201.303 19.308 201.426 19.5C201.686 19.9055 201.686 20.5852 201.686 21.0743V24.2564C201.678 24.3017 201.654 24.3428 201.619 24.3721C201.583 24.4014 201.539 24.4171 201.493 24.4164L200.501 24.4145ZM175.34 24.4132C175.296 24.4114 175.253 24.3935 175.221 24.3629C175.188 24.3323 175.168 24.291 175.163 24.2465V19.1915C175.164 19.167 175.169 19.1427 175.179 19.1202C175.189 19.0978 175.203 19.0775 175.221 19.0606C175.239 19.0437 175.26 19.0305 175.283 19.0218C175.306 19.013 175.33 19.0089 175.354 19.0096H176.275C176.321 19.0106 176.364 19.0283 176.398 19.0595C176.431 19.0906 176.451 19.1329 176.455 19.1783V19.8391H176.472C176.555 19.5601 176.728 19.3166 176.964 19.147C177.2 18.9774 177.485 18.8913 177.775 18.9024C178.394 18.9024 178.783 19.2016 179.06 19.8391C179.154 19.5985 179.309 19.3868 179.51 19.2254C179.711 19.0639 179.951 18.9584 180.206 18.9196C180.46 18.8807 180.721 18.9097 180.961 19.0038C181.201 19.0979 181.412 19.2538 181.572 19.4556C181.885 19.8808 181.821 20.4989 181.821 21.0406L181.82 24.2305C181.819 24.2799 181.798 24.3268 181.763 24.361C181.727 24.3953 181.68 24.4141 181.63 24.4132H180.641C180.594 24.4107 180.55 24.3905 180.517 24.3566C180.484 24.3227 180.465 24.2777 180.464 24.2305V21.5507C180.478 21.2345 180.469 20.9178 180.436 20.603C180.416 20.4682 180.344 20.3469 180.235 20.2655C180.126 20.1841 179.989 20.1492 179.855 20.1685C179.726 20.1719 179.602 20.2128 179.497 20.2863C179.392 20.3599 179.31 20.4627 179.263 20.5821C179.181 20.8981 179.15 21.2252 179.171 21.5509V24.2307C179.171 24.2553 179.165 24.2796 179.155 24.3022C179.146 24.3247 179.131 24.345 179.113 24.362C179.096 24.3789 179.075 24.3922 179.052 24.401C179.029 24.4098 179.004 24.4142 178.98 24.4135H177.993C177.945 24.4114 177.9 24.3913 177.867 24.3574C177.834 24.3235 177.815 24.2782 177.814 24.2307V21.5509C177.814 20.9871 177.905 20.1575 177.202 20.1575C176.492 20.1575 176.519 20.9668 176.519 21.5509V24.2318C176.518 24.2812 176.498 24.3282 176.462 24.3625C176.427 24.3968 176.379 24.4155 176.33 24.4145L175.34 24.4132ZM188.01 24.1024V23.3685C187.999 23.1948 188.04 23.0218 188.129 22.8721L190.082 20.0843H188.382C188.357 20.0857 188.333 20.082 188.31 20.0735C188.287 20.065 188.266 20.0519 188.248 20.0348C188.231 20.0178 188.217 19.9973 188.207 19.9746C188.198 19.952 188.193 19.9275 188.194 19.9029V19.1795C188.193 19.1552 188.197 19.1309 188.206 19.1083C188.215 19.0857 188.229 19.0651 188.246 19.048C188.263 19.0308 188.284 19.0174 188.306 19.0085C188.329 18.9996 188.353 18.9956 188.377 18.9965H191.629C191.654 18.9954 191.678 18.9994 191.701 19.0081C191.724 19.0169 191.745 19.0302 191.762 19.0473C191.78 19.0645 191.794 19.0851 191.803 19.1078C191.813 19.1305 191.817 19.1549 191.817 19.1795V19.7983C191.817 19.9027 191.728 20.0376 191.573 20.2532L189.885 22.6482C190.528 22.6116 191.168 22.7483 191.74 23.0439C191.791 23.0713 191.834 23.1116 191.865 23.1608C191.896 23.21 191.913 23.2664 191.915 23.3244V24.0964C191.916 24.1253 191.909 24.154 191.896 24.1798C191.883 24.2056 191.864 24.2278 191.84 24.2442C191.816 24.2607 191.789 24.271 191.76 24.2742C191.731 24.2774 191.702 24.2733 191.675 24.2624C191.144 23.9903 190.555 23.8489 189.958 23.8497C189.361 23.8505 188.772 23.9936 188.241 24.2671C188.222 24.2779 188.201 24.2837 188.179 24.2838C188.133 24.2791 188.091 24.258 188.06 24.2246C188.029 24.1911 188.011 24.1476 188.01 24.1019L188.01 24.1024Z" fill="white"/>
<path d="M22.2488 18.5627H24.1703V25.0192C24.1703 25.6127 24.0379 26.1379 23.7732 26.5948C23.5127 27.0475 23.1433 27.3976 22.6651 27.6453C22.1868 27.8929 21.6467 28.0168 21.0446 28.0168C20.0582 28.0168 19.2896 27.767 18.7387 27.2674C18.1879 26.7635 17.9125 26.0525 17.9125 25.1344H19.8468C19.8468 25.5913 19.9429 25.9287 20.1351 26.1465C20.3272 26.3642 20.6304 26.4731 21.0446 26.4731C21.4118 26.4731 21.7043 26.3472 21.9221 26.0952C22.1399 25.8433 22.2488 25.4846 22.2488 25.0192V18.5627ZM25.4065 24.3594C25.4065 23.6719 25.5389 23.0592 25.8036 22.5211C26.0684 21.9831 26.4484 21.5668 26.9438 21.2721C27.4434 20.9775 28.022 20.8302 28.6796 20.8302C29.6147 20.8302 30.3769 21.1163 30.9662 21.6885C31.5597 22.2607 31.8907 23.0378 31.959 24.0199L31.9718 24.4939C31.9718 25.5572 31.675 26.4112 31.0815 27.056C30.4879 27.6965 29.6916 28.0168 28.6924 28.0168C27.6932 28.0168 26.8946 27.6965 26.2968 27.056C25.7033 26.4155 25.4065 25.5444 25.4065 24.4427V24.3594ZM27.2576 24.4939C27.2576 25.1515 27.3814 25.6554 27.6291 26.0056C27.8768 26.3514 28.2312 26.5244 28.6924 26.5244C29.1407 26.5244 29.4909 26.3536 29.7428 26.012C29.9948 25.6661 30.1207 25.1152 30.1207 24.3594C30.1207 23.7146 29.9948 23.215 29.7428 22.8606C29.4909 22.5062 29.1365 22.329 28.6796 22.329C28.2269 22.329 27.8768 22.5062 27.6291 22.8606C27.3814 23.2108 27.2576 23.7552 27.2576 24.4939ZM34.9182 21.7141C35.4093 21.1248 36.0263 20.8302 36.7693 20.8302C38.2724 20.8302 39.0346 21.7034 39.0559 23.4499V27.8887H37.2048V23.5011C37.2048 23.104 37.1194 22.8115 36.9486 22.6236C36.7778 22.4315 36.4939 22.3354 36.0967 22.3354C35.5544 22.3354 35.1616 22.5446 34.9182 22.9631V27.8887H33.0671V18.0503H34.9182V21.7141ZM42.156 20.9583L42.2137 21.7589C42.709 21.1398 43.373 20.8302 44.2057 20.8302C44.9402 20.8302 45.4867 21.0458 45.8454 21.4771C46.2041 21.9084 46.3877 22.5532 46.3963 23.4115V27.8887H44.5452V23.4563C44.5452 23.0634 44.4598 22.7795 44.289 22.6044C44.1182 22.4251 43.8342 22.3354 43.4371 22.3354C42.9161 22.3354 42.5254 22.5574 42.2649 23.0015V27.8887H40.4138V20.9583H42.156ZM56.0296 25.4419C56.0296 25.0789 55.9015 24.8014 55.6453 24.6092C55.3891 24.4128 54.928 24.2078 54.2618 23.9943C53.5957 23.7765 53.0683 23.563 52.6797 23.3538C51.6208 22.7816 51.0913 22.0109 51.0913 21.0415C51.0913 20.5377 51.2322 20.0893 51.514 19.6965C51.8001 19.2993 52.2079 18.9897 52.7374 18.7677C53.2712 18.5457 53.869 18.4346 54.5308 18.4346C55.197 18.4346 55.7905 18.5563 56.3115 18.7997C56.8324 19.0389 57.236 19.3783 57.5221 19.8182C57.8124 20.258 57.9576 20.7576 57.9576 21.317H56.0361C56.0361 20.89 55.9015 20.559 55.6325 20.3242C55.3635 20.085 54.9856 19.9655 54.4988 19.9655C54.0291 19.9655 53.664 20.0658 53.4035 20.2665C53.143 20.4629 53.0128 20.7234 53.0128 21.0479C53.0128 21.3511 53.1644 21.6052 53.4676 21.8102C53.775 22.0151 54.2255 22.2073 54.8191 22.3866C55.9122 22.7154 56.7086 23.1232 57.2082 23.61C57.7078 24.0968 57.9576 24.7032 57.9576 25.4291C57.9576 26.2361 57.6523 26.8702 57.0417 27.3314C56.431 27.7883 55.609 28.0168 54.5757 28.0168C53.8583 28.0168 53.205 27.8865 52.6157 27.6261C52.0264 27.3613 51.5759 27.0005 51.2642 26.5436C50.9567 26.0867 50.803 25.5572 50.803 24.9551H52.731C52.731 25.9842 53.3459 26.4987 54.5757 26.4987C55.0326 26.4987 55.3891 26.4069 55.6453 26.2233C55.9015 26.0354 56.0296 25.775 56.0296 25.4419ZM60.8784 20.9583L60.936 21.7333C61.4271 21.1312 62.0911 20.8302 62.928 20.8302C63.8205 20.8302 64.4332 21.1825 64.7663 21.887C65.2531 21.1825 65.947 20.8302 66.848 20.8302C67.5995 20.8302 68.1589 21.0501 68.5261 21.4899C68.8934 21.9255 69.077 22.5831 69.077 23.4627V27.8887H67.2195V23.4691C67.2195 23.0763 67.1426 22.7902 66.9889 22.6108C66.8352 22.4272 66.564 22.3354 66.1754 22.3354C65.6203 22.3354 65.236 22.6001 65.0225 23.1296L65.0289 27.8887H63.1778V23.4755C63.1778 23.0741 63.0988 22.7837 62.9408 22.6044C62.7828 22.4251 62.5138 22.3354 62.1338 22.3354C61.6086 22.3354 61.2285 22.5532 60.9937 22.9887V27.8887H59.1426V20.9583H60.8784ZM72.4589 27.8887H70.6014V20.9583H72.4589V27.8887ZM70.4925 19.1648C70.4925 18.8873 70.5843 18.6588 70.768 18.4795C70.9558 18.3001 71.2099 18.2105 71.5302 18.2105C71.8462 18.2105 72.0981 18.3001 72.286 18.4795C72.4739 18.6588 72.5678 18.8873 72.5678 19.1648C72.5678 19.4467 72.4717 19.6772 72.2796 19.8566C72.0917 20.0359 71.8419 20.1256 71.5302 20.1256C71.2185 20.1256 70.9665 20.0359 70.7744 19.8566C70.5865 19.6772 70.4925 19.4467 70.4925 19.1648ZM76.206 19.2545V20.9583H77.3909V22.3162H76.206V25.775C76.206 26.0312 76.2551 26.2148 76.3533 26.3258C76.4515 26.4368 76.6394 26.4923 76.9169 26.4923C77.1219 26.4923 77.3034 26.4774 77.4614 26.4475V27.8502C77.0984 27.9613 76.7248 28.0168 76.3405 28.0168C75.0423 28.0168 74.3805 27.3613 74.3549 26.0504V22.3162H73.3428V20.9583H74.3549V19.2545H76.206ZM80.2284 21.7141C80.7195 21.1248 81.3365 20.8302 82.0795 20.8302C83.5826 20.8302 84.3448 21.7034 84.3661 23.4499V27.8887H82.515V23.5011C82.515 23.104 82.4296 22.8115 82.2588 22.6236C82.088 22.4315 81.8041 22.3354 81.407 22.3354C80.8646 22.3354 80.4718 22.5446 80.2284 22.9631V27.8887H78.3773V18.0503H80.2284V21.7141Z" fill="white"/>
</svg>
