<svg width="50" height="50" viewBox="0 0 50 50" fill="none" xmlns="http://www.w3.org/2000/svg">
<rect width="50" height="50" rx="25" fill="#100F15"/>
<path d="M25.1911 13C21.6197 13 18.7002 15.9195 18.7002 19.4909C18.7002 23.0624 21.6197 25.9819 25.1911 25.9819C28.7626 25.9819 31.6821 23.0624 31.6821 19.4909C31.6821 15.9195 28.7626 13 25.1911 13Z" fill="white"/>
<path d="M36.3302 31.1688C36.1601 30.7436 35.9334 30.3468 35.6783 29.9783C34.3744 28.0508 32.362 26.7753 30.0944 26.4635C29.811 26.4352 29.4992 26.4919 29.2724 26.6619C28.0819 27.5406 26.6647 27.9941 25.1908 27.9941C23.7168 27.9941 22.2996 27.5406 21.1091 26.6619C20.8823 26.4919 20.5705 26.4068 20.2871 26.4635C18.0195 26.7753 15.9787 28.0508 14.7032 29.9783C14.4481 30.3468 14.2214 30.772 14.0513 31.1688C13.9663 31.3389 13.9946 31.5373 14.0797 31.7073C14.3064 32.1042 14.5899 32.501 14.845 32.8411C15.2418 33.3797 15.667 33.8615 16.1488 34.315C16.5456 34.7118 16.9991 35.0803 17.4527 35.4488C19.6919 37.1212 22.3847 37.9998 25.1624 37.9998C27.9402 37.9998 30.633 37.1211 32.8722 35.4488C33.3257 35.1087 33.7792 34.7118 34.1761 34.315C34.6296 33.8615 35.0831 33.3797 35.4799 32.8411C35.7634 32.4726 36.0185 32.1042 36.2452 31.7073C36.3869 31.5373 36.4152 31.3388 36.3302 31.1688Z" fill="white"/>
</svg>
