<svg width="40" height="20" viewBox="0 0 40 20" fill="none" xmlns="http://www.w3.org/2000/svg">
<path fill-rule="evenodd" clip-rule="evenodd" d="M32.438 10.0084L27.3606 14.2311C26.936 14.5843 26.878 15.2148 27.2312 15.6394C27.5843 16.064 28.2148 16.122 28.6395 15.7688L34.6394 10.7787C35.1196 10.3794 35.1203 9.64255 34.6409 9.24229L28.6409 4.23242C28.217 3.87845 27.5864 3.93516 27.2324 4.35909C26.8785 4.78302 26.9352 5.41364 27.3591 5.76762L32.438 10.0084Z" fill="#100F15"/>
<g opacity="0.5">
<path fill-rule="evenodd" clip-rule="evenodd" d="M22.438 10.0084L17.3606 14.2311C16.936 14.5843 16.878 15.2148 17.2312 15.6394C17.5843 16.064 18.2148 16.122 18.6395 15.7688L24.6394 10.7787C25.1196 10.3794 25.1203 9.64255 24.6409 9.24229L18.6409 4.23242C18.217 3.87845 17.5864 3.93516 17.2324 4.35909C16.8785 4.78302 16.9352 5.41364 17.3591 5.76762L22.438 10.0084Z" fill="#100F15"/>
</g>
<g opacity="0.1">
<path fill-rule="evenodd" clip-rule="evenodd" d="M12.438 10.0084L7.36059 14.2311C6.93597 14.5843 6.87803 15.2148 7.23118 15.6394C7.58433 16.064 8.21484 16.122 8.63946 15.7688L14.6394 10.7787C15.1196 10.3794 15.1203 9.64255 14.6409 9.24229L8.64095 4.23242C8.21702 3.87845 7.5864 3.93516 7.23243 4.35909C6.87845 4.78302 6.93516 5.41364 7.35909 5.76762L12.438 10.0084Z" fill="#100F15"/>
</g>
</svg>
