<svg width="40" height="40" viewBox="0 0 40 40" fill="none" xmlns="http://www.w3.org/2000/svg">
<rect width="40" height="40" rx="15" fill="#100F15"/>
<path fill-rule="evenodd" clip-rule="evenodd" d="M15.9218 13.8257C16.3914 13.8257 16.7721 14.1933 16.7721 14.6468V27.295C16.7721 27.4382 16.8309 27.5755 16.9358 27.6767C17.0406 27.778 17.1827 27.8348 17.331 27.8348H18.4024C18.5507 27.8348 18.6928 27.778 18.7977 27.6767C18.9025 27.5755 18.9613 27.4382 18.9613 27.295V14.6468C18.9613 14.429 19.0509 14.2201 19.2104 14.0662C19.3698 13.9122 19.5861 13.8257 19.8116 13.8257H25.7075C25.933 13.8257 26.1493 13.9122 26.3087 14.0662C26.4682 14.2201 26.5577 14.429 26.5577 14.6468V28.4698C26.5577 29.3155 25.849 30 24.9733 30H15.027C14.1513 30 13.4425 29.3155 13.4425 28.4698V14.6468C13.4425 14.1933 13.8232 13.8257 14.2928 13.8257H15.9218ZM23.4414 18.9175C23.2604 18.9175 23.1127 19.0601 23.1127 19.2349V27.5174C23.1127 27.6923 23.2604 27.8349 23.4414 27.8349C23.6238 27.8349 23.7701 27.6923 23.7701 27.5174V19.2349C23.7701 19.0601 23.6238 18.9175 23.4414 18.9175ZM28.5967 10.0001C28.969 10.0001 29.3259 10.1429 29.5891 10.3971C29.8523 10.6513 30 10.9961 30 11.3556C30 12.0962 29.9997 13.0307 29.9995 13.8678L29.9993 14.6618C29.9991 15.4081 29.3726 16.0131 28.5998 16.0131H27.8112C27.482 16.0131 27.2152 15.7554 27.2152 15.4375V13.999C27.2152 13.8688 27.2688 13.744 27.3641 13.6519C27.4594 13.5598 27.5887 13.5081 27.7235 13.5081H28.2412C28.4222 13.5081 28.5699 13.3655 28.5699 13.1907C28.5699 13.0146 28.4222 12.8732 28.2412 12.8732H11.7591C11.5781 12.8732 11.4304 13.0146 11.4304 13.1907C11.4304 13.3655 11.5781 13.5081 11.7591 13.5081H12.2765C12.4114 13.5081 12.5407 13.5599 12.6361 13.652C12.7314 13.7441 12.7849 13.869 12.7848 13.9993C12.7846 14.4128 12.7843 15.0047 12.7841 15.4403C12.7839 15.758 12.5172 16.0155 12.1881 16.0155H11.3995C11.0283 16.0155 10.6724 15.8732 10.4099 15.6197C10.1475 15.3662 10 15.0224 10 14.664V11.3552C10 10.6068 10.6283 10 11.4033 10L28.5967 10.0001Z" fill="white"/>
</svg>
