<svg width="15" height="11" viewBox="0 0 15 11" fill="none" xmlns="http://www.w3.org/2000/svg">
<path fill-rule="evenodd" clip-rule="evenodd" d="M7.76092 9.99271C7.45152 10.1192 7.08589 9.79367 6.96475 9.32867C6.05608 5.84072 3.68203 3.74946 1.24789 4.29278C0.923382 4.36521 0.555796 4.04487 0.472892 3.57281C0.410578 3.21798 0.532728 2.89118 0.771915 2.81826C3.89958 1.86464 7.01715 4.61085 8.0397 9.22033C8.1179 9.57284 7.99348 9.89764 7.76092 9.99271Z" fill="white"/>
<path fill-rule="evenodd" clip-rule="evenodd" d="M7.23908 9.99271C7.54848 10.1192 7.91411 9.79367 8.03525 9.32867C8.94392 5.84072 11.318 3.74946 13.7521 4.29278C14.0766 4.36521 14.4442 4.04487 14.5271 3.57281C14.5894 3.21798 14.4673 2.89118 14.2281 2.81826C11.1004 1.86464 7.98285 4.61085 6.9603 9.22033C6.8821 9.57284 7.00652 9.89764 7.23908 9.99271Z" fill="white"/>
</svg>
