<svg width="28" height="19" viewBox="0 0 28 19" fill="none" xmlns="http://www.w3.org/2000/svg">
<path d="M0.982471 12.6593V1.1573C0.982471 0.518154 1.51909 0 2.18112 0H14.088C14.75 0 15.2866 0.518154 15.2866 1.1573V12.6594C15.2866 12.8724 15.1077 13.0452 14.887 13.0452H1.38202C1.16131 13.0452 0.982471 12.8724 0.982471 12.6593ZM10.5976 16.5997C10.5976 17.9253 9.48454 19 8.11158 19C6.73862 19 5.62553 17.9253 5.62553 16.5997C5.62553 15.274 6.73862 14.1994 8.11158 14.1994C9.48454 14.1994 10.5976 15.274 10.5976 16.5997ZM9.35456 16.5997C9.35456 15.9369 8.79804 15.3996 8.11154 15.3996C7.42503 15.3996 6.86846 15.9369 6.86846 16.5997C6.86846 17.2625 7.42503 17.7999 8.11154 17.7999C8.79804 17.7999 9.35456 17.2625 9.35456 16.5997ZM5.97036 14.1994H0.399549C0.178889 14.1994 0 14.3721 0 14.5851V15.7555C0 15.9686 0.178889 16.1413 0.399549 16.1413H4.86482C4.98139 15.3689 5.38515 14.6867 5.97036 14.1994ZM23.605 16.5997C23.605 17.9253 22.4919 19 21.119 19C19.7459 19 18.6329 17.9253 18.6329 16.5997C18.6329 15.274 19.7459 14.1994 21.119 14.1994C22.4919 14.1994 23.605 15.274 23.605 16.5997ZM22.362 16.5997C22.362 15.9369 21.8055 15.3996 21.119 15.3996C20.4324 15.3996 19.8759 15.9369 19.8759 16.5997C19.8759 17.2625 20.4325 17.7999 21.119 17.7999C21.8055 17.7999 22.362 17.2625 22.362 16.5997ZM28 14.5851V15.7555C28 15.9686 27.8211 16.1413 27.6005 16.1413H24.3656C24.1343 14.6092 22.7686 13.4278 21.119 13.4278C19.4692 13.4278 18.1035 14.6093 17.8721 16.1413H11.3583C11.2417 15.369 10.838 14.6867 10.2528 14.1994H16.429V3.16525C16.429 2.73915 16.7868 2.39371 17.2281 2.39371H21.0001C22.0622 2.39371 23.0548 2.90308 23.6491 3.75293L26.0808 7.2303C26.4375 7.74037 26.6281 8.34175 26.6281 8.95722V14.1994H27.6005C27.8211 14.1994 28 14.3721 28 14.5851ZM23.9468 7.31936L22.0023 4.65159C21.9274 4.54893 21.8055 4.48784 21.6755 4.48784H18.6424C18.4218 4.48784 18.2429 4.66056 18.2429 4.87361V7.54137C18.2429 7.75447 18.4218 7.92714 18.6424 7.92714H23.6201C23.9438 7.92714 24.1331 7.57494 23.9468 7.31936Z" fill="white" fill-opacity="0.3"/>
</svg>
