<svg width="24" height="25" viewBox="0 0 24 25" fill="none" xmlns="http://www.w3.org/2000/svg">
<path d="M16.1405 4.0971H22.2861C22.5578 4.0971 22.8183 4.20501 23.0104 4.3971C23.2025 4.58919 23.3104 4.84971 23.3104 5.12137C23.3104 5.39302 23.2025 5.65355 23.0104 5.84564C22.8183 6.03773 22.5578 6.14564 22.2861 6.14564H21.1533L19.6128 20.0266C19.4736 21.2794 18.8773 22.4368 17.9381 23.2774C16.9988 24.118 15.7826 24.5827 14.5221 24.5826H9.56464C8.30416 24.5827 7.08791 24.118 6.14866 23.2774C5.20941 22.4368 4.61315 21.2794 4.47399 20.0266L2.93144 6.14564H1.80064C1.52899 6.14564 1.26846 6.03773 1.07637 5.84564C0.884282 5.65355 0.776367 5.39302 0.776367 5.12137C0.776367 4.84971 0.884282 4.58919 1.07637 4.3971C1.26846 4.20501 1.52899 4.0971 1.80064 4.0971H7.94628C7.94628 3.01048 8.37794 1.96837 9.14629 1.20001C9.91465 0.431657 10.9568 0 12.0434 0C13.13 0 14.1721 0.431657 14.9405 1.20001C15.7088 1.96837 16.1405 3.01048 16.1405 4.0971ZM12.0434 2.04855C11.5001 2.04855 10.979 2.26438 10.5948 2.64855C10.2107 3.03273 9.99483 3.55379 9.99483 4.0971H14.0919C14.0919 3.55379 13.8761 3.03273 13.4919 2.64855C13.1077 2.26438 12.5867 2.04855 12.0434 2.04855ZM8.97056 10.2427V18.4369C8.97056 18.7086 9.07847 18.9691 9.27056 19.1612C9.46265 19.3533 9.72318 19.4612 9.99483 19.4612C10.2665 19.4612 10.527 19.3533 10.7191 19.1612C10.9112 18.9691 11.0191 18.7086 11.0191 18.4369V10.2427C11.0191 9.97108 10.9112 9.71056 10.7191 9.51847C10.527 9.32638 10.2665 9.21846 9.99483 9.21846C9.72318 9.21846 9.46265 9.32638 9.27056 9.51847C9.07847 9.71056 8.97056 9.97108 8.97056 10.2427ZM14.0919 9.21846C13.8203 9.21846 13.5597 9.32638 13.3677 9.51847C13.1756 9.71056 13.0677 9.97108 13.0677 10.2427V18.4369C13.0677 18.7086 13.1756 18.9691 13.3677 19.1612C13.5597 19.3533 13.8203 19.4612 14.0919 19.4612C14.3636 19.4612 14.6241 19.3533 14.8162 19.1612C15.0083 18.9691 15.1162 18.7086 15.1162 18.4369V10.2427C15.1162 9.97108 15.0083 9.71056 14.8162 9.51847C14.6241 9.32638 14.3636 9.21846 14.0919 9.21846Z" fill="#D7273C"/>
</svg>
