<svg width="50" height="50" viewBox="0 0 50 50" fill="none" xmlns="http://www.w3.org/2000/svg">
<rect width="50" height="50" rx="25" fill="#100F15"/>
<path d="M12.9825 27.6593V16.1573C12.9825 15.5182 13.5191 15 14.1811 15H26.088C26.75 15 27.2866 15.5182 27.2866 16.1573V27.6594C27.2866 27.8724 27.1077 28.0452 26.887 28.0452H13.382C13.1613 28.0452 12.9825 27.8724 12.9825 27.6593ZM22.5976 31.5997C22.5976 32.9253 21.4845 34 20.1116 34C18.7386 34 17.6255 32.9253 17.6255 31.5997C17.6255 30.274 18.7386 29.1994 20.1116 29.1994C21.4845 29.1994 22.5976 30.274 22.5976 31.5997ZM21.3546 31.5997C21.3546 30.9369 20.798 30.3996 20.1115 30.3996C19.425 30.3996 18.8685 30.9369 18.8685 31.5997C18.8685 32.2625 19.425 32.7999 20.1115 32.7999C20.798 32.7999 21.3546 32.2625 21.3546 31.5997ZM17.9704 29.1994H12.3995C12.1789 29.1994 12 29.3721 12 29.5851V30.7555C12 30.9686 12.1789 31.1413 12.3995 31.1413H16.8648C16.9814 30.3689 17.3852 29.6867 17.9704 29.1994ZM35.605 31.5997C35.605 32.9253 34.4919 34 33.119 34C31.7459 34 30.6329 32.9253 30.6329 31.5997C30.6329 30.274 31.7459 29.1994 33.119 29.1994C34.4919 29.1994 35.605 30.274 35.605 31.5997ZM34.362 31.5997C34.362 30.9369 33.8055 30.3996 33.119 30.3996C32.4324 30.3996 31.8759 30.9369 31.8759 31.5997C31.8759 32.2625 32.4325 32.7999 33.119 32.7999C33.8055 32.7999 34.362 32.2625 34.362 31.5997ZM40 29.5851V30.7555C40 30.9686 39.8211 31.1413 39.6005 31.1413H36.3656C36.1343 29.6092 34.7686 28.4278 33.119 28.4278C31.4692 28.4278 30.1035 29.6093 29.8721 31.1413H23.3583C23.2417 30.369 22.838 29.6867 22.2528 29.1994H28.429V18.1652C28.429 17.7391 28.7868 17.3937 29.2281 17.3937H33.0001C34.0622 17.3937 35.0548 17.9031 35.6491 18.7529L38.0808 22.2303C38.4375 22.7404 38.6281 23.3418 38.6281 23.9572V29.1994H39.6005C39.8211 29.1994 40 29.3721 40 29.5851ZM35.9468 22.3194L34.0023 19.6516C33.9274 19.5489 33.8055 19.4878 33.6755 19.4878H30.6424C30.4218 19.4878 30.2429 19.6606 30.2429 19.8736V22.5414C30.2429 22.7545 30.4218 22.9271 30.6424 22.9271H35.6201C35.9438 22.9271 36.1331 22.5749 35.9468 22.3194Z" fill="white"/>
</svg>
