<svg width="23" height="24" viewBox="0 0 23 24" fill="none" xmlns="http://www.w3.org/2000/svg">
<path d="M16.1615 4.63939L18.736 7.21262L16.1615 4.63939ZM17.817 2.37246L10.8558 9.33369C10.4961 9.69287 10.2508 10.1505 10.1508 10.6489L9.50781 13.8675L12.7265 13.2233C13.2248 13.1237 13.6819 12.8793 14.0417 12.5195L21.0029 5.55831C21.2121 5.34913 21.378 5.10079 21.4912 4.82747C21.6044 4.55416 21.6627 4.26122 21.6627 3.96539C21.6627 3.66955 21.6044 3.37661 21.4912 3.1033C21.378 2.82998 21.2121 2.58164 21.0029 2.37246C20.7937 2.16327 20.5454 1.99734 20.2721 1.88413C19.9987 1.77092 19.7058 1.71265 19.41 1.71265C19.1141 1.71265 18.8212 1.77092 18.5479 1.88413C18.2746 1.99734 18.0262 2.16327 17.817 2.37246V2.37246Z" stroke="white" stroke-width="2" stroke-linecap="round" stroke-linejoin="round"/>
<path d="M19.2327 16.2987V19.9452C19.2327 20.59 18.9765 21.2083 18.5206 21.6642C18.0647 22.1201 17.4464 22.3762 16.8016 22.3762H3.43102C2.78628 22.3762 2.16794 22.1201 1.71203 21.6642C1.25612 21.2083 1 20.59 1 19.9452V6.57458C1 5.92983 1.25612 5.31149 1.71203 4.85558C2.16794 4.39968 2.78628 4.14355 3.43102 4.14355H7.07756" stroke="white" stroke-width="2" stroke-linecap="round" stroke-linejoin="round"/>
</svg>
