<svg width="23" height="19" viewBox="0 0 23 19" fill="none" xmlns="http://www.w3.org/2000/svg">
<path fill-rule="evenodd" clip-rule="evenodd" d="M19.5246 0H3.81034C2.0749 0 0.66748 1.40742 0.66748 3.14286V15.0857C0.66748 15.9196 0.998461 16.719 1.58776 17.3083C2.17706 17.8976 2.9765 18.2286 3.81034 18.2286H19.5246C20.3585 18.2286 21.1579 17.8976 21.7472 17.3083C22.3365 16.719 22.6675 15.9196 22.6675 15.0857V3.14286C22.6675 2.30902 22.3365 1.50955 21.7472 0.920279C21.1579 0.331006 20.3585 0 19.5246 0ZM19.4382 3.88935L14.5745 8.14805C13.7672 8.84732 12.735 9.23233 11.6676 9.23233C10.6001 9.23233 9.56772 8.84734 8.76054 8.14805L3.8969 3.88935C3.72993 3.75478 3.62486 3.55837 3.60718 3.34425C3.5885 3.13112 3.65825 2.91899 3.79968 2.75792C3.94111 2.59784 4.14245 2.50159 4.35654 2.49274C4.57063 2.48389 4.77985 2.56246 4.93405 2.71078L9.79768 6.96143C10.8692 7.89644 12.4661 7.89644 13.5377 6.96143L18.4013 2.71078C18.5555 2.56246 18.7647 2.48389 18.9788 2.49274C19.1929 2.50159 19.3943 2.59784 19.5357 2.75792C19.6771 2.91899 19.7468 3.13114 19.7282 3.34425C19.7105 3.55837 19.6052 3.75478 19.4382 3.88935Z" fill="white"/>
</svg>
