<svg width="23" height="22" viewBox="0 0 23 22" fill="none" xmlns="http://www.w3.org/2000/svg">
<g clip-path="url(#clip0)">
<path fill-rule="evenodd" clip-rule="evenodd" d="M19.5241 2H3.80985C2.07441 2 0.666992 3.40742 0.666992 5.14286V17.0857C0.666992 17.9196 0.997973 18.719 1.58727 19.3083C2.17657 19.8976 2.97601 20.2286 3.80985 20.2286H19.5241C20.358 20.2286 21.1574 19.8976 21.7467 19.3083C22.336 18.719 22.667 17.9196 22.667 17.0857V5.14286C22.667 4.30902 22.336 3.50955 21.7467 2.92028C21.1574 2.33101 20.358 2 19.5241 2ZM19.4377 5.88935L14.5741 10.148C13.7667 10.8473 12.7345 11.2323 11.6671 11.2323C10.5996 11.2323 9.56724 10.8473 8.76005 10.148L3.89642 5.88935C3.72944 5.75478 3.62437 5.55837 3.60669 5.34425C3.58801 5.13112 3.65776 4.91899 3.79919 4.75792C3.94062 4.59784 4.14196 4.50159 4.35605 4.49274C4.57014 4.48389 4.77936 4.56246 4.93356 4.71078L9.79719 8.96143C10.8687 9.89644 12.4656 9.89644 13.5372 8.96143L18.4008 4.71078C18.555 4.56246 18.7642 4.48389 18.9783 4.49274C19.1924 4.50159 19.3938 4.59784 19.5352 4.75792C19.6766 4.91899 19.7463 5.13114 19.7277 5.34425C19.71 5.55837 19.6047 5.75478 19.4377 5.88935Z" fill="#100F15"/>
</g>
<defs>
<clipPath id="clip0">
<rect width="22" height="22" fill="white" transform="translate(0.833008)"/>
</clipPath>
</defs>
</svg>
