<svg width="81" height="80" viewBox="0 0 81 80" fill="none" xmlns="http://www.w3.org/2000/svg">
<path fill-rule="evenodd" clip-rule="evenodd" d="M0.5 40C0.5 17.924 18.42 3.05176e-05 40.5 3.05176e-05C62.62 3.05176e-05 80.5 17.924 80.5 40C80.5 62.084 62.62 80 40.5 80C18.42 80 0.5 62.084 0.5 40ZM36.9809 24.8401C36.9809 22.9241 38.5809 21.3201 40.5009 21.3201C42.4209 21.3201 43.9809 22.9241 43.9809 24.8401V42.5201C43.9809 44.4441 42.4209 46.0001 40.5009 46.0001C38.5809 46.0001 36.9809 44.4441 36.9809 42.5201V24.8401ZM40.54 58.7237C38.58 58.7237 37.02 57.1237 37.02 55.2037C37.02 53.2837 38.58 51.7237 40.5 51.7237C42.46 51.7237 44.02 53.2837 44.02 55.2037C44.02 57.1237 42.46 58.7237 40.54 58.7237Z" fill="#FF9F47"/>
</svg>
