<svg width="50" height="50" viewBox="0 0 50 50" fill="none" xmlns="http://www.w3.org/2000/svg">
<path d="M13.0199 38.6068C9.68459 38.6068 6.71783 36.4713 5.64053 33.292L5.56767 33.0525C5.3136 32.2105 5.20717 31.5025 5.20717 30.7941V16.5894L0.152955 33.4606C-0.497086 35.9422 0.984198 38.5149 3.46953 39.2004L35.6851 47.8279C36.0871 47.9321 36.4892 47.982 36.8852 47.982C38.9601 47.982 40.856 46.6049 41.3874 44.5754L43.2643 38.6068H13.0199Z" fill="#AAAABE"/>
<path d="M18.7499 16.7308C21.0479 16.7308 22.9164 14.8619 22.9164 12.5639C22.9164 10.2658 21.0479 8.39697 18.7499 8.39697C16.4519 8.39697 14.583 10.2658 14.583 12.5639C14.583 14.8619 16.4519 16.7308 18.7499 16.7308Z" fill="#AAAABE"/>
<path d="M44.7902 2.14746H13.5394C10.6688 2.14746 8.33105 4.48516 8.33105 7.35618V30.2732C8.33105 33.1442 10.6688 35.4819 13.5394 35.4819H44.7902C47.6612 35.4819 49.9989 33.1442 49.9989 30.2732V7.35618C49.9989 4.48516 47.6612 2.14746 44.7902 2.14746ZM13.5394 6.31436H44.7902C45.3654 6.31436 45.832 6.78091 45.832 7.35618V22.1461L39.2507 14.4666C38.5526 13.6479 37.5421 13.2104 36.4567 13.1856C35.3775 13.1917 34.3651 13.6708 33.6735 14.5001L25.9356 23.7876L23.4147 21.2729C21.9899 19.8481 19.6709 19.8481 18.248 21.2729L12.498 27.021V7.35618C12.498 6.78091 12.9645 6.31436 13.5394 6.31436Z" fill="#AAAABE"/>
</svg>
