<svg width="14" height="15" viewBox="0 0 14 15" fill="none" xmlns="http://www.w3.org/2000/svg">
<path d="M14 7.63839C14 7.13084 13.9606 6.62055 13.8767 6.12124H7.14103V8.99642H10.9982C10.8382 9.92372 10.3239 10.744 9.5708 11.2653V13.1309H11.872C13.2233 11.8304 14 9.91 14 7.63839Z" fill="white"/>
<path d="M7.141 14.9333C9.06696 14.9333 10.6912 14.2722 11.8746 13.1309L9.57338 11.2653C8.93314 11.7207 8.1066 11.9786 7.14362 11.9786C5.28063 11.9786 3.70103 10.6645 3.13426 8.89765H0.759601V10.8208C1.97186 13.3421 4.44097 14.9333 7.141 14.9333Z" fill="white"/>
<path d="M3.13169 8.89765C2.83256 7.97034 2.83256 6.96623 3.13169 6.03893V4.11574H0.759654C-0.253183 6.22548 -0.253235 8.71109 0.759601 10.8208L3.13169 8.89765Z" fill="white"/>
<path d="M7.141 2.95525C8.15908 2.93879 9.14305 3.33934 9.88038 4.07459L11.9192 1.9429C10.6282 0.675403 8.91477 -0.0214448 7.141 0.000503153C4.44097 0.000503153 1.97191 1.59172 0.759654 4.11574L3.13169 6.03893C3.69583 4.26937 5.27801 2.95525 7.141 2.95525Z" fill="white"/>
</svg>
