<svg width="23" height="16" viewBox="0 0 23 16" fill="none" xmlns="http://www.w3.org/2000/svg">
<path fill-rule="evenodd" clip-rule="evenodd" d="M4.29573 5.54794C4.7419 4.59112 5.16058 3.60735 5.71851 2.51415C6.02541 1.99532 6.35985 1.53037 6.97366 1.47563H16.3736C16.9874 1.53038 17.3218 1.99446 17.6287 2.51415C18.1866 3.60741 18.6053 4.59119 19.0515 5.54794H4.29573ZM8.70242 9.48304H14.6162C14.979 9.48304 15.2576 9.78372 15.2576 10.1392C15.2576 10.4668 14.979 10.7675 14.6162 10.7675H8.70242C8.368 10.7675 8.06108 10.4668 8.06108 10.1392C8.06108 9.78374 8.36798 9.48304 8.70242 9.48304ZM6.97271 0C5.96859 0 5.35476 0.355431 4.51836 1.50346L3.12395 4.59117H1.00395C0.669535 4.59117 0.0557057 6.28582 2.28746 6.34057C1.79079 7.51208 1.54385 8.77382 1.5518 10.0462C1.56188 11.66 1.56188 13.2636 1.56188 14.867C1.56188 15.3319 1.95217 15.7143 2.42673 15.7143H5.3274C5.80194 15.7143 6.16389 15.3319 6.16389 14.867V13.0089H17.1543V14.867C17.1543 15.3319 17.5446 15.7143 18.0192 15.7143H20.9198C21.3944 15.7143 21.7563 15.3319 21.7563 14.867C21.7563 13.2631 21.7704 11.6598 21.7784 10.0463C21.7847 8.77308 21.5277 7.51282 21.0307 6.34057C23.2901 6.28582 22.6487 4.59117 22.3418 4.59117H20.2218L18.8273 1.50346C17.9909 0.355452 17.3771 0 16.373 0H6.97271ZM18.632 8.2803C17.8789 8.2803 17.2375 8.88169 17.2375 9.64646C17.2375 10.3843 17.8789 11.0126 18.632 11.0126C19.4126 11.0126 20.0264 10.3843 20.0264 9.64646C20.0264 8.88167 19.4125 8.2803 18.632 8.2803ZM4.71269 8.2803C5.46579 8.2803 6.10711 8.88169 6.10711 9.64646C6.10711 10.3843 5.46577 11.0126 4.71269 11.0126C3.93209 11.0126 3.31828 10.3843 3.31828 9.64646C3.31828 8.88167 3.93211 8.2803 4.71269 8.2803Z" fill="white"/>
</svg>
