<svg width="46" height="31" viewBox="0 0 46 31" fill="none" xmlns="http://www.w3.org/2000/svg">
<path d="M31.9594 1.80278C33.6112 0.991521 34.4298 1.09798 34.4482 1.92028C34.4703 2.98849 34.3124 4.40901 34.1985 5.43685C33.5855 11.0233 32.5614 15.5883 32.4843 21.3242C35.1823 14.3395 37.4435 9.48495 40.358 3.50604C41.2831 1.6009 41.8741 1.95699 42.6339 1.61925C45.5925 0.301479 45.7027 1.10902 45.3172 2.72051C43.882 8.68916 40.2075 27.4818 39.646 30.3755C39.4844 31.2128 38.5741 30.8578 38.3391 30.5304C37.2857 29.0732 36.0964 29.0504 36.2284 28.0813C36.8892 23.2568 39.2678 11.1522 39.8882 8.30002C36.7276 14.7796 33.4497 22.8798 31.7648 27.4727C31.4087 28.448 30.759 28.3764 30.3553 27.6628C29.7863 26.6604 28.6814 26.1486 28.4978 24.9641C27.9215 21.198 29.1586 14.0194 29.331 9.47796C27.6095 14.439 24.7206 24.0706 23.4542 28.4223C22.933 30.2228 21.193 29.9291 21.6555 28.1742C23.5789 20.8712 27.7233 7.95496 29.5146 3.31147C29.9369 2.21753 31.0417 2.25423 31.9594 1.80278Z" fill="#100F15"/>
<path d="M21.4681 0.906849C20.9102 0.77106 19.2913 1.6447 18.2966 1.8172C17.9809 1.87226 17.6799 2.20627 17.5734 2.44493C15.9803 6.10466 14.5524 9.59331 13.3153 12.7714C11.7332 13.0416 9.88323 13.3973 7.81291 13.8624C9.29586 10.0584 10.7936 6.30648 12.2545 2.69815C12.9739 0.92148 11.0799 0.752646 10.3457 2.55132C9.39127 4.88963 7.60362 9.27066 5.62507 14.377C4.17144 14.7334 2.62977 15.1409 1.01828 15.6064C-0.152733 15.9444 -0.200393 16.2564 0.306182 16.9587C0.585138 17.3497 1.16145 17.3103 1.42572 17.5889C2.10851 18.311 2.52331 19.1747 3.74559 19.3054C2.65537 22.2217 1.56517 25.2292 0.577754 28.1251C-0.0425976 29.9428 1.72301 30.3146 2.40215 28.3911C3.49602 25.2904 4.64864 22.1523 5.83429 19.0234C6.8217 18.7939 9.21134 18.2793 11.4174 17.8006C9.66651 22.5997 8.51384 26.2444 8.07708 28.0185C7.99636 28.3599 8.13214 28.5493 8.20555 28.6884C8.79651 29.5485 9.35816 29.5837 10.118 30.6471C10.3236 30.9371 11.0137 31.0935 11.2486 30.3795C12.8711 25.4787 14.5413 20.8803 16.0977 16.7581C16.7437 16.6168 17.9073 16.3359 18.6194 15.2732C19.8858 13.3872 20.2492 13.7697 20.5539 13.1963C20.9357 12.4765 20.6824 11.8007 19.3316 11.9677C19.3316 11.9677 18.8214 12.004 17.878 12.1116C19.3756 8.25545 20.6861 4.98479 21.6295 2.49241C21.9526 1.64836 21.993 1.03166 21.4681 0.906849Z" fill="#100F15"/>
<path d="M19.2581 25.9167C19.6068 26.798 20.697 26.5311 20.2822 25.4674C19.86 24.3837 18.8102 21.1215 18.5349 20.0706C18.1605 18.6544 19.7829 19.0417 18.9607 19.9675C18.256 20.7636 17.786 21.0826 16.4829 22.5965C15.2239 24.0578 15.5653 25.9541 16.9124 26.373C18.4321 26.8458 19.772 25.1712 20.6015 23.9426C21.4054 22.7529 20.6272 22.0551 19.816 22.7584C19.2947 23.2107 18.6927 23.9051 18.0833 24.2796C17.5878 24.5809 17.1987 24.2572 17.8595 23.3476C18.6266 22.2945 19.4856 21.412 20.1243 20.4169C21.4274 18.3888 18.8505 17.2197 17.742 18.5371C17.1473 19.2393 17.2978 19.9287 17.4593 20.5204C17.72 21.4681 18.6891 24.4936 19.2581 25.9167Z" fill="#100F15"/>
</svg>
