<svg width="37" height="24" viewBox="0 0 37 24" fill="none" xmlns="http://www.w3.org/2000/svg">
<path d="M26.0673 0.727969C27.3887 0.0789587 28.0435 0.164128 28.0583 0.821968C28.0759 1.67654 27.9496 2.81295 27.8585 3.63522C27.3681 8.10442 26.5488 11.7564 26.4871 16.3451C28.6455 10.7573 30.4545 6.8737 32.7861 2.09057C33.5262 0.566461 33.999 0.851335 34.6068 0.581145C36.9737 -0.473074 37.0619 0.172959 36.7534 1.46215C35.6053 6.23707 32.6657 21.2712 32.2165 23.5862C32.0872 24.256 31.359 23.972 31.171 23.7101C30.3282 22.5443 29.3768 22.526 29.4824 21.7508C30.0111 17.8912 31.9139 8.20751 32.4103 5.92575C29.8818 11.1094 27.2595 17.5896 25.9115 21.2639C25.6267 22.0441 25.1069 21.9869 24.7839 21.416C24.3287 20.6141 23.4448 20.2047 23.2979 19.257C22.8369 16.2441 23.8266 10.5013 23.9645 6.86811C22.5873 10.8369 20.2762 18.5422 19.2631 22.0236C18.8461 23.464 17.4541 23.229 17.8241 21.8251C19.3629 15.9827 22.6784 5.64971 24.1114 1.93492C24.4492 1.05977 25.3331 1.08913 26.0673 0.727969Z" fill="#100F15"/>
<path d="M17.6745 0.0114164C17.2281 -0.0972141 15.9331 0.601699 15.1372 0.739694C14.8847 0.783742 14.6439 1.05095 14.5587 1.24188C13.2842 4.16967 12.1419 6.96059 11.1523 9.50308C9.88657 9.71922 8.40658 10.0038 6.75032 10.3758C7.93669 7.33263 9.13485 4.33112 10.3036 1.44446C10.8792 0.0231214 9.36391 -0.111946 8.77656 1.327C8.01301 3.19764 6.5829 6.70246 5.00006 10.7876C3.83716 11.0727 2.60381 11.3986 1.31462 11.771C0.377813 12.0415 0.339686 12.2911 0.744946 12.8529C0.96811 13.1657 1.42916 13.1341 1.64057 13.3571C2.18681 13.9347 2.51865 14.6257 3.49647 14.7302C2.6243 17.0633 1.75214 19.4693 0.962203 21.786C0.465922 23.2402 1.87841 23.5376 2.42172 21.9988C3.29682 19.5183 4.21892 17.0078 5.16743 14.5047C5.95736 14.3211 7.86907 13.9093 9.63396 13.5264C8.23321 17.3657 7.31107 20.2815 6.96167 21.7008C6.89708 21.9738 7.00571 22.1254 7.06444 22.2367C7.53721 22.9247 7.98653 22.9529 8.59442 23.8036C8.75891 24.0356 9.311 24.1607 9.4989 23.5895C10.7969 19.6689 12.133 15.9902 13.3781 12.6924C13.8949 12.5793 14.8258 12.3547 15.3955 11.5045C16.4086 9.99567 16.6994 10.3017 16.9432 9.84299C17.2486 9.26713 17.0459 8.7265 15.9653 8.86008C15.9653 8.86008 15.5571 8.88914 14.8024 8.97518C16.0005 5.8903 17.0489 3.27377 17.8036 1.27987C18.0621 0.604623 18.0944 0.111268 17.6745 0.0114164Z" fill="#100F15"/>
<path d="M15.9067 20.0195C16.1856 20.7245 17.0578 20.511 16.726 19.6601C16.3882 18.7931 15.5484 16.1834 15.3281 15.3426C15.0286 14.2097 16.3265 14.5195 15.6687 15.2601C15.105 15.897 14.729 16.1522 13.6866 17.3633C12.6793 18.5324 12.9524 20.0495 14.0302 20.3845C15.2459 20.7627 16.3178 19.4231 16.9814 18.4402C17.6245 17.4885 17.0019 16.9302 16.353 17.4929C15.936 17.8547 15.4544 18.4102 14.9669 18.7098C14.5704 18.9509 14.2591 18.6919 14.7878 17.9642C15.4015 17.1217 16.0887 16.4158 16.5996 15.6196C17.6421 13.9971 15.5806 13.0619 14.6938 14.1158C14.218 14.6776 14.3384 15.2291 14.4676 15.7024C14.6762 16.4606 15.4514 18.881 15.9067 20.0195Z" fill="#100F15"/>
</svg>
