<svg width="121" height="120" viewBox="0 0 121 120" fill="none" xmlns="http://www.w3.org/2000/svg">
<path fill-rule="evenodd" clip-rule="evenodd" d="M55.9313 4.6338L55.9615 5.50516L59.4815 5.38285L59.4539 4.58826L58.8858 4.608L58.2831 4.62894L57.5385 4.65482L56.836 4.67923L56.8285 4.46427L56.7961 3.53149L56.737 1.831L56.7041 0.882873L56.6734 0L55.7713 0.0313461L55.802 0.914219L55.835 1.86235L55.899 3.70487L55.9313 4.6338ZM52.3814 6.02304C51.9097 6.08888 51.4885 6.07141 51.1176 5.97063C50.7493 5.8695 50.4315 5.70443 50.1643 5.47543C49.8996 5.24608 49.6866 4.97072 49.5254 4.64936C49.3642 4.328 49.2575 3.97965 49.2051 3.60432C49.1318 3.07937 49.1709 2.59044 49.3222 2.13755C49.4758 1.68177 49.7394 1.30112 50.113 0.995599C50.4888 0.687192 50.9747 0.491399 51.5706 0.408218C52.022 0.345214 52.429 0.362096 52.7915 0.458864C53.1566 0.555278 53.4726 0.716717 53.7395 0.94318C54.0085 1.16675 54.2251 1.44031 54.3892 1.76386C54.5533 2.0874 54.6626 2.44445 54.7171 2.83499C54.7918 3.37009 54.7522 3.86426 54.5983 4.31751C54.4443 4.77076 54.1804 5.14887 53.8064 5.45185C53.4347 5.75195 52.9597 5.94234 52.3814 6.02304ZM52.2573 5.2725C52.5692 5.22897 52.8315 5.13548 53.0442 4.99204C53.2569 4.84859 53.4246 4.67006 53.5473 4.45644C53.67 4.24282 53.7497 4.00806 53.7864 3.75216C53.8256 3.4959 53.8264 3.23336 53.7889 2.96454C53.7486 2.67544 53.6717 2.4121 53.5584 2.17455C53.4451 1.93699 53.298 1.73518 53.1171 1.5691C52.9388 1.40267 52.7295 1.28322 52.4893 1.21075C52.2487 1.13574 51.9801 1.11894 51.6834 1.16035C51.3765 1.20318 51.1166 1.29505 50.9035 1.43595C50.6905 1.57686 50.5201 1.75448 50.3923 1.9688C50.2671 2.18278 50.1835 2.41807 50.1418 2.67469C50.1001 2.9313 50.0985 3.19782 50.1371 3.47424C50.1753 3.74813 50.2483 4.00294 50.3562 4.23867C50.4641 4.4744 50.6063 4.67819 50.7828 4.85004C50.9615 5.01901 51.1741 5.14318 51.4204 5.22255C51.6664 5.29939 51.9454 5.31604 52.2573 5.2725ZM44.5582 7.46546C44.9386 7.52029 45.3588 7.48629 45.819 7.36347C46.3831 7.2129 46.8313 6.96604 47.1638 6.62288C47.498 6.27658 47.7139 5.86912 47.8115 5.4005C47.909 4.93187 47.8881 4.43655 47.7487 3.91454C47.647 3.53355 47.4951 3.19249 47.2928 2.89135C47.0905 2.59021 46.8422 2.34509 46.5479 2.15597C46.2554 1.96372 45.9221 1.84199 45.548 1.79078C45.1763 1.73891 44.7704 1.77175 44.33 1.8893C43.7486 2.04448 43.2902 2.29803 42.9548 2.64993C42.6212 2.9987 42.406 3.40864 42.3091 3.87974C42.214 4.3477 42.2349 4.83774 42.3715 5.34985C42.4693 5.716 42.6177 6.04874 42.8169 6.34806C43.016 6.64738 43.261 6.89474 43.5516 7.09013C43.8448 7.28485 44.1803 7.40996 44.5582 7.46546ZM46.3512 6.25938C46.1576 6.42766 45.9086 6.55242 45.6043 6.63365C45.3 6.71487 45.0211 6.73234 44.7676 6.68605C44.5134 6.63729 44.2873 6.53995 44.0893 6.39402C43.8932 6.24496 43.7272 6.06002 43.5914 5.83919C43.4556 5.61837 43.3521 5.37436 43.2807 5.10717C43.2088 4.83751 43.1778 4.57278 43.188 4.31299C43.1982 4.05321 43.2524 3.80949 43.3506 3.58185C43.4514 3.35354 43.5989 3.15648 43.7931 2.99067C43.9874 2.82485 44.2342 2.70199 44.5335 2.62209C44.823 2.54483 45.0917 2.52876 45.3396 2.5739C45.5869 2.61656 45.8091 2.70961 46.0064 2.85306C46.2062 2.99586 46.3768 3.17824 46.5182 3.40022C46.6596 3.6222 46.768 3.87421 46.8433 4.15624C46.9133 4.41848 46.9444 4.67917 46.9367 4.93829C46.9315 5.19676 46.881 5.43948 46.7852 5.66647C46.6895 5.89345 46.5448 6.09109 46.3512 6.25938ZM38.5617 9.75963L38.2432 8.948L37.9036 8.08275L37.2287 6.36296L36.8836 5.4834L36.5608 4.66105L37.0614 4.46462L37.6764 4.22328L38.37 3.95108C38.7681 3.79487 39.12 3.71039 39.4259 3.69765C39.7308 3.68253 39.9918 3.75199 40.2091 3.90605C40.4254 4.05772 40.6018 4.30757 40.7384 4.65558C40.8497 4.93923 40.8952 5.21983 40.8748 5.49739C40.8568 5.77402 40.7496 6.03341 40.5531 6.27558C40.4456 6.40604 40.3044 6.52614 40.1294 6.63589L40.9383 7.13115L41.5137 7.48299C41.7164 7.60699 41.9142 7.72883 42.1069 7.84849C42.3021 7.96721 42.4742 8.07295 42.6234 8.1657L41.6544 8.54594C41.4196 8.39605 41.1927 8.25263 40.974 8.11568C40.7566 7.97541 40.5435 7.83897 40.3347 7.70637L39.4533 7.14451L38.6137 7.474L38.726 7.76003L39.0655 8.62529L39.384 9.43691L38.5617 9.75963ZM39.1252 6.48521L38.3457 6.79109L38.1016 6.16896L37.762 5.30371L37.6512 5.02125L38.6094 4.64521C38.7191 4.60218 38.8344 4.56656 38.9553 4.53835C39.0763 4.51013 39.1952 4.50473 39.3121 4.52214C39.4313 4.53861 39.5422 4.58998 39.6448 4.67624C39.7475 4.7625 39.8357 4.89978 39.9096 5.08809C40.0004 5.3193 40.0299 5.52087 39.9984 5.69279C39.9692 5.86378 39.881 6.01394 39.7337 6.14326C39.5878 6.26927 39.385 6.38325 39.1252 6.48521ZM34.4095 11.6483C34.7844 11.6083 35.1659 11.4868 35.5539 11.2838C35.6878 11.2138 35.8181 11.137 35.9448 11.0533C36.0716 10.9697 36.1913 10.881 36.3042 10.7873C36.417 10.6937 36.52 10.595 36.6131 10.4914C36.7051 10.3855 36.7851 10.2786 36.853 10.1709L36.4069 9.45059C36.3394 9.58125 36.2643 9.70288 36.1816 9.81549C36.1012 9.92691 36.0126 10.0282 35.9157 10.1193C35.8212 10.2092 35.7213 10.2918 35.6162 10.367C35.5121 10.4388 35.4033 10.5043 35.2899 10.5636C34.9972 10.7167 34.7148 10.8038 34.4426 10.8248C34.1692 10.8435 33.9148 10.8075 33.6795 10.7168C33.443 10.6237 33.2298 10.4868 33.0398 10.3058C32.8509 10.1215 32.6905 9.90334 32.5588 9.65148C32.3606 9.27257 32.2618 8.90959 32.2623 8.56254C32.2628 8.2155 32.3511 7.9035 32.527 7.62656C32.7017 7.34734 32.9501 7.12347 33.2723 6.95495C33.4198 6.8778 33.5801 6.81417 33.7533 6.76405C33.9253 6.71166 34.1113 6.67504 34.3114 6.65421C34.5114 6.63337 34.7267 6.63058 34.9572 6.64584L34.63 5.85467C34.5154 5.85104 34.3879 5.85853 34.2473 5.87713C34.1056 5.89346 33.9561 5.91968 33.7987 5.95577C33.6423 5.9884 33.4828 6.03427 33.3201 6.09336C33.1562 6.15019 32.9949 6.22014 32.8361 6.30321C32.3437 6.56074 31.9724 6.89223 31.7221 7.29767C31.4718 7.70311 31.3459 8.1475 31.3444 8.63086C31.343 9.11421 31.4698 9.5998 31.725 10.0876C31.916 10.4529 32.1495 10.7585 32.4255 11.0043C32.7014 11.25 33.007 11.4283 33.3423 11.539C33.6777 11.6497 34.0334 11.6861 34.4095 11.6483ZM29.7919 14.6482C29.6014 14.7733 29.3965 14.8835 29.1771 14.9786C28.9613 15.0744 28.752 15.1522 28.5492 15.212C28.3485 15.2703 28.1799 15.3075 28.0435 15.3236L27.6426 14.5806C27.8451 14.567 28.0441 14.5389 28.2397 14.4961C28.436 14.4499 28.6257 14.3911 28.8087 14.3199C28.9924 14.2451 29.1645 14.155 29.325 14.0496C29.5005 13.9343 29.6419 13.8091 29.7494 13.6742C29.8554 13.5371 29.9153 13.3952 29.929 13.2482C29.9435 13.0978 29.9002 12.9455 29.7989 12.7914C29.7019 12.6438 29.5779 12.5506 29.4269 12.512C29.278 12.4719 29.098 12.4707 28.8868 12.5084C28.6742 12.5439 28.4309 12.6026 28.157 12.6846C27.8126 12.7853 27.5035 12.8489 27.2299 12.8755C26.9549 12.8999 26.7105 12.866 26.4966 12.7736C26.2849 12.6799 26.0947 12.5046 25.9259 12.2478C25.7628 11.9996 25.674 11.7409 25.6595 11.4716C25.6471 11.2009 25.7184 10.9365 25.8736 10.6783C26.0294 10.4166 26.2786 10.1732 26.6209 9.94824C26.7579 9.85825 26.9012 9.77789 27.0508 9.70716C27.2026 9.63502 27.3521 9.57352 27.4995 9.52266C27.6475 9.46825 27.7874 9.42693 27.919 9.39869C28.0505 9.37045 28.1689 9.35242 28.2741 9.3446L28.6664 10.0887C28.4783 10.0867 28.2914 10.1053 28.1057 10.1446C27.9208 10.1803 27.7469 10.2302 27.5838 10.2945C27.4215 10.3552 27.2793 10.4256 27.1573 10.5058C27.0011 10.6084 26.8725 10.7251 26.7715 10.8558C26.6705 10.9865 26.6106 11.1239 26.5919 11.268C26.5718 11.4099 26.6081 11.5514 26.7009 11.6927C26.7853 11.8211 26.8905 11.9066 27.0167 11.9494C27.1428 11.9921 27.3022 11.9992 27.4948 11.9707C27.6875 11.9421 27.9244 11.8876 28.2054 11.8071C28.6473 11.6822 29.0135 11.6101 29.3041 11.5907C29.5933 11.5692 29.8345 11.6099 30.0277 11.7127C30.2231 11.8142 30.4002 11.9858 30.5591 12.2276C30.7292 12.4866 30.8226 12.7546 30.8392 13.0317C30.8579 13.3073 30.7833 13.5831 30.6153 13.859C30.4494 14.1334 30.1749 14.3965 29.7919 14.6482ZM22.2223 18.0042C22.3197 17.9827 22.4133 17.9319 22.5032 17.8519C22.641 17.7293 22.7123 17.5938 22.7173 17.4454C22.7206 17.2951 22.667 17.1577 22.5563 17.0334C22.4831 16.9512 22.4012 16.8938 22.3106 16.8613C22.22 16.8288 22.1269 16.8243 22.0312 16.8478C21.9338 16.8693 21.8402 16.9201 21.7503 17.0001C21.6164 17.1193 21.5433 17.2528 21.5311 17.4008C21.5207 17.5472 21.5717 17.6834 21.6841 17.8097C21.759 17.8938 21.8426 17.9531 21.9349 17.9875C22.0274 18.0183 22.1232 18.0239 22.2223 18.0042ZM16.5048 26.9955L15.8329 26.44L15.1165 25.8477L13.6957 24.6729L12.9645 24.0684L12.2837 23.5055L12.7927 22.8897C13.3168 22.931 13.8171 22.9709 14.2936 23.0093C14.7718 23.0459 15.2455 23.0837 15.7148 23.1229L17.5837 23.2676L17.6302 23.2114L16.011 21.8726L15.2798 21.2681L14.599 20.7052L15.1399 20.051L15.8207 20.6139L16.5518 21.2184L17.9727 22.3932L18.6891 22.9855L19.361 23.541L18.8593 24.1479C18.4267 24.1125 17.9723 24.0774 17.4962 24.0425C17.0196 24.004 16.4974 23.9626 15.9294 23.9182L14.0438 23.7696L13.9997 23.8229L15.6574 25.1935L16.3738 25.7858L17.0457 26.3413L16.5048 26.9955ZM11.9212 32.3227C12.2294 32.4155 12.5179 32.5035 12.7867 32.5865L13.3661 31.6759C13.1226 31.4148 12.8634 31.1376 12.5887 30.8444C12.3117 30.5498 12.0519 30.2737 11.8091 30.0161L10.3995 28.5182L10.4407 28.4534L12.4009 29.086C12.7385 29.1946 13.0983 29.3112 13.4803 29.4359C13.8615 29.5571 14.2248 29.6729 14.5703 29.7835L15.1744 28.834C14.9931 28.6276 14.7955 28.4063 14.5816 28.17C14.367 27.9303 14.1654 27.7033 13.9768 27.4893L12.7804 26.1499C12.5722 25.9142 12.3437 25.6581 12.0949 25.3814C11.8474 25.1025 11.6105 24.838 11.3843 24.5878L10.8441 25.4368C11.1006 25.7063 11.3742 25.9942 11.6648 26.3005C11.9569 26.6047 12.2312 26.8915 12.4877 27.1609L13.9787 28.7242L13.9374 28.789L11.8994 28.1069C11.5332 27.9861 11.1536 27.86 10.7609 27.7284L9.62757 27.3488L9.08942 28.1946C9.26088 28.3735 9.44108 28.5625 9.63002 28.7616L10.201 29.3525C10.3913 29.5495 10.5711 29.7367 10.7404 29.9142L12.2343 31.4657L12.1931 31.5305L10.1734 30.8555C9.81201 30.7318 9.43101 30.6031 9.03036 30.4696C8.62972 30.3361 8.24803 30.2086 7.88529 30.087L7.34302 30.9393C7.66118 31.0355 8.00114 31.138 8.36289 31.2468C8.72465 31.3556 9.05675 31.4561 9.35919 31.5484L11.0655 32.065L11.9212 32.3227ZM10.4969 37.3128C10.2984 37.7458 10.0568 38.0913 9.77216 38.3496C9.48861 38.6055 9.1784 38.7843 8.84154 38.8862C8.50574 38.9857 8.15904 39.0169 7.80145 38.9797C7.44386 38.9425 7.09282 38.8449 6.74835 38.6869C6.26655 38.466 5.8756 38.1698 5.57549 37.7983C5.27413 37.4235 5.09532 36.9964 5.03906 36.5171C4.98155 36.0344 5.07821 35.5195 5.32904 34.9725C5.51904 34.5582 5.75241 34.2244 6.02918 33.971C6.30701 33.7153 6.61319 33.536 6.94773 33.4331C7.28101 33.3267 7.62814 33.2916 7.98913 33.3275C8.35012 33.3635 8.70983 33.4636 9.06827 33.628C9.55938 33.8532 9.95445 34.1527 10.2535 34.5265C10.5525 34.9002 10.729 35.3263 10.7829 35.8045C10.8356 36.2794 10.7403 36.7822 10.4969 37.3128ZM9.79761 37.0133C9.9289 36.727 9.99136 36.4556 9.98502 36.1992C9.97867 35.9428 9.91854 35.7053 9.80462 35.4869C9.6907 35.2684 9.5358 35.0749 9.33992 34.9062C9.1451 34.7351 8.92433 34.593 8.67761 34.4799C8.41228 34.3582 8.14901 34.2811 7.88783 34.2487C7.62664 34.2163 7.37737 34.2315 7.14003 34.2945C6.90375 34.3552 6.6904 34.4672 6.49997 34.6306C6.30722 34.7929 6.1484 35.0102 6.02352 35.2826C5.89437 35.5642 5.83181 35.8327 5.83583 36.0881C5.83985 36.3434 5.89775 36.5827 6.00953 36.8058C6.12238 37.0266 6.27568 37.2236 6.46943 37.397C6.66318 37.5703 6.8869 37.7152 7.1406 37.8315C7.39198 37.9468 7.64603 38.0225 7.90275 38.0585C8.15947 38.0945 8.40777 38.0845 8.64764 38.0282C8.88624 37.9687 9.10532 37.8564 9.30486 37.6916C9.50207 37.5257 9.66632 37.2996 9.79761 37.0133ZM6.69779 44.7099L7.52607 44.9822L7.70358 44.4422L7.88349 43.8948L8.0826 43.2891C8.24652 42.7905 8.31876 42.3452 8.29931 41.9534C8.27987 41.5616 8.18573 41.2206 8.01691 40.9306C7.84888 40.6382 7.62275 40.3914 7.3385 40.1901C7.05262 39.9856 6.72603 39.823 6.35871 39.7023C5.95004 39.568 5.56799 39.5044 5.21254 39.5115C4.8579 39.5162 4.53471 39.5892 4.24298 39.7305C3.94882 39.871 3.6934 40.0782 3.47672 40.352C3.25841 40.6225 3.08368 40.9573 2.95255 41.3562L2.73905 42.0057L2.53035 42.6406L2.32285 43.2718L3.16208 43.5477L4.06334 43.8439L5.81477 44.4197L6.69779 44.7099ZM7.38322 43.0552L7.10736 43.8944L6.54179 43.7085L5.91054 43.501L4.52399 43.0452L3.88545 42.8353L3.30529 42.6446L3.60394 41.7361C3.70469 41.4296 3.83524 41.18 3.99558 40.9875C4.15591 40.7949 4.34238 40.654 4.55497 40.5649C4.76512 40.4749 4.99694 40.4339 5.25042 40.4417C5.50147 40.4488 5.76808 40.4987 6.05026 40.5914C6.42001 40.713 6.73164 40.8801 6.98517 41.0928C7.23869 41.3056 7.4054 41.5733 7.48528 41.896C7.56517 42.2188 7.53115 42.6052 7.38322 43.0552ZM6.0085 52.1914L5.15024 52.0379L4.23526 51.8743L2.42044 51.5496L1.48656 51.3826L0.616953 51.2271L0.775882 50.3385L1.64549 50.4941L2.57937 50.6611L4.2543 50.9607L5.17306 51.1251L5.38479 51.1629L5.50855 50.471L5.63975 49.7375L5.74593 49.144L5.84602 48.5844L6.62866 48.7244L6.0085 52.1914ZM5.41178 57.3101C5.58701 56.9681 5.69114 56.5595 5.72419 56.0844C5.7647 55.5019 5.67655 54.9979 5.45975 54.5721C5.24058 54.1436 4.92516 53.8072 4.51349 53.563C4.10183 53.3187 3.6265 53.1779 3.08752 53.1404C2.69414 53.113 2.32221 53.1462 1.97175 53.2399C1.62128 53.3336 1.30888 53.489 1.03453 53.706C0.757814 53.9204 0.534573 54.1962 0.364808 54.5334C0.195221 54.8682 0.0946146 55.2629 0.0629901 55.7176C0.0212386 56.3178 0.112416 56.8337 0.336522 57.2651C0.558252 57.6938 0.876227 58.0303 1.29045 58.2747C1.70229 58.5164 2.17259 58.6557 2.70136 58.6924C3.07942 58.7187 3.44231 58.6862 3.79004 58.5949C4.13778 58.5036 4.45119 58.3521 4.73029 58.1405C5.00956 57.9264 5.23672 57.6496 5.41178 57.3101ZM4.85236 55.2229C4.94877 55.4606 4.98604 55.7366 4.96419 56.0507C4.94234 56.3649 4.86841 56.6344 4.7424 56.8593C4.61384 57.0839 4.44844 57.2662 4.24619 57.4061C4.04157 57.5433 3.8128 57.6404 3.55987 57.6972C3.30694 57.754 3.04253 57.7729 2.76665 57.7537C2.48822 57.7343 2.22778 57.6777 1.98533 57.5838C1.74288 57.49 1.52992 57.3597 1.34644 57.1929C1.16314 57.0236 1.02457 56.8201 0.930717 56.5826C0.836867 56.3451 0.80069 56.0717 0.822188 55.7627C0.842975 55.4638 0.914917 55.2044 1.03802 54.9845C1.15856 54.7645 1.31867 54.5844 1.51836 54.4443C1.71823 54.3016 1.94608 54.1994 2.20192 54.1376C2.45776 54.0758 2.73129 54.0551 3.02249 54.0753C3.29326 54.0941 3.54996 54.1492 3.79259 54.2405C4.03539 54.3293 4.24862 54.4558 4.43227 54.62C4.61593 54.7842 4.75596 54.9852 4.85236 55.2229ZM114.456 61.936C114.465 61.7083 114.496 61.4776 114.547 61.244C114.595 61.0128 114.654 60.7975 114.724 60.598C114.794 60.4011 114.862 60.2425 114.929 60.1223L115.766 60.2309C115.659 60.4032 115.565 60.5812 115.486 60.7649C115.409 60.9513 115.345 61.1396 115.296 61.3297C115.25 61.5225 115.222 61.7148 115.214 61.9067C115.205 62.1165 115.224 62.3044 115.271 62.4704C115.32 62.6365 115.401 62.7681 115.512 62.8651C115.625 62.9647 115.774 63.0185 115.959 63.0263C116.135 63.0338 116.283 62.9875 116.403 62.8875C116.522 62.7901 116.628 62.6447 116.721 62.4513C116.817 62.258 116.911 62.0262 117.004 61.7559C117.124 61.4176 117.253 61.1296 117.391 60.892C117.532 60.6545 117.702 60.4759 117.902 60.3563C118.102 60.2392 118.355 60.1871 118.662 60.2002C118.959 60.2128 119.221 60.2918 119.448 60.4373C119.675 60.5853 119.848 60.7977 119.967 61.0744C120.088 61.3538 120.14 61.6982 120.123 62.1075C120.116 62.2712 120.097 62.4345 120.067 62.5972C120.037 62.7625 120 62.9199 119.955 63.0692C119.913 63.2211 119.864 63.3588 119.811 63.4821C119.757 63.6054 119.702 63.712 119.647 63.8019L118.814 63.6858C118.925 63.5342 119.019 63.3716 119.096 63.198C119.175 63.0271 119.236 62.8567 119.279 62.6868C119.325 62.5196 119.351 62.363 119.357 62.2172C119.365 62.0305 119.345 61.8579 119.298 61.6996C119.251 61.5412 119.174 61.4124 119.068 61.3131C118.965 61.2139 118.829 61.1607 118.66 61.1535C118.507 61.147 118.376 61.1824 118.267 61.2598C118.159 61.3372 118.06 61.4625 117.971 61.6355C117.881 61.8086 117.787 62.0327 117.688 62.3078C117.532 62.7394 117.376 63.0788 117.222 63.326C117.071 63.5733 116.897 63.7453 116.701 63.842C116.504 63.9413 116.261 63.9848 115.972 63.9726C115.663 63.9594 115.391 63.8787 115.156 63.7303C114.921 63.5845 114.741 63.3628 114.615 63.0653C114.489 62.7704 114.436 62.3939 114.456 61.936ZM113.794 68.7003C113.856 68.2669 113.98 67.8864 114.167 67.5588C114.356 67.2315 114.594 66.9642 114.88 66.7569C115.165 66.5496 115.489 66.4059 115.849 66.3257C116.21 66.2455 116.595 66.2347 117.003 66.2933C117.548 66.3715 118.016 66.5524 118.407 66.8362C118.798 67.12 119.085 67.4819 119.268 67.922C119.45 68.3621 119.502 68.8572 119.423 69.4072C119.398 69.5846 119.36 69.7564 119.311 69.9226C119.263 70.0892 119.207 70.2454 119.142 70.3913C119.08 70.5401 119.014 70.6767 118.944 70.8013C118.877 70.9262 118.808 71.034 118.738 71.1249L117.905 70.9277C118.052 70.7497 118.176 70.5734 118.276 70.3989C118.376 70.2244 118.455 70.0521 118.513 69.8819C118.574 69.7121 118.616 69.5449 118.64 69.3801C118.691 69.0202 118.655 68.6877 118.53 68.3828C118.409 68.0781 118.207 67.8242 117.926 67.6208C117.645 67.4175 117.292 67.2855 116.869 67.2247C116.588 67.1844 116.317 67.1869 116.057 67.2324C115.799 67.2808 115.563 67.3737 115.35 67.5111C115.138 67.649 114.96 67.8343 114.816 68.067C114.674 68.3002 114.579 68.5802 114.532 68.9072C114.514 69.0339 114.504 69.1605 114.501 69.2868C114.501 69.4161 114.509 69.5454 114.527 69.6747C114.544 69.8065 114.575 69.9376 114.618 70.068C114.661 70.2009 114.716 70.333 114.782 70.4641L113.937 70.4049C113.889 70.2868 113.849 70.1595 113.817 70.023C113.788 69.8868 113.768 69.7456 113.758 69.5993C113.748 69.4529 113.746 69.3039 113.752 69.1522C113.758 69.0005 113.772 68.8499 113.794 68.7003ZM114.118 72.1798L113.273 71.9646L113.055 72.8206L113.9 73.0359L114.8 73.2653L115.098 73.3412L114.876 74.2152L113.905 74.6028C113.675 74.6949 113.44 74.7883 113.199 74.8828C112.96 74.9805 112.712 75.0809 112.453 75.1841L112.196 76.1928C112.358 76.1258 112.544 76.0478 112.755 75.9586C112.964 75.872 113.179 75.7826 113.398 75.6904L114.019 75.4287L114.894 75.0611C114.881 75.2672 114.896 75.452 114.939 75.6154C115.021 75.9163 115.169 76.1548 115.383 76.3309C115.596 76.5095 115.851 76.6364 116.146 76.7116C116.508 76.8039 116.814 76.8065 117.064 76.7195C117.316 76.633 117.524 76.4616 117.69 76.2052C117.858 75.9495 117.995 75.6144 118.101 75.2001L118.285 74.478L118.448 73.8378L118.58 73.3167L117.724 73.0986L116.809 72.8654L115.019 72.4093L114.118 72.1798ZM115.809 73.5223L115.602 74.3337C115.533 74.6042 115.508 74.8354 115.525 75.0274C115.544 75.2225 115.614 75.3818 115.736 75.5053C115.857 75.6313 116.038 75.7249 116.279 75.7862C116.475 75.8362 116.638 75.8447 116.768 75.8117C116.898 75.7788 117.004 75.7187 117.087 75.6315C117.169 75.5468 117.234 75.4471 117.282 75.3324C117.33 75.2177 117.368 75.1033 117.397 74.9892L117.652 73.9917L117.357 73.9168L116.457 73.6873L115.809 73.5223ZM110.88 79.4729C111.051 79.0282 111.27 78.668 111.537 78.3922C111.804 78.1189 112.102 77.9207 112.432 77.7976C112.761 77.677 113.105 77.6239 113.464 77.6383C113.823 77.6528 114.18 77.7279 114.534 77.8637C115.029 78.0536 115.438 78.3244 115.761 78.676C116.085 79.031 116.291 79.4459 116.377 79.9207C116.465 80.3988 116.401 80.9187 116.186 81.4805C116.023 81.906 115.811 82.254 115.551 82.5244C115.29 82.7972 114.995 82.9956 114.668 83.1196C114.342 83.2469 113.998 83.304 113.636 83.291C113.273 83.278 112.908 83.2009 112.54 83.0596C112.035 82.866 111.622 82.5922 111.3 82.2382C110.978 81.8841 110.774 81.4702 110.69 80.9963C110.607 80.5257 110.671 80.0179 110.88 79.4729ZM111.597 79.7274C111.484 80.0215 111.439 80.2962 111.461 80.5518C111.484 80.8073 111.559 81.0404 111.687 81.2512C111.814 81.462 111.981 81.6453 112.187 81.8013C112.393 81.9596 112.622 82.0874 112.875 82.1847C113.148 82.2892 113.415 82.3494 113.678 82.3653C113.941 82.3811 114.189 82.35 114.422 82.2721C114.654 82.1965 114.859 82.0712 115.039 81.8961C115.221 81.7218 115.366 81.4949 115.473 81.2152C115.584 80.9259 115.63 80.654 115.609 80.3994C115.589 80.1448 115.516 79.9097 115.39 79.6941C115.264 79.481 115.098 79.294 114.894 79.1333C114.69 78.9726 114.457 78.8422 114.197 78.7422C113.938 78.6431 113.68 78.5838 113.422 78.5641C113.163 78.5444 112.916 78.5702 112.68 78.6415C112.446 78.7162 112.234 78.8421 112.046 79.0192C111.859 79.1973 111.71 79.4334 111.597 79.7274ZM108.972 84.385C108.674 84.627 108.413 84.9586 108.191 85.3798C107.919 85.8961 107.795 86.3928 107.822 86.8698C107.849 87.3504 108.001 87.7855 108.279 88.1754C108.557 88.5652 108.935 88.8862 109.413 89.1384C109.761 89.3224 110.115 89.4424 110.473 89.4984C110.832 89.5544 111.18 89.5386 111.519 89.451C111.859 89.3668 112.174 89.2048 112.466 88.9649C112.756 88.7273 113.008 88.407 113.221 88.0039C113.502 87.4717 113.627 86.9631 113.596 86.4779C113.567 85.9961 113.412 85.5598 113.132 85.1688C112.853 84.7812 112.479 84.4637 112.01 84.2163C111.675 84.0395 111.33 83.9225 110.975 83.8654C110.62 83.8084 110.272 83.8202 109.931 83.9009C109.589 83.9839 109.27 84.1452 108.972 84.385ZM108.64 86.5202C108.648 86.2638 108.726 85.9963 108.873 85.7178C109.02 85.4392 109.196 85.2226 109.402 85.0679C109.611 84.9144 109.836 84.8146 110.077 84.7683C110.32 84.7256 110.568 84.7293 110.823 84.7796C111.077 84.8298 111.326 84.9195 111.571 85.0486C111.818 85.1788 112.033 85.3359 112.217 85.5198C112.401 85.7036 112.543 85.9089 112.643 86.1356C112.743 86.3646 112.787 86.6067 112.777 86.8619C112.767 87.1171 112.689 87.3817 112.545 87.6557C112.405 87.9207 112.234 88.1288 112.033 88.2802C111.833 88.4327 111.614 88.5327 111.375 88.5801C111.134 88.6298 110.885 88.6312 110.626 88.5843C110.367 88.5374 110.108 88.4458 109.85 88.3095C109.61 88.1828 109.397 88.0287 109.212 87.8471C109.026 87.6677 108.882 87.4659 108.781 87.2414C108.679 87.017 108.632 86.7766 108.64 86.5202ZM106.376 88.7826L107.099 89.2694L107.87 89.7883L109.4 90.8176L110.187 91.3472L110.92 91.8404L110.416 92.5893L109.683 92.0961L108.896 91.5664L107.484 90.6165L106.71 90.0954L106.531 89.9753L106.139 90.5585L105.723 91.1767L105.386 91.677L105.069 92.1486L104.409 91.7047L106.376 88.7826ZM102.694 95.3704L102.045 94.7884L101.665 95.2117L101.281 95.6407L100.855 96.1154C100.505 96.5062 100.26 96.885 100.12 97.2516C99.9808 97.6183 99.93 97.9683 99.9682 98.3017C100.005 98.637 100.113 98.9539 100.292 99.2523C100.472 99.5544 100.706 99.8345 100.993 100.093C101.314 100.38 101.638 100.591 101.966 100.728C102.293 100.866 102.618 100.929 102.942 100.916C103.268 100.906 103.585 100.819 103.894 100.655C104.202 100.495 104.497 100.259 104.777 99.946L105.233 99.4369L105.68 98.9393L106.123 98.4446L105.465 97.8549L104.759 97.2216L103.386 95.9909L102.694 95.3704ZM101.402 96.6105L101.992 95.9528L102.435 96.3502L102.93 96.7937L104.016 97.768L104.517 98.2167L104.971 98.6244L104.333 99.3365C104.118 99.5767 103.898 99.7528 103.674 99.8648C103.45 99.9767 103.222 100.031 102.992 100.027C102.763 100.025 102.534 99.9695 102.305 99.8605C102.078 99.7533 101.854 99.6005 101.633 99.4022C101.343 99.1424 101.125 98.8642 100.978 98.5675C100.831 98.2709 100.786 97.9588 100.843 97.6311C100.899 97.3034 101.086 96.9632 101.402 96.6105ZM96.1179 100.718C96.4736 100.402 96.8337 100.182 97.1981 100.06C97.5606 99.94 97.9166 99.9009 98.266 99.943C98.6135 99.9868 98.9435 100.098 99.2559 100.275C99.5684 100.453 99.8506 100.684 100.103 100.967C100.455 101.363 100.694 101.791 100.819 102.252C100.945 102.716 100.937 103.179 100.796 103.641C100.654 104.106 100.359 104.538 99.9095 104.938C99.569 105.241 99.2211 105.453 98.8659 105.574C98.5087 105.697 98.1563 105.738 97.8086 105.697C97.4607 105.661 97.1287 105.554 96.8126 105.376C96.4965 105.198 96.2073 104.961 95.9452 104.667C95.586 104.263 95.3446 103.83 95.2209 103.368C95.0973 102.905 95.1069 102.444 95.2498 101.985C95.3924 101.529 95.6818 101.107 96.1179 100.718ZM96.6378 101.274C96.4025 101.483 96.2363 101.707 96.139 101.944C96.0418 102.181 96.0014 102.423 96.0179 102.669C96.0345 102.914 96.0985 103.154 96.2101 103.387C96.3197 103.622 96.4648 103.841 96.6452 104.044C96.8393 104.262 97.0494 104.438 97.2755 104.573C97.5017 104.707 97.736 104.794 97.9787 104.831C98.2194 104.871 98.4598 104.854 98.6999 104.781C98.9416 104.71 99.1744 104.575 99.3981 104.375C99.6296 104.169 99.7948 103.949 99.8937 103.713C99.9927 103.478 100.036 103.235 100.023 102.986C100.009 102.739 99.9473 102.497 99.8396 102.26C99.7318 102.023 99.5852 101.801 99.3996 101.592C99.2158 101.386 99.0136 101.214 98.793 101.078C98.5724 100.942 98.341 100.851 98.0987 100.807C97.8563 100.765 97.6106 100.78 97.3616 100.851C97.1143 100.923 96.8731 101.064 96.6378 101.274ZM92.9676 104.577C92.7224 104.368 92.4932 104.172 92.2801 103.988L91.3847 104.591C91.5033 104.928 91.6298 105.286 91.7643 105.664C91.9002 106.045 92.0278 106.402 92.1471 106.735L92.8394 108.672L92.7756 108.715L91.2325 107.351C90.9666 107.116 90.6836 106.865 90.3835 106.598C90.0826 106.335 89.796 106.083 89.5237 105.843L88.59 106.472C88.6735 106.733 88.766 107.015 88.8675 107.317C88.9682 107.623 89.0621 107.912 89.1492 108.183L89.7095 109.89C89.806 110.189 89.9128 110.515 90.0301 110.868C90.1453 111.223 90.2565 111.56 90.3637 111.88L91.1985 111.318C91.0713 110.968 90.9358 110.595 90.7921 110.198C90.6462 109.802 90.5097 109.43 90.3825 109.08L89.6418 107.051L89.7056 107.008L91.3001 108.449C91.5874 108.706 91.8848 108.974 92.192 109.251L93.0786 110.053L93.9103 109.493C93.8248 109.261 93.7353 109.015 93.6419 108.757L93.3552 107.987C93.2596 107.731 93.1698 107.487 93.0857 107.257L92.3377 105.237L92.4014 105.194L93.9821 106.621C94.2637 106.879 94.5614 107.149 94.8751 107.432C95.1888 107.715 95.4875 107.984 95.7713 108.241L96.6094 107.677C96.3563 107.461 96.0858 107.231 95.7978 106.987C95.5099 106.743 95.2458 106.517 95.0055 106.312L93.6487 105.155L92.9676 104.577ZM86.4717 107.705L86.8643 108.484L87.2829 109.314L88.1131 110.96L88.5403 111.807L88.9381 112.596L88.2248 112.955C87.7613 112.707 87.319 112.47 86.8979 112.244C86.4746 112.018 86.0558 111.794 85.6417 111.569L83.9879 110.687L83.9227 110.72L84.8688 112.596L85.296 113.443L85.6938 114.232L84.9359 114.614L84.5381 113.825L84.1109 112.978L83.2807 111.332L82.8622 110.502L82.4696 109.724L83.1726 109.369C83.5546 109.575 83.9567 109.789 84.3789 110.012C84.8 110.239 85.2617 110.486 85.7643 110.755L87.4318 111.647L87.4935 111.616L86.525 109.696L86.1064 108.866L85.7138 108.087L86.4717 107.705ZM77.6213 113.612C77.5234 113.592 77.4173 113.601 77.3028 113.638C77.1275 113.695 77.0077 113.791 76.9434 113.925C76.88 114.061 76.874 114.208 76.9254 114.367C76.9594 114.471 77.0113 114.557 77.0812 114.623C77.1512 114.689 77.2346 114.731 77.3317 114.748C77.4295 114.767 77.5356 114.758 77.6501 114.721C77.8206 114.666 77.9412 114.573 78.0119 114.442C78.0801 114.312 78.0881 114.167 78.036 114.006C78.0012 113.899 77.9484 113.811 77.8777 113.743C77.8054 113.677 77.7199 113.634 77.6213 113.612ZM69.306 113.606C69.5308 113.568 69.7627 113.55 70.0018 113.552C70.238 113.551 70.4609 113.565 70.6705 113.592C70.8776 113.62 71.0469 113.654 71.1782 113.694L71.2448 114.536C71.0541 114.466 70.8607 114.412 70.6645 114.372C70.4662 114.335 70.269 114.312 70.0728 114.303C69.8745 114.297 69.6807 114.31 69.4913 114.342C69.2842 114.377 69.1042 114.434 68.9514 114.514C68.7991 114.597 68.6869 114.702 68.615 114.831C68.541 114.963 68.5191 115.12 68.5495 115.302C68.5786 115.476 68.6544 115.611 68.777 115.707C68.897 115.804 69.0612 115.878 69.2696 115.929C69.4784 115.982 69.7247 116.027 70.0084 116.062C70.3641 116.109 70.6725 116.176 70.9335 116.262C71.195 116.351 71.4049 116.481 71.5632 116.652C71.719 116.823 71.8223 117.06 71.8729 117.363C71.9218 117.656 71.8986 117.929 71.8031 118.181C71.7051 118.434 71.533 118.647 71.2868 118.82C71.0385 118.997 70.7123 119.119 70.3082 119.186C70.1466 119.213 69.983 119.229 69.8176 119.233C69.6497 119.238 69.488 119.234 69.3327 119.221C69.1752 119.211 69.0306 119.192 68.8988 119.165C68.7671 119.137 68.6515 119.106 68.5521 119.071L68.4937 118.231C68.6651 118.309 68.8436 118.368 69.0293 118.407C69.2128 118.449 69.3922 118.473 69.5673 118.48C69.7403 118.49 69.8988 118.483 70.0427 118.459C70.2271 118.429 70.3919 118.374 70.5371 118.295C70.6823 118.216 70.7926 118.115 70.8679 117.991C70.9436 117.869 70.9675 117.725 70.9397 117.558C70.9144 117.406 70.8527 117.286 70.7545 117.196C70.6564 117.106 70.5135 117.035 70.3257 116.983C70.138 116.931 69.8993 116.885 69.6096 116.846C69.155 116.781 68.7908 116.699 68.5171 116.6C68.2439 116.503 68.0397 116.368 67.9045 116.196C67.7668 116.024 67.6741 115.796 67.6264 115.51C67.5754 115.205 67.5982 114.922 67.6949 114.662C67.7891 114.402 67.9688 114.18 68.2339 113.995C68.4965 113.811 68.8539 113.681 69.306 113.606ZM63.7896 114.467C63.4305 114.352 63.0325 114.309 62.5956 114.338C62.4448 114.348 62.2946 114.365 62.1448 114.39C61.9951 114.416 61.8497 114.448 61.7086 114.488C61.5675 114.528 61.4334 114.577 61.3063 114.634C61.1793 114.694 61.063 114.759 60.9574 114.83L61.0741 115.669C61.1886 115.577 61.3065 115.496 61.4276 115.427C61.5463 115.357 61.6683 115.301 61.7937 115.257C61.9165 115.213 62.0412 115.177 62.1678 115.151C62.292 115.128 62.418 115.112 62.5457 115.103C62.8754 115.082 63.1689 115.116 63.4263 115.207C63.6839 115.3 63.902 115.436 64.0805 115.614C64.2592 115.795 64.3988 116.007 64.4994 116.249C64.5976 116.494 64.656 116.758 64.6747 117.042C64.7027 117.469 64.6463 117.841 64.5054 118.158C64.3646 118.475 64.1578 118.725 63.8849 118.907C63.6122 119.091 63.2944 119.196 62.9316 119.22C62.7655 119.23 62.5931 119.224 62.4145 119.2C62.236 119.178 62.0511 119.136 61.8597 119.074C61.6683 119.013 61.4703 118.928 61.2657 118.821L61.2449 119.677C61.3482 119.726 61.4679 119.771 61.604 119.811C61.7402 119.853 61.8876 119.89 62.0461 119.921C62.2023 119.954 62.3667 119.976 62.5394 119.988C62.7123 120.003 62.8881 120.004 63.067 119.992C63.6215 119.956 64.0951 119.803 64.488 119.533C64.8809 119.263 65.1757 118.908 65.3725 118.466C65.5694 118.025 65.6497 117.53 65.6136 116.98C65.5866 116.569 65.4966 116.195 65.3437 115.859C65.1907 115.522 64.9833 115.236 64.7214 114.999C64.4595 114.762 64.1489 114.585 63.7896 114.467ZM59.0765 114.488L59.0395 115.359L59 116.288L58.9216 118.133L58.8815 119.077L58.844 119.96L58.3068 119.937L57.6468 119.909L56.9023 119.877C56.4751 119.859 56.119 119.794 55.8342 119.682C55.5492 119.573 55.3386 119.404 55.2022 119.175C55.0657 118.949 55.0054 118.649 55.0213 118.275C55.0342 117.971 55.1061 117.696 55.237 117.45C55.3653 117.204 55.5683 117.011 55.846 116.869C55.9971 116.793 56.1748 116.74 56.3792 116.71L55.8398 115.93L55.4558 115.376C55.3206 115.18 55.189 114.989 55.0612 114.802C54.9307 114.614 54.8161 114.448 54.7172 114.303L55.7571 114.347C55.9113 114.579 56.0607 114.802 56.2054 115.016C56.3474 115.232 56.4871 115.443 56.6245 115.648L57.2033 116.519L58.1044 116.557L58.1174 116.25L58.1569 115.321L58.1939 114.45L59.0765 114.488ZM57.2367 117.254L58.0733 117.29L58.0449 117.958L58.0054 118.886L57.9926 119.19L56.9641 119.146C56.8465 119.141 56.7266 119.127 56.6046 119.104C56.4825 119.081 56.3716 119.037 56.2718 118.974C56.1694 118.911 56.0887 118.819 56.0297 118.699C55.9708 118.578 55.9456 118.417 55.9542 118.215C55.9647 117.967 56.0192 117.77 56.1176 117.626C56.2134 117.481 56.3549 117.38 56.5419 117.321C56.7262 117.265 56.9578 117.243 57.2367 117.254ZM52.5488 114.118C52.2236 113.913 51.8258 113.773 51.3554 113.698C50.7789 113.607 50.269 113.65 49.8257 113.828C49.3796 114.009 49.0167 114.293 48.737 114.682C48.4574 115.07 48.2751 115.531 48.1902 116.065C48.1282 116.454 48.1284 116.828 48.1908 117.185C48.2532 117.542 48.3803 117.867 48.5723 118.16C48.7614 118.454 49.0164 118.701 49.3374 118.9C49.6558 119.098 50.0401 119.233 50.4902 119.305C51.0845 119.4 51.6064 119.354 52.0559 119.169C52.5024 118.986 52.8658 118.699 53.1458 118.308C53.4229 117.919 53.6031 117.463 53.6864 116.94C53.746 116.565 53.7457 116.201 53.6854 115.847C53.6252 115.492 53.502 115.167 53.3158 114.87C53.1272 114.573 52.8715 114.322 52.5488 114.118ZM50.4204 114.491C50.6657 114.416 50.9438 114.403 51.2549 114.452C51.5659 114.502 51.8278 114.599 52.0406 114.745C52.253 114.893 52.42 115.073 52.5415 115.287C52.6602 115.503 52.7366 115.74 52.7709 115.997C52.8052 116.254 52.8006 116.519 52.7571 116.792C52.7132 117.067 52.6339 117.322 52.5189 117.555C52.404 117.788 52.2554 117.989 52.0731 118.157C51.8883 118.325 51.6734 118.445 51.4285 118.517C51.1836 118.59 50.9082 118.602 50.6022 118.553C50.3063 118.506 50.0543 118.411 49.8461 118.269C49.6376 118.13 49.4723 117.954 49.3504 117.743C49.2259 117.531 49.1442 117.295 49.1053 117.035C49.0663 116.775 49.0698 116.5 49.1157 116.212C49.1584 115.944 49.2359 115.693 49.3483 115.46C49.4581 115.226 49.6029 115.024 49.7827 114.856C49.9625 114.687 50.1751 114.566 50.4204 114.491ZM44.9815 112.279C45.4397 112.409 45.8182 112.595 46.1171 112.836C46.4134 113.077 46.6377 113.356 46.7901 113.674C46.9399 113.99 47.0239 114.328 47.0419 114.687C47.06 115.046 47.0174 115.408 46.9141 115.773C46.7697 116.283 46.5369 116.714 46.2159 117.068C45.8917 117.423 45.4971 117.665 45.0321 117.794C44.5639 117.925 44.0403 117.909 43.4613 117.745C43.0228 117.62 42.6571 117.441 42.3643 117.206C42.069 116.971 41.8449 116.696 41.6918 116.381C41.5357 116.068 41.4477 115.731 41.4278 115.368C41.408 115.006 41.4518 114.635 41.5593 114.256C41.7065 113.736 41.9419 113.3 42.2654 112.947C42.5889 112.594 42.9828 112.354 43.4471 112.228C43.9083 112.103 44.4197 112.12 44.9815 112.279ZM44.7927 113.016C44.4897 112.93 44.2119 112.91 43.9595 112.956C43.7071 113.001 43.4816 113.097 43.2833 113.243C43.0849 113.389 42.9173 113.572 42.7807 113.791C42.6415 114.01 42.535 114.25 42.461 114.511C42.3815 114.792 42.3457 115.064 42.3537 115.327C42.3617 115.59 42.415 115.834 42.5136 116.059C42.6098 116.283 42.7532 116.477 42.9439 116.64C43.1338 116.806 43.3729 116.929 43.6612 117.011C43.9593 117.095 44.2342 117.116 44.486 117.073C44.7377 117.03 44.9652 116.936 45.1685 116.791C45.3694 116.646 45.5406 116.464 45.6822 116.246C45.8238 116.028 45.9326 115.785 46.0087 115.516C46.0841 115.25 46.1199 114.987 46.1161 114.728C46.1124 114.469 46.0643 114.225 45.972 113.997C45.8765 113.77 45.732 113.571 45.5385 113.399C45.3443 113.229 45.0957 113.102 44.7927 113.016ZM40.9663 112.015L41.2939 111.207L38.0299 109.884L37.7312 110.621L38.258 110.834L38.8168 111.061L39.5073 111.341L40.1587 111.605L40.0779 111.804L39.7272 112.669L39.0879 114.246L38.7314 115.125L38.3995 115.944L39.236 116.283L39.5679 115.464L39.9244 114.585L40.6171 112.877L40.9663 112.015ZM34.5287 108.206L34.0908 108.96L33.6239 109.764L32.6979 111.358L32.2214 112.178L31.7777 112.942L31.2031 112.608L30.6252 112.273L30.0341 111.929C29.6709 111.718 29.3796 111.478 29.1602 111.208C28.9372 110.94 28.7875 110.647 28.7109 110.33C28.6331 110.015 28.6286 109.684 28.6975 109.336C28.7641 108.987 28.9055 108.626 29.1215 108.254C29.3157 107.92 29.5425 107.634 29.8017 107.397C30.0575 107.161 30.3458 106.99 30.6667 106.887C30.9854 106.781 31.3384 106.76 31.7257 106.822C32.1131 106.884 32.5337 107.047 32.9876 107.311L33.539 107.631L34.0372 107.92L34.5287 108.206ZM33.3778 108.39L32.6139 107.947C32.2043 107.709 31.8333 107.595 31.501 107.607C31.1687 107.618 30.8723 107.726 30.6117 107.93C30.3511 108.134 30.123 108.404 29.9275 108.74C29.7783 108.997 29.6743 109.248 29.6154 109.492C29.5552 109.738 29.5473 109.973 29.5918 110.198C29.635 110.424 29.7342 110.636 29.8894 110.832C30.0446 111.029 30.2616 111.209 30.5406 111.371L31.3676 111.851L31.6744 111.323L32.012 110.742L32.7451 109.48L33.0788 108.905L33.3778 108.39ZM28.3908 104.544C28.1975 104.212 27.9098 103.904 27.5278 103.619C27.0595 103.271 26.5876 103.073 26.1122 103.025C25.6331 102.978 25.1797 103.062 24.7518 103.277C24.324 103.491 23.9488 103.815 23.6262 104.249C23.3907 104.565 23.2178 104.896 23.1074 105.242C22.9971 105.587 22.9591 105.934 22.9937 106.282C23.0247 106.631 23.1363 106.968 23.3285 107.293C23.5186 107.616 23.7965 107.914 24.1622 108.186C24.6449 108.545 25.1283 108.747 25.6124 108.792C26.0929 108.836 26.5479 108.75 26.9773 108.534C27.4031 108.318 27.7742 107.997 28.0907 107.572C28.317 107.268 28.4856 106.945 28.5965 106.603C28.7074 106.261 28.7491 105.915 28.7217 105.566C28.6923 105.215 28.582 104.875 28.3908 104.544ZM26.3319 103.888C26.5841 103.935 26.8365 104.053 27.0891 104.241C27.3418 104.429 27.5287 104.637 27.6499 104.864C27.7695 105.094 27.8336 105.331 27.8422 105.577C27.8472 105.823 27.8053 106.068 27.7166 106.312C27.6279 106.555 27.501 106.788 27.3358 107.01C27.1692 107.234 26.9809 107.422 26.771 107.576C26.5611 107.729 26.3364 107.838 26.0969 107.902C25.8555 107.965 25.6094 107.972 25.3588 107.923C25.1082 107.874 24.8586 107.756 24.6101 107.571C24.3697 107.393 24.1903 107.192 24.0717 106.97C23.9515 106.749 23.8864 106.517 23.8763 106.274C23.8642 106.028 23.9011 105.781 23.9873 105.533C24.0735 105.284 24.2037 105.043 24.378 104.808C24.54 104.591 24.725 104.404 24.9329 104.249C25.1387 104.093 25.3603 103.982 25.5977 103.916C25.835 103.85 26.0798 103.841 26.3319 103.888ZM23.5811 100.561C23.4453 100.808 23.3006 101.072 23.1472 101.355L22.7213 102.141L21.8694 103.707C21.7177 103.984 21.552 104.289 21.3721 104.621C21.1922 104.954 21.0229 105.266 20.8642 105.558L20.1396 104.854C20.3322 104.523 20.5344 104.175 20.7464 103.81C20.9584 103.445 21.1616 103.098 21.356 102.769L22.4266 100.928L22.3715 100.875L20.5493 102.023C20.3412 102.153 20.1214 102.291 19.8899 102.437L19.1955 102.877C18.9622 103.021 18.7406 103.159 18.5306 103.291L17.8115 102.593L18.4131 101.56C18.6216 101.202 18.8221 100.856 19.0146 100.522L20.0958 98.6643L20.0407 98.6108L18.2076 99.7538C17.8917 99.9503 17.5553 100.161 17.1982 100.385C16.8392 100.608 16.5019 100.817 16.186 101.014L15.4642 100.312C15.755 100.142 16.0621 99.9633 16.3853 99.7775C16.7068 99.59 17.0039 99.4182 17.2769 99.2621L18.8311 98.3622C19.0789 98.2209 19.342 98.0695 19.6203 97.908C19.895 97.7464 20.1518 97.5978 20.3907 97.4622L21.1979 98.2463C21.0196 98.5621 20.8325 98.8944 20.6366 99.2431C20.437 99.5919 20.2499 99.9206 20.0751 100.229L19.0581 102.02L19.1132 102.074L20.8658 100.997C21.1673 100.812 21.4904 100.613 21.835 100.402C22.1778 100.192 22.5018 99.9947 22.8069 99.8092L23.5811 100.561ZM18.0537 96.1708L18.7357 95.6276L18.2068 94.9636L17.5248 95.5069L16.7978 96.086L15.1155 97.4262L15.0724 97.3721L15.6058 95.5575C15.7661 95.0108 15.9141 94.5082 16.0498 94.0498C16.182 93.591 16.3098 93.1536 16.4335 92.7375L15.9429 92.1217L15.2609 92.6649L14.5339 93.244L13.0919 94.3928L12.3498 94.9839L11.6589 95.5343L12.1878 96.1982L12.8787 95.6478L13.6208 95.0567L15.2641 93.7476L15.3095 93.8047L14.7833 95.6038C14.6484 96.055 14.5139 96.5108 14.3798 96.9712C14.2441 97.4296 14.1021 97.911 13.9539 98.4153L14.4517 99.0402L15.1427 98.4898L15.8847 97.8987L17.3267 96.75L18.0537 96.1708ZM11.0856 87.9509C11.1456 88.0552 11.1763 88.1572 11.1776 88.257C11.1767 88.358 11.1517 88.4506 11.1028 88.535C11.0503 88.6183 10.9753 88.6882 10.8777 88.7444C10.7312 88.8287 10.5874 88.851 10.4463 88.8111C10.3038 88.769 10.1879 88.6703 10.0984 88.515C10.0384 88.4107 10.0077 88.3087 10.0064 88.209C10.0029 88.1105 10.0263 88.0203 10.0765 87.9382C10.1267 87.856 10.1995 87.7875 10.2949 87.7326C10.4392 87.6495 10.5845 87.6249 10.7311 87.6587C10.8754 87.6938 10.9935 87.7912 11.0856 87.9509ZM9.6413 80.7842C9.59338 80.55 9.5278 80.3268 9.44454 80.1146C9.27711 79.688 9.07618 79.3652 8.84176 79.1464C8.60641 78.9252 8.35192 78.7953 8.07828 78.7569C7.80371 78.7161 7.52221 78.7523 7.23379 78.8655C6.96444 78.9712 6.76002 79.1092 6.62054 79.2795C6.48012 79.4474 6.39066 79.675 6.35217 79.9624C6.31129 80.2508 6.30647 80.624 6.33771 81.0822C6.35862 81.3738 6.36322 81.6168 6.35148 81.8112C6.33975 82.0056 6.29999 82.1601 6.23219 82.2747C6.16439 82.3894 6.05899 82.4747 5.91597 82.5309C5.75865 82.5926 5.61263 82.599 5.47791 82.5501C5.3408 82.5021 5.21869 82.4153 5.11157 82.2895C5.00446 82.1638 4.91676 82.0139 4.84847 81.8399C4.79516 81.704 4.75551 81.5504 4.72952 81.3791C4.70022 81.2063 4.68714 81.0257 4.69027 80.8374C4.69009 80.6477 4.71033 80.461 4.751 80.2772L3.94209 80.508C3.92809 80.6125 3.92136 80.7321 3.92191 80.8666C3.92245 81.0012 3.9341 81.1466 3.95686 81.3027C3.97629 81.4573 4.00568 81.6163 4.04503 81.7797C4.08345 81.9407 4.13259 82.0974 4.19245 82.25C4.34212 82.6314 4.52897 82.9253 4.75301 83.1317C4.97372 83.3366 5.21779 83.4609 5.48522 83.5045C5.7517 83.5457 6.0232 83.5121 6.2997 83.4035C6.58573 83.2913 6.79641 83.1412 6.93173 82.9533C7.06612 82.7631 7.14966 82.5309 7.18236 82.2567C7.21268 81.9835 7.21403 81.668 7.18641 81.3102C7.1626 81.0253 7.1552 80.7751 7.16422 80.5598C7.17085 80.3454 7.20909 80.1694 7.27894 80.032C7.34785 79.8922 7.46454 79.79 7.62901 79.7254C7.80063 79.6581 7.95857 79.647 8.10283 79.6922C8.24377 79.7359 8.37039 79.8237 8.48269 79.9557C8.59262 80.0886 8.68593 80.2528 8.76263 80.4483C8.83279 80.627 8.88554 80.814 8.92087 81.0092C8.95289 81.2029 8.97133 81.4006 8.97619 81.6023C8.97773 81.8025 8.9643 82.003 8.93588 82.204L9.74556 81.9646C9.75787 81.8278 9.75614 81.6552 9.74039 81.4468C9.7237 81.236 9.69067 81.0152 9.6413 80.7842ZM7.32835 73.6831C7.44608 74.1048 7.48552 74.5032 7.44666 74.8783C7.40533 75.254 7.29563 75.5944 7.11756 75.8993C6.93949 76.2042 6.70153 76.466 6.4037 76.6848C6.10586 76.9035 5.7584 77.0683 5.36132 77.1791C4.83107 77.3271 4.32971 77.3501 3.85725 77.2481C3.38479 77.146 2.97634 76.9304 2.63188 76.6012C2.28743 76.272 2.0405 75.8398 1.8911 75.3046C1.84291 75.1319 1.80808 74.9595 1.78661 74.7874C1.76268 74.616 1.75103 74.4504 1.75165 74.2907C1.74911 74.1293 1.75461 73.9775 1.76813 73.8355C1.77919 73.6942 1.79842 73.5679 1.82583 73.4565L2.66777 73.3013C2.60486 73.5235 2.56278 73.7347 2.54151 73.9347C2.52025 74.1347 2.51734 74.3242 2.53278 74.5034C2.54576 74.6832 2.57462 74.8532 2.61937 75.0135C2.71714 75.3638 2.88438 75.6534 3.12111 75.8824C3.35538 76.1121 3.64217 76.2633 3.9815 76.3361C4.32083 76.4088 4.69644 76.3877 5.10831 76.2728C5.38207 76.1963 5.62878 76.0849 5.84845 75.9385C6.06496 75.7904 6.24333 75.6103 6.38355 75.3984C6.52131 75.1871 6.60948 74.9458 6.64806 74.6745C6.68417 74.4039 6.65782 74.1095 6.56901 73.7914C6.53459 73.6681 6.49311 73.548 6.44457 73.4313C6.39289 73.3128 6.33291 73.198 6.26465 73.0868C6.1957 72.9731 6.1151 72.8653 6.02286 72.7635C5.92994 72.6591 5.8266 72.5604 5.71285 72.4672L6.51021 72.1808C6.60147 72.2696 6.68932 72.37 6.77376 72.4821C6.85573 72.5948 6.93079 72.716 6.99894 72.8459C7.06709 72.9757 7.12888 73.1114 7.1843 73.2527C7.23971 73.3941 7.28773 73.5376 7.32835 73.6831ZM5.64236 70.6716L6.50233 70.528L6.35678 69.6566L5.49681 69.8003L4.58002 69.9534L4.27695 70.0041L4.12834 69.1145L4.86043 68.3684C5.03338 68.1916 5.21096 68.0113 5.39316 67.8277C5.57243 67.642 5.75968 67.4498 5.95493 67.251L5.78344 66.2243C5.66183 66.3511 5.52275 66.4977 5.36622 66.664C5.20926 66.8278 5.04915 66.996 4.88588 67.1687L4.42258 67.6589L3.77064 68.3478C3.69948 68.1538 3.6112 67.9908 3.5058 67.8587C3.30955 67.6163 3.07796 67.4577 2.81105 67.3829C2.54371 67.3055 2.25976 67.2919 1.95922 67.3421C1.59048 67.4037 1.30953 67.5247 1.11638 67.7049C0.920699 67.8856 0.798709 68.1266 0.75041 68.428C0.699584 68.7299 0.709399 69.0917 0.779854 69.5135L0.902623 70.2484L1.01147 70.9L1.10007 71.4304L1.9714 71.2848L2.90335 71.1292L4.72557 70.8248L5.64236 70.6716ZM3.55336 70.1249L3.4154 69.2991C3.36942 69.0238 3.29988 68.8018 3.20678 68.633C3.11074 68.4621 2.9821 68.3447 2.82085 68.2808C2.65917 68.2143 2.45584 68.2016 2.21086 68.2425C2.01134 68.2758 1.85876 68.3337 1.75313 68.4163C1.6475 68.4988 1.57429 68.5967 1.5335 68.71C1.49228 68.8207 1.47296 68.9382 1.47554 69.0624C1.47811 69.1865 1.4891 69.3067 1.5085 69.4229L1.6781 70.4382L1.97738 70.3882L2.89418 70.2351L3.55336 70.1249ZM5.66927 62.8925C5.69498 63.3681 5.64195 63.7864 5.51018 64.1474C5.37826 64.5058 5.18692 64.8085 4.93615 65.0554C4.68523 65.2998 4.39285 65.4887 4.05901 65.6221C3.72517 65.7556 3.36904 65.8325 2.99063 65.853C2.46136 65.8816 1.97749 65.8014 1.53901 65.6122C1.09785 65.4207 0.740848 65.1258 0.468016 64.7277C0.192489 64.3272 0.03848 63.8265 0.00598919 63.2257C-0.0186208 62.7705 0.0326124 62.3664 0.159689 62.0134C0.286627 61.6578 0.474205 61.3566 0.722423 61.1098C0.967947 60.8606 1.25884 60.6679 1.5951 60.5318C1.93136 60.3957 2.29637 60.3169 2.69012 60.2956C3.22962 60.2665 3.71867 60.3477 4.15728 60.5394C4.59589 60.7311 4.95034 61.0261 5.22061 61.4243C5.48819 61.8201 5.63774 62.3095 5.66927 62.8925ZM4.91092 62.9527C4.89391 62.6382 4.82293 62.369 4.69799 62.1449C4.57304 61.9209 4.40933 61.7387 4.20685 61.5984C4.00437 61.458 3.77719 61.3588 3.5253 61.3006C3.27328 61.2398 3.01175 61.2168 2.74073 61.2315C2.44924 61.2472 2.18036 61.3015 1.93407 61.3943C1.68779 61.4871 1.47426 61.6166 1.29348 61.7828C1.11257 61.9465 0.975849 62.1449 0.883323 62.3781C0.78824 62.6115 0.748786 62.8778 0.764962 63.1769C0.781692 63.4863 0.851251 63.7531 0.973639 63.9773C1.09603 64.2014 1.2586 64.3862 1.46135 64.5317C1.66397 64.6746 1.89136 64.7777 2.14353 64.841C2.39569 64.9043 2.66112 64.9284 2.93982 64.9133C3.21596 64.8984 3.47603 64.8472 3.72004 64.7596C3.96404 64.672 4.17913 64.5476 4.36529 64.3862C4.54876 64.2224 4.69046 64.0212 4.79038 63.7824C4.88774 63.5438 4.92792 63.2672 4.91092 62.9527ZM63.6538 5.46459L63.7477 4.59778L63.8478 3.67369L64.0464 1.84079L64.1486 0.897608L64.2438 0.0193432L64.9044 0.0909277L65.5688 0.162926L66.2486 0.236579C66.666 0.28182 67.0298 0.383053 67.3399 0.540281C67.6528 0.695238 67.9085 0.901956 68.1072 1.16043C68.3061 1.41637 68.4448 1.71729 68.5232 2.06318C68.6041 2.40936 68.6215 2.79629 68.5751 3.22396C68.5335 3.60836 68.4424 3.96165 68.3019 4.28383C68.1642 4.60373 67.9698 4.87629 67.7188 5.10149C67.4702 5.32697 67.1564 5.48999 66.7772 5.59056C66.398 5.69112 65.9474 5.71313 65.4256 5.65658L64.7917 5.58789L64.2189 5.52583L63.6538 5.46459ZM64.6306 4.82867L65.5088 4.92384C65.9798 4.97487 66.3648 4.92773 66.6638 4.78242C66.9629 4.63711 67.1901 4.41834 67.3454 4.12609C67.5007 3.83385 67.5993 3.49426 67.6412 3.10731C67.6732 2.81201 67.6665 2.54085 67.6212 2.29383C67.5761 2.04427 67.4877 1.82607 67.356 1.63923C67.2246 1.44985 67.048 1.29678 66.8263 1.18003C66.6045 1.06329 66.3333 0.987532 66.0125 0.952775L65.0617 0.849743L64.9959 1.45689L64.9235 2.12514L64.7663 3.57618L64.6947 4.23679L64.6306 4.82867ZM70.8911 6.32329C71.2023 6.54871 71.5902 6.71405 72.0547 6.8193C72.6241 6.94831 73.1357 6.93821 73.5896 6.78901C74.0466 6.63787 74.4272 6.37754 74.7314 6.00802C75.0357 5.6385 75.2475 5.19028 75.3669 4.66335C75.4541 4.27877 75.4781 3.90614 75.4391 3.54548C75.4 3.18481 75.2942 2.85233 75.1216 2.54805C74.952 2.24183 74.7136 1.97908 74.4062 1.75978C74.1013 1.54104 73.7266 1.38132 73.2821 1.2806C72.6952 1.14762 72.1715 1.15892 71.7109 1.31449C71.2534 1.46812 70.8722 1.73095 70.5674 2.10296C70.2656 2.47304 70.0562 2.91656 69.9391 3.4335C69.8553 3.8031 69.832 4.1667 69.8691 4.5243C69.9062 4.8819 70.008 5.21478 70.1745 5.52293C70.3435 5.83164 70.5824 6.09843 70.8911 6.32329ZM73.0393 6.08932C72.7896 6.14828 72.5112 6.14295 72.204 6.07336C71.8969 6.00376 71.6418 5.88952 71.4389 5.73065C71.2365 5.56927 71.0817 5.37796 70.9743 5.15671C70.8699 4.93354 70.809 4.69262 70.7915 4.43398C70.7739 4.17533 70.7957 3.91115 70.8568 3.64144C70.9185 3.36924 71.0142 3.1205 71.144 2.89524C71.2738 2.66998 71.4352 2.47943 71.628 2.32358C71.8233 2.1683 72.0456 2.06244 72.2946 2.00598C72.5437 1.94952 72.8194 1.95552 73.1215 2.02399C73.4137 2.09019 73.6591 2.20092 73.8576 2.35616C74.0566 2.50891 74.2101 2.69466 74.3181 2.91341C74.4286 3.13273 74.4948 3.37353 74.5167 3.6358C74.5387 3.89808 74.5174 4.17156 74.4529 4.45625C74.3929 4.72097 74.2993 4.96624 74.172 5.19207C74.0472 5.41846 73.8896 5.60986 73.6993 5.76627C73.5089 5.92268 73.2889 6.03036 73.0393 6.08932ZM76.7283 7.93993C76.7531 7.65963 76.7785 7.35909 76.8047 7.03832L76.877 6.14752L77.024 4.37084C77.0507 4.05576 77.0793 3.70996 77.1098 3.33343C77.1402 2.9569 77.169 2.60301 77.1963 2.27174L78.1434 2.62307C78.1007 3.00323 78.0561 3.40319 78.0097 3.82293C77.9632 4.24267 77.9174 4.64218 77.8723 5.02146L77.6362 7.13786L77.7082 7.16458L78.9116 5.3783C79.0497 5.17551 79.195 4.96041 79.3476 4.733L79.8055 4.05076C79.9606 3.82423 80.1076 3.60838 80.2465 3.40319L81.1864 3.75184L81.053 4.93956C81.0069 5.35121 80.9632 5.74877 80.922 6.13223L80.6828 8.26797L80.7548 8.29469L81.9703 6.50881C82.1799 6.20148 82.4027 5.87312 82.6389 5.52373C82.8774 5.17523 83.1014 4.84731 83.311 4.53998L84.2545 4.88996C84.0574 5.16369 83.8485 5.45079 83.6278 5.75128C83.4095 6.05265 83.207 6.32984 83.0203 6.58285L81.9618 8.0337C81.7921 8.26298 81.6125 8.50772 81.4231 8.76793C81.2371 9.02663 81.0621 9.26626 80.8984 9.48682L79.8433 9.09542C79.8788 8.73446 79.9158 8.35491 79.9543 7.95678C79.996 7.55713 80.0345 7.18088 80.0699 6.82801L80.277 4.77869L80.205 4.75197L79.0363 6.44463C78.8354 6.73605 78.62 7.04805 78.3901 7.38063C78.1611 7.71081 77.9445 8.02237 77.7402 8.3153L76.7283 7.93993ZM83.8539 9.83774L83.4469 10.6088L84.1976 11.005L84.6046 10.2339L85.0384 9.41191L86.0424 7.50968L86.1035 7.54195L86.3423 9.41823C86.4147 9.98336 86.4806 10.5031 86.54 10.9775C86.6029 11.4508 86.6611 11.9028 86.7147 12.3335L87.411 12.701L87.818 11.9299L88.2518 11.1079L89.1124 9.47738L89.5552 8.63836L89.9675 7.85709L89.2168 7.46089L88.8045 8.24216L88.3617 9.08118L87.381 10.9392L87.3165 10.9052L87.0773 9.04608C87.02 8.57864 86.9605 8.10714 86.8988 7.63159C86.8393 7.15722 86.7764 6.65931 86.7099 6.13783L86.0034 5.76494L85.5911 6.54621L85.1482 7.38523L84.2877 9.01571L83.8539 9.83774ZM93.3863 14.4575C93.2895 14.386 93.2205 14.3048 93.1794 14.214C93.1398 14.1211 93.1255 14.0262 93.1366 13.9293C93.1513 13.8319 93.192 13.7379 93.259 13.6472C93.3594 13.5113 93.4823 13.4333 93.6275 13.4133C93.7749 13.3948 93.9207 13.4388 94.0648 13.5453C94.1617 13.6168 94.2306 13.698 94.2717 13.7889C94.3144 13.8777 94.3291 13.9697 94.316 14.0651C94.3029 14.1604 94.2636 14.2524 94.1982 14.341C94.0993 14.4748 93.976 14.5556 93.8281 14.5834C93.6819 14.609 93.5346 14.5671 93.3863 14.4575ZM97.5886 20.4C97.7269 20.5951 97.8769 20.7729 98.0386 20.9334C98.3639 21.2564 98.6779 21.4707 98.9807 21.5764C99.2853 21.684 99.5705 21.7001 99.8364 21.6249C100.104 21.5515 100.347 21.4049 100.565 21.185C100.769 20.9797 100.901 20.771 100.96 20.5589C101.02 20.3486 101.01 20.1042 100.93 19.8257C100.851 19.5453 100.705 19.2019 100.492 18.7952C100.355 18.5368 100.253 18.3163 100.185 18.1337C100.117 17.951 100.091 17.7936 100.107 17.6614C100.123 17.5291 100.185 17.4085 100.293 17.2995C100.412 17.1795 100.543 17.1148 100.686 17.1052C100.831 17.0938 100.978 17.1241 101.127 17.196C101.275 17.2678 101.416 17.3696 101.549 17.5013C101.652 17.6042 101.751 17.7287 101.843 17.8751C101.94 18.0214 102.025 18.1813 102.098 18.3548C102.174 18.5284 102.231 18.7074 102.268 18.892L102.915 18.3546C102.886 18.2533 102.844 18.1412 102.789 18.0183C102.734 17.8954 102.665 17.767 102.581 17.6334C102.501 17.4997 102.41 17.366 102.308 17.2324C102.208 17.1006 102.1 16.977 101.984 16.8615C101.693 16.5729 101.403 16.3793 101.115 16.2807C100.831 16.1822 100.557 16.1669 100.295 16.2348C100.034 16.3046 99.7995 16.4448 99.5902 16.6556C99.3737 16.8737 99.2414 17.096 99.1934 17.3225C99.1471 17.5508 99.1643 17.797 99.2449 18.061C99.3274 18.3233 99.4534 18.6125 99.6229 18.9288C99.7596 19.1799 99.8673 19.4059 99.9458 19.6066C100.026 19.8054 100.062 19.9819 100.054 20.1358C100.047 20.2915 99.9814 20.4321 99.857 20.5575C99.7271 20.6883 99.587 20.7621 99.4368 20.779C99.2902 20.7958 99.1389 20.7665 98.9829 20.691C98.8287 20.6137 98.6771 20.5011 98.5281 20.3532C98.3918 20.2179 98.2682 20.068 98.1571 19.9037C98.0497 19.7393 97.9531 19.5658 97.8673 19.3833C97.7852 19.2007 97.7166 19.0117 97.6616 18.8164L97.0172 19.3619C97.0611 19.4921 97.1323 19.6494 97.2307 19.8337C97.331 20.0198 97.4503 20.2086 97.5886 20.4ZM102.719 26.1152C102.442 25.7767 102.245 25.428 102.129 25.0691C102.015 24.7086 101.979 24.3529 102.019 24.0021C102.059 23.6512 102.171 23.3157 102.355 22.9955C102.54 22.6752 102.791 22.3843 103.11 22.1228C103.535 21.7735 103.985 21.5503 104.458 21.4532C104.932 21.3561 105.393 21.3888 105.841 21.5512C106.289 21.7135 106.689 22.0095 107.041 22.439C107.155 22.5776 107.256 22.7213 107.345 22.8701C107.436 23.0174 107.514 23.1642 107.578 23.3105C107.645 23.4573 107.701 23.5984 107.746 23.7338C107.793 23.8676 107.826 23.9909 107.846 24.1039L107.138 24.5854C107.106 24.3567 107.06 24.1465 106.998 23.9549C106.937 23.7633 106.863 23.5886 106.777 23.4309C106.693 23.2716 106.598 23.1276 106.492 22.999C106.261 22.7179 105.992 22.5203 105.683 22.4062C105.376 22.2904 105.052 22.2677 104.712 22.3379C104.373 22.4082 104.037 22.5789 103.707 22.8502C103.487 23.0305 103.306 23.2319 103.164 23.4545C103.026 23.6774 102.935 23.914 102.892 24.1645C102.851 24.4134 102.868 24.6697 102.942 24.9336C103.018 25.1958 103.161 25.4545 103.371 25.7099C103.452 25.8089 103.538 25.902 103.63 25.9892C103.725 26.0768 103.826 26.1577 103.933 26.232C104.042 26.3082 104.159 26.3743 104.285 26.4303C104.412 26.4883 104.546 26.5371 104.688 26.5765L104.074 27.16C103.954 27.1155 103.834 27.0591 103.711 26.9906C103.591 26.9205 103.473 26.8398 103.358 26.7485C103.244 26.6571 103.132 26.5579 103.025 26.4509C102.917 26.3438 102.815 26.2319 102.719 26.1152ZM105.491 28.1926L104.762 28.6714L105.248 29.4097L105.976 28.9309L106.753 28.4205L107.01 28.2517L107.505 29.0055L107.137 29.9837C107.05 30.2154 106.96 30.452 106.868 30.6935C106.779 30.9358 106.685 31.1873 106.587 31.448L107.158 32.3179C107.219 32.1528 107.287 31.9626 107.363 31.7472C107.44 31.534 107.518 31.3154 107.598 31.0915L107.824 30.4559L108.142 29.5624C108.285 29.7111 108.432 29.8245 108.582 29.9028C108.859 30.0453 109.135 30.0968 109.41 30.0575C109.685 30.0202 109.951 29.918 110.205 29.7506C110.518 29.5453 110.726 29.3212 110.83 29.0783C110.936 28.834 110.95 28.5642 110.872 28.269C110.797 27.9723 110.642 27.6453 110.407 27.2879L109.998 26.6652L109.635 26.1131L109.34 25.6637L108.602 26.1488L107.812 26.6677L106.268 27.6822L105.491 28.1926ZM107.623 27.8489L108.083 28.5487C108.236 28.7819 108.389 28.9569 108.543 29.0737C108.7 29.1912 108.865 29.2467 109.038 29.24C109.213 29.2355 109.404 29.1651 109.611 29.0287C109.78 28.9176 109.897 28.8029 109.96 28.6848C110.023 28.5666 110.051 28.4475 110.042 28.3274C110.035 28.2094 110.005 28.0942 109.953 27.9816C109.9 27.8691 109.842 27.7636 109.777 27.6651L109.212 26.8048L108.958 26.9715L108.181 27.4819L107.623 27.8489ZM108.687 35.4581C108.472 35.0329 108.353 34.6285 108.329 34.2449C108.306 33.8637 108.359 33.5096 108.49 33.1828C108.622 32.8583 108.814 32.5679 109.066 32.3117C109.318 32.0554 109.613 31.842 109.952 31.6713C110.425 31.4327 110.9 31.3119 111.378 31.3091C111.859 31.3075 112.304 31.4342 112.714 31.6893C113.127 31.9455 113.469 32.3423 113.74 32.8795C113.945 33.2865 114.061 33.6772 114.086 34.0515C114.112 34.4282 114.062 34.7794 113.933 35.105C113.808 35.4318 113.619 35.725 113.366 35.9847C113.113 36.2444 112.81 36.463 112.458 36.6406C111.975 36.8839 111.495 37.0058 111.016 37.0063C110.538 37.0068 110.095 36.8789 109.687 36.6227C109.283 36.3676 108.95 35.9794 108.687 35.4581ZM109.357 35.0985C109.499 35.3797 109.672 35.5979 109.877 35.7529C110.081 35.9079 110.304 36.0091 110.546 36.0563C110.788 36.1036 111.035 36.1033 111.29 36.0555C111.545 36.0099 111.794 35.926 112.036 35.8038C112.297 35.6724 112.521 35.5147 112.709 35.3308C112.898 35.147 113.041 34.9426 113.14 34.7178C113.24 34.4953 113.286 34.2587 113.277 34.0079C113.27 33.756 113.199 33.4963 113.064 33.2288C112.925 32.9522 112.754 32.7358 112.552 32.5796C112.35 32.4234 112.127 32.3194 111.883 32.2676C111.64 32.218 111.39 32.2149 111.134 32.2581C110.877 32.3014 110.625 32.3859 110.375 32.5116C110.129 32.6361 109.911 32.7874 109.723 32.9656C109.534 33.1437 109.387 33.3441 109.282 33.5666C109.179 33.7902 109.13 34.0315 109.135 34.2902C109.141 34.5479 109.215 34.8173 109.357 35.0985ZM111.028 40.1209C111.006 40.5046 111.076 40.9203 111.239 41.3681C111.438 41.917 111.723 42.3421 112.093 42.6436C112.467 42.9465 112.892 43.1262 113.367 43.1828C113.843 43.2393 114.334 43.1755 114.842 42.9914C115.213 42.857 115.539 42.676 115.822 42.4484C116.104 42.2207 116.327 41.9521 116.49 41.6425C116.656 41.3344 116.748 40.9918 116.767 40.6147C116.786 40.2399 116.718 39.8383 116.563 39.4098C116.358 38.8441 116.066 38.4094 115.686 38.1058C115.31 37.8037 114.883 37.6249 114.405 37.5692C113.93 37.5151 113.444 37.5784 112.946 37.759C112.589 37.8881 112.271 38.0648 111.99 38.2892C111.709 38.5136 111.484 38.779 111.314 39.0856C111.146 39.3945 111.05 39.7396 111.028 40.1209ZM112.385 41.8025C112.2 41.6242 112.055 41.387 111.947 41.0909C111.84 40.7948 111.798 40.5185 111.822 40.2619C111.849 40.0044 111.926 39.7707 112.055 39.5609C112.186 39.3525 112.356 39.1711 112.564 39.0167C112.772 38.8622 113.006 38.7379 113.266 38.6437C113.529 38.5486 113.79 38.4948 114.05 38.4824C114.309 38.47 114.557 38.5029 114.792 38.581C115.028 38.6615 115.237 38.7914 115.419 38.9705C115.601 39.1497 115.745 39.3849 115.851 39.6762C115.953 39.9578 115.992 40.2241 115.969 40.475C115.948 40.725 115.874 40.9546 115.748 41.1636C115.624 41.375 115.457 41.5608 115.248 41.7209C115.039 41.881 114.797 42.0108 114.523 42.1103C114.268 42.2028 114.011 42.2564 113.752 42.2712C113.494 42.2885 113.248 42.2592 113.013 42.1835C112.779 42.1078 112.569 41.9808 112.385 41.8025ZM112.516 44.8908L113.362 44.682L114.265 44.4594L116.055 44.0178L116.976 43.7906L117.833 43.579L118.049 44.4554L117.192 44.6669L116.271 44.8941L114.619 45.3017L113.713 45.5252L113.504 45.5767L113.672 46.2591L113.851 46.9826L113.995 47.5681L114.131 48.12L113.359 48.3104L112.516 44.8908ZM114.951 52.144L114.084 52.2313L114.14 52.7969L114.198 53.3701L114.262 54.0045C114.314 54.5268 114.429 54.9631 114.606 55.3133C114.783 55.6635 115.007 55.9369 115.279 56.1335C115.551 56.3326 115.858 56.4664 116.2 56.535C116.544 56.6059 116.908 56.622 117.293 56.5833C117.721 56.5402 118.096 56.4433 118.418 56.2926C118.74 56.1443 119.006 55.9465 119.215 55.6989C119.427 55.4512 119.577 55.1582 119.663 54.82C119.753 54.4842 119.777 54.1073 119.735 53.6895L119.667 53.0093L119.6 52.3443L119.533 51.6832L118.654 51.7716L117.71 51.8665L115.876 52.051L114.951 52.144ZM114.996 53.9346L114.908 53.0556L115.5 52.996L116.161 52.9295L117.613 52.7834L118.282 52.7162L118.89 52.655L118.986 53.6066C119.018 53.9276 119 54.2087 118.931 54.4498C118.863 54.6908 118.75 54.8952 118.592 55.063C118.436 55.2305 118.241 55.362 118.006 55.4577C117.774 55.5531 117.51 55.6157 117.214 55.6455C116.827 55.6844 116.474 55.6581 116.156 55.5666C115.838 55.475 115.577 55.298 115.373 55.0354C115.169 54.7728 115.044 54.4059 114.996 53.9346Z" fill="white"/>
<path fill-rule="evenodd" clip-rule="evenodd" d="M60.5823 75.8295C60.2002 75.9857 59.7488 75.5837 59.5992 75.0096C58.4772 70.7028 55.5459 68.1206 52.5404 68.7915C52.1397 68.8809 51.6858 68.4854 51.5834 67.9025C51.5065 67.4644 51.6573 67.0609 51.9527 66.9709C55.8145 65.7934 59.6639 69.1843 60.9265 74.8758C61.023 75.311 60.8694 75.7121 60.5823 75.8295Z" fill="white"/>
<path fill-rule="evenodd" clip-rule="evenodd" d="M59.9385 75.8295C60.3205 75.9856 60.772 75.5837 60.9215 75.0095C62.0435 70.7028 64.9749 68.1206 67.9804 68.7915C68.3811 68.8809 68.8349 68.4854 68.9373 67.9025C69.0143 67.4644 68.8634 67.0609 68.5681 66.9708C64.7062 65.7934 60.8568 69.1842 59.5943 74.8758C59.4977 75.311 59.6513 75.7121 59.9385 75.8295Z" fill="white"/>
<path d="M60.2605 74.64L60.2605 43" stroke="white" stroke-width="2" stroke-linecap="round"/>
</svg>
