<svg width="23" height="22" viewBox="0 0 23 22" fill="none" xmlns="http://www.w3.org/2000/svg">
<g clip-path="url(#clip0)">
<path fill-rule="evenodd" clip-rule="evenodd" d="M4.2967 8.54794C4.74287 7.59112 5.16156 6.60735 5.71949 5.51415C6.02639 4.99532 6.36082 4.53037 6.97463 4.47563H16.3745C16.9884 4.53038 17.3228 4.99446 17.6297 5.51415C18.1876 6.60741 18.6063 7.59119 19.0525 8.54794H4.2967ZM8.70339 12.483H14.6172C14.98 12.483 15.2585 12.7837 15.2585 13.1392C15.2585 13.4668 14.98 13.7675 14.6172 13.7675H8.70339C8.36898 13.7675 8.06205 13.4668 8.06205 13.1392C8.06205 12.7837 8.36896 12.483 8.70339 12.483ZM6.97369 3C5.96956 3 5.35573 3.35543 4.51934 4.50346L3.12492 7.59117H1.00492C0.670511 7.59117 0.0566822 9.28582 2.28844 9.34057C1.79177 10.5121 1.54482 11.7738 1.55277 13.0462C1.56285 14.66 1.56285 16.2636 1.56285 17.867C1.56285 18.3319 1.95315 18.7143 2.42771 18.7143H5.32838C5.80292 18.7143 6.16486 18.3319 6.16486 17.867V16.0089H17.1553V17.867C17.1553 18.3319 17.5456 18.7143 18.0201 18.7143H20.9208C21.3954 18.7143 21.7573 18.3319 21.7573 17.867C21.7573 16.2631 21.7714 14.6598 21.7794 13.0463C21.7857 11.7731 21.5287 10.5128 21.0317 9.34057C23.2911 9.28582 22.6497 7.59117 22.3427 7.59117H20.2227L18.8283 4.50346C17.9918 3.35545 17.378 3 16.374 3H6.97369ZM18.6329 11.2803C17.8798 11.2803 17.2385 11.8817 17.2385 12.6465C17.2385 13.3843 17.8799 14.0126 18.6329 14.0126C19.4135 14.0126 20.0273 13.3843 20.0273 12.6465C20.0273 11.8817 19.4135 11.2803 18.6329 11.2803ZM4.71367 11.2803C5.46677 11.2803 6.10808 11.8817 6.10808 12.6465C6.10808 13.3843 5.46674 14.0126 4.71367 14.0126C3.93306 14.0126 3.31926 13.3843 3.31926 12.6465C3.31926 11.8817 3.93309 11.2803 4.71367 11.2803Z" fill="#100F15"/>
</g>
<defs>
<clipPath id="clip0">
<rect width="22" height="22" fill="white" transform="translate(0.666992)"/>
</clipPath>
</defs>
</svg>
