<svg width="20" height="21" viewBox="0 0 20 21" fill="none" xmlns="http://www.w3.org/2000/svg">
<g clip-path="url(#clip0)">
<path fill-rule="evenodd" clip-rule="evenodd" d="M13.75 0.392456H6.25C2.79875 0.392456 0 3.19121 0 6.64246V14.1425C0 17.5937 2.79875 20.3925 6.25 20.3925H13.75C17.2013 20.3925 20 17.5937 20 14.1425V6.64246C20 3.19121 17.2013 0.392456 13.75 0.392456ZM9.99994 5.39258C7.23869 5.39258 4.99994 7.63133 4.99994 10.3926C4.99994 13.1538 7.23869 15.3926 9.99994 15.3926C12.7612 15.3926 14.9999 13.1538 14.9999 10.3926C14.9999 7.63133 12.7612 5.39258 9.99994 5.39258ZM9.99994 13.5176C8.27744 13.5176 6.87494 12.1151 6.87494 10.3926C6.87494 8.66883 8.27744 7.26758 9.99994 7.26758C11.7224 7.26758 13.1249 8.66883 13.1249 10.3926C13.1249 12.1151 11.7224 13.5176 9.99994 13.5176ZM16.0416 5.01772C16.0416 5.38568 15.7433 5.68396 15.3753 5.68396C15.0073 5.68396 14.7091 5.38568 14.7091 5.01772C14.7091 4.64976 15.0073 4.35147 15.3753 4.35147C15.7433 4.35147 16.0416 4.64976 16.0416 5.01772Z" fill="white"/>
</g>
<defs>
<clipPath id="clip0">
<rect width="20" height="20" fill="white" transform="translate(0 0.392578)"/>
</clipPath>
</defs>
</svg>
