<svg width="107" height="25" viewBox="0 0 107 25" fill="none" xmlns="http://www.w3.org/2000/svg">
<path d="M101.4 0.392578C98.2998 0.392578 95.7998 2.89258 95.7998 5.99258C95.7998 9.09258 98.2998 11.5926 101.4 11.5926C104.5 11.5926 107 9.09258 107 5.99258C107 2.79258 104.5 0.392578 101.4 0.392578Z" fill="white"/>
<path d="M101.7 13.1924C101.5 13.8924 101.4 14.4924 101.2 14.8924L101.1 15.0924C101 15.5924 100.6 15.8924 100.1 15.8924H99.8004C99.6004 15.8924 99.4004 15.7924 99.2004 15.5924C99.1004 15.3924 99.0004 15.1924 99.0004 14.9924L99.3004 12.9924C99.3004 12.8924 99.4004 12.6924 99.5004 12.5924C96.6004 11.8924 94.5004 9.29238 94.5004 6.19238C94.5004 5.69238 94.6004 5.29238 94.6004 4.79238H86.4004C85.9004 4.79238 85.5004 4.49238 85.4004 3.99238L85.0004 2.29238C84.8004 1.69238 84.3004 1.19238 83.6004 1.19238H81.2004C80.7004 1.19238 80.4004 1.59238 80.4004 1.99238C80.4004 2.49238 80.8004 2.79238 81.2004 2.79238H82.5004C83.0004 2.79238 83.4004 3.09238 83.5004 3.59238L86.7004 16.5924C86.9004 17.1924 87.4004 17.6924 88.1004 17.6924H101.2C101.9 17.6924 102.4 17.2924 102.6 16.5924L103.7 12.1924C103 12.4924 102.3 12.5924 101.6 12.6924C101.8 12.9924 101.8 13.0924 101.7 13.1924ZM87.0004 9.59238C86.9004 9.09238 86.7004 8.59238 86.6004 8.19238L86.5004 7.79238C86.4004 7.59238 86.5004 7.39238 86.6004 7.19238C86.7004 6.99238 87.0004 6.89238 87.2004 6.89238H88.1004C88.6004 6.89238 89.0004 7.19238 89.0004 7.69238L89.3004 9.49238C89.3004 9.69238 89.3004 9.89238 89.1004 10.0924C89.0004 10.2924 88.7004 10.3924 88.5004 10.3924H88.0004C87.5004 10.2924 87.1004 9.99238 87.0004 9.59238ZM90.1004 15.5924C90.0004 15.7924 89.7004 15.8924 89.5004 15.8924H89.4004C88.9004 15.8924 88.5004 15.5924 88.4004 15.0924L88.3004 14.8924C88.2004 14.3924 88.0004 13.7924 87.8004 13.0924C87.7004 12.8924 87.8004 12.6924 87.9004 12.4924C88.0004 12.2924 88.3004 12.1924 88.5004 12.1924H89.0004C89.5004 12.1924 89.9004 12.4924 90.0004 12.9924L90.3004 14.9924C90.3004 15.1924 90.3004 15.4924 90.1004 15.5924ZM93.8004 15.1924C93.8004 15.5924 93.5004 15.8924 93.1004 15.8924C92.7004 15.8924 92.3004 15.5924 92.3004 15.1924L92.0004 13.0924C92.0004 12.8924 92.0004 12.6924 92.2004 12.4924C92.3004 12.2924 92.6004 12.1924 92.8004 12.1924H93.1004C93.6004 12.1924 94.0004 12.5924 94.0004 13.0924V15.1924H93.8004ZM93.8004 9.49238C93.8004 9.99238 93.4004 10.3924 92.9004 10.3924H92.2004C91.7004 10.3924 91.3004 10.0924 91.2004 9.59238L91.0004 7.69238C91.0004 7.49238 91.0004 7.29238 91.2004 7.09238C91.4004 6.89238 91.6004 6.79238 91.8004 6.79238H93.0004C93.5004 6.79238 93.8004 7.19238 93.8004 7.69238V9.49238ZM97.6004 13.0924L97.3004 15.1924C97.2004 15.5924 96.9004 15.8924 96.5004 15.8924C96.1004 15.8924 95.8004 15.5924 95.8004 15.1924V13.0924C95.8004 12.5924 96.2004 12.1924 96.7004 12.1924H97.0004C97.2004 12.1924 97.4004 12.2924 97.6004 12.4924C97.6004 12.6924 97.6004 12.8924 97.6004 13.0924Z" fill="white"/>
<path d="M101.4 1.19238L102.8 3.99238L106 4.49238L103.7 6.69238L104.2 9.79238L101.4 8.39238L98.6004 9.79238L99.1004 6.69238L96.9004 4.49238L100 3.99238L101.4 1.19238Z" fill="white"/>
<path d="M88.9996 24.0928C90.3251 24.0928 91.3996 22.9735 91.3996 21.5928C91.3996 20.2121 90.3251 19.0928 88.9996 19.0928C87.6741 19.0928 86.5996 20.2121 86.5996 21.5928C86.5996 22.9735 87.6741 24.0928 88.9996 24.0928Z" fill="white"/>
<path d="M100.6 24.0928C101.926 24.0928 103 22.9735 103 21.5928C103 20.2121 101.926 19.0928 100.6 19.0928C99.2747 19.0928 98.2002 20.2121 98.2002 21.5928C98.2002 22.9735 99.2747 24.0928 100.6 24.0928Z" fill="white"/>
<path d="M27.1996 19.1925C26.0996 19.9925 24.3996 20.2925 22.0996 20.2925H18.7996C18.2996 20.2925 17.8996 20.2925 17.2996 20.2925C16.7996 20.2925 16.2996 20.1925 15.7996 20.0925C15.2996 19.9925 14.7996 19.7925 14.3996 19.6925C13.8996 19.4925 13.4996 19.1925 13.1996 18.8925C12.8996 18.5925 12.5996 18.0925 12.3996 17.5925C12.1996 17.0925 12.0996 16.4925 12.0996 15.6925V4.29248H15.0996V15.5925C15.0996 16.7925 16.1996 17.3925 18.4996 17.3925H22.5996C24.7996 17.3925 25.8996 16.7925 25.8996 15.5925V4.29248H28.8996V15.7925C28.7996 17.2925 28.2996 18.4925 27.1996 19.1925Z" fill="white"/>
<path d="M51.5004 20.4924V9.99238L45.0004 19.5924C44.8004 19.8924 44.5004 20.1924 44.2004 20.3924C43.9004 20.5924 43.6004 20.6924 43.2004 20.6924C42.5004 20.6924 41.9004 20.3924 41.4004 19.6924L34.9004 9.89238V20.4924H31.9004V5.99238C31.9004 5.39238 32.1004 4.99238 32.4004 4.69238C32.7004 4.39238 33.1004 4.19238 33.6004 4.19238C34.3004 4.19238 34.9004 4.49238 35.3004 4.99238L43.4004 16.5924L51.4004 5.09238C51.8004 4.49238 52.3004 4.19238 53.0004 4.19238C53.5004 4.19238 53.9004 4.39238 54.2004 4.69238C54.5004 4.99238 54.7004 5.49238 54.7004 6.09238V20.3924H51.5004V20.4924Z" fill="white"/>
<path d="M57.5 20.3925V4.29248H60.5V20.3925H57.5Z" fill="white"/>
<path d="M80.9 20.4925L78.4 16.0925H69L66.6 20.4925H63L72 5.39248C72.4 4.69248 73 4.29248 73.7 4.29248C74.4 4.29248 75 4.69248 75.4 5.39248L84.2 20.4925H80.9ZM73.7 8.29248L70.8 13.0925H76.6L73.7 8.29248Z" fill="white"/>
<path d="M9.1 13.1925C9.1 18.0925 7.3 20.1925 4.1 20.8925C1 21.4925 0 21.4925 0 21.4925V18.1925C1.2 18.0925 3.1 17.8925 4.3 17.4925C5.4 17.0925 6.2 15.9925 6.2 13.1925L6.3 7.29248V4.29248H9.3L9.1 13.1925Z" fill="white"/>
</svg>
