<svg width="226" height="12" viewBox="0 0 226 12" fill="none" xmlns="http://www.w3.org/2000/svg">
<circle cx="6" cy="6" r="5" stroke="white" stroke-width="2"/>
<circle cx="22.5" cy="6" r="1.5" fill="white" fill-opacity="0.3"/>
<circle cx="35.5" cy="6" r="1.5" fill="white" fill-opacity="0.3"/>
<circle cx="48.5" cy="6" r="1.5" fill="white" fill-opacity="0.3"/>
<circle cx="61.5" cy="6" r="1.5" fill="white" fill-opacity="0.3"/>
<circle cx="74.5" cy="6" r="1.5" fill="white" fill-opacity="0.3"/>
<circle cx="87.5" cy="6" r="1.5" fill="white" fill-opacity="0.3"/>
<circle cx="100.5" cy="6" r="1.5" fill="white" fill-opacity="0.3"/>
<circle cx="113.5" cy="6" r="1.5" fill="white" fill-opacity="0.3"/>
<circle cx="126.5" cy="6" r="1.5" fill="white" fill-opacity="0.3"/>
<circle cx="139.5" cy="6" r="1.5" fill="white" fill-opacity="0.3"/>
<circle cx="152.5" cy="6" r="1.5" fill="white" fill-opacity="0.3"/>
<circle cx="165.5" cy="6" r="1.5" fill="white" fill-opacity="0.3"/>
<circle cx="178.5" cy="6" r="1.5" fill="white" fill-opacity="0.3"/>
<circle cx="191.5" cy="6" r="1.5" fill="white" fill-opacity="0.3"/>
<circle cx="204.5" cy="6" r="1.5" fill="white" fill-opacity="0.3"/>
<path d="M219.492 11.5453L225.401 7.09035C226.2 6.48817 226.2 5.51184 225.401 4.90965L219.492 0.454728C218.203 -0.516668 216 0.171314 216 1.54507L216 10.4549C216 11.8287 218.203 12.5167 219.492 11.5453Z" fill="white"/>
</svg>
