<svg width="20" height="21" viewBox="0 0 20 21" fill="none" xmlns="http://www.w3.org/2000/svg">
<g clip-path="url(#clip0)">
<path d="M15.2143 0.5C13.9362 0.5 12.7344 0.998064 11.8305 1.90198L8.10379 5.62872C8.3886 5.58895 8.67315 5.54578 8.96429 5.54578C9.76704 5.54578 10.5536 5.70172 11.2768 5.99089L13.5981 3.66955C14.0302 3.23802 14.604 2.99998 15.2143 2.99998C16.4747 2.99998 17.5001 4.02536 17.5001 5.28575C17.5001 5.89612 17.2621 6.46983 16.8305 6.90194L12.6521 11.0804C11.7878 11.9435 10.284 11.9441 9.41968 11.081L7.65332 12.8499C8.55666 13.7526 9.75843 14.25 11.0359 14.25C12.314 14.25 13.5157 13.7519 14.4197 12.848L18.5982 8.66955C19.5021 7.76563 20.0001 6.56382 20.0001 5.28575C20.0001 2.64661 17.8535 0.5 15.2143 0.5V0.5Z" fill="white"/>
<path d="M8.7014 15.0313L6.40198 17.3308C5.96987 17.7623 5.39612 18.0003 4.78578 18.0003C3.5254 18.0003 2.50002 16.9749 2.50002 15.7146C2.50002 15.1042 2.73805 14.5305 3.16959 14.0984L7.34807 9.91988C8.21234 9.05685 9.71623 9.05623 10.5805 9.91926L12.3469 8.15045C10.5396 6.34502 7.38837 6.34444 5.5805 8.15227L1.40198 12.3308C0.498025 13.2347 0 14.4364 0 15.7145C0 18.3537 2.14661 20.5003 4.78575 20.5003C6.06382 20.5003 7.26559 20.0022 8.16955 19.0983L11.8468 15.421C11.5783 15.4571 11.3112 15.5003 11.0357 15.5003C10.2206 15.5003 9.43114 15.3373 8.7014 15.0313Z" fill="white"/>
</g>
<defs>
<clipPath id="clip0">
<rect width="20" height="20" fill="white" transform="translate(0 0.5)"/>
</clipPath>
</defs>
</svg>
