<svg width="24" height="45" viewBox="0 0 24 45" fill="none" xmlns="http://www.w3.org/2000/svg">
<path fill-rule="evenodd" clip-rule="evenodd" d="M12.4172 43.541C11.9221 43.7434 11.3371 43.2226 11.1433 42.4786C9.6894 36.8978 5.89089 33.5517 1.99623 34.4211C1.47702 34.5369 0.888877 34.0244 0.756229 33.2691C0.656526 32.7014 0.851967 32.1785 1.23467 32.0618C6.23897 30.536 11.2271 34.93 12.8632 42.3052C12.9883 42.8692 12.7893 43.3889 12.4172 43.541Z" fill="white"/>
<path fill-rule="evenodd" clip-rule="evenodd" d="M11.5828 43.541C12.0779 43.7434 12.6629 43.2225 12.8567 42.4785C14.3106 36.8978 18.1091 33.5517 22.0038 34.421C22.523 34.5369 23.1111 34.0244 23.2438 33.2691C23.3435 32.7014 23.148 32.1785 22.7653 32.0618C17.761 30.536 12.7729 34.93 11.1368 42.3052C11.0117 42.8692 11.2107 43.3889 11.5828 43.541Z" fill="white"/>
<path d="M12 42L12 1" stroke="white" stroke-width="2" stroke-linecap="round"/>
</svg>
