<svg width="197" height="40" viewBox="0 0 197 40" fill="none" xmlns="http://www.w3.org/2000/svg">
<path d="M50.4897 33.6604C49.0361 33.6604 47.7226 33.5027 46.5668 33.17C45.4109 32.8372 44.4302 32.3819 43.6071 31.7689C42.7839 31.1735 42.1535 30.4379 41.6806 29.5973C41.2078 28.7567 40.9451 27.8285 40.875 26.8302H46.4617C46.6368 27.7935 47.0747 28.5115 47.7577 29.0194C48.4407 29.5273 49.3689 29.7724 50.5247 29.7724C51.5755 29.7724 52.3986 29.5798 52.9766 29.177C53.5545 28.7742 53.8522 28.2138 53.8522 27.4782C53.8522 27.0229 53.7121 26.6551 53.4319 26.3924C53.1517 26.1122 52.7839 25.8845 52.2936 25.7094C51.8207 25.5343 51.2603 25.3942 50.6473 25.2716C50.0344 25.1665 49.3689 25.0439 48.6683 24.9213C47.7577 24.7462 46.882 24.536 46.0239 24.3259C45.1657 24.0982 44.3951 23.7654 43.7296 23.3101C43.0466 22.8548 42.5037 22.2593 42.0834 21.5413C41.6631 20.8057 41.4529 19.86 41.4529 18.6691C41.4529 17.6358 41.6806 16.7252 42.1184 15.9546C42.5563 15.184 43.1517 14.5185 43.9048 13.9931C44.6578 13.4677 45.551 13.0649 46.5843 12.8022C47.6176 12.5395 48.7209 12.3994 49.9118 12.3994C52.6964 12.3994 54.8155 12.9423 56.2515 14.0456C57.6876 15.1315 58.5458 16.5675 58.8085 18.3189H53.3093C52.924 16.8828 51.8032 16.1647 49.9118 16.1647C49.0011 16.1647 48.2831 16.3399 47.7402 16.6901C47.1972 17.0404 46.9345 17.5483 46.9345 18.1963C46.9345 18.5816 47.0571 18.8793 47.3198 19.1245C47.565 19.3696 47.9153 19.5623 48.3706 19.7024C48.826 19.86 49.3514 19.9826 49.9468 20.0877C50.5423 20.1928 51.1902 20.2978 51.8733 20.4204C52.7839 20.578 53.6771 20.7707 54.5878 20.9984C55.4985 21.2435 56.3041 21.5938 57.0396 22.0667C57.7752 22.5395 58.3706 23.1875 58.826 23.9756C59.2988 24.7637 59.5265 25.797 59.5265 27.0404C59.5265 28.1262 59.2988 29.0719 58.8435 29.9125C58.3881 30.7357 57.7577 31.4362 56.9521 31.9791C56.1465 32.5395 55.1832 32.9423 54.0799 33.2225C53.0116 33.5203 51.8032 33.6604 50.4897 33.6604Z" fill="white"/>
<path d="M74.7812 33.0295V30.1574H74.6761C73.9406 31.3308 73.1 32.2064 72.1543 32.7668C71.191 33.3273 70.0352 33.5899 68.6516 33.5899C66.3574 33.5899 64.6236 32.9244 63.4152 31.5759C62.2068 30.2274 61.6113 28.4586 61.6113 26.2344V12.9595H67.5308V25.0961C67.5308 26.2344 67.7935 27.0926 68.3364 27.7055C68.8793 28.301 69.6674 28.6162 70.7357 28.6162C71.9441 28.6162 72.8898 28.2134 73.5553 27.4078C74.2383 26.6022 74.5711 25.5689 74.5711 24.308V12.9595H80.4205V33.0295H74.7812Z" fill="white"/>
<path d="M89.2639 16.5499H89.369C90.017 15.1488 90.8051 14.1331 91.6982 13.5376C92.6089 12.9422 93.6772 12.627 94.9382 12.627C95.5336 12.627 95.9539 12.6795 96.1816 12.7846V17.9509H96.024C95.6037 17.8809 95.1833 17.8459 94.7805 17.8459C93.1693 17.8284 91.8909 18.3012 90.9101 19.2995C89.9469 20.2977 89.4565 21.7688 89.4565 23.7303V33.0473H83.5371V12.9597H89.2289V16.5499H89.2639Z" fill="white"/>
<path d="M107.548 33.6253C105.919 33.6253 104.448 33.3626 103.134 32.8197C101.821 32.2768 100.717 31.5238 99.7892 30.578C98.8785 29.6148 98.1605 28.5115 97.6701 27.2155C97.1798 25.9371 96.9346 24.536 96.9346 23.0299C96.9346 21.5238 97.1798 20.1227 97.6876 18.8267C98.1955 17.5308 98.896 16.4099 99.8067 15.4467C100.717 14.4835 101.786 13.7479 103.047 13.205C104.308 12.6621 105.691 12.3994 107.232 12.3994C108.668 12.3994 109.947 12.6271 111.103 13.0824C112.241 13.5378 113.257 14.1682 114.132 14.9738C115.271 16.0772 116.094 17.4432 116.619 19.0894C117.145 20.7357 117.39 22.5395 117.372 24.5185H102.749C102.942 26.0246 103.449 27.2155 104.255 28.0562C105.061 28.9143 106.182 29.3346 107.618 29.3346C108.546 29.3346 109.316 29.1595 109.894 28.8267C110.49 28.494 110.945 28.0036 111.278 27.3731H117.005C116.759 28.2488 116.357 29.0719 115.814 29.8425C115.271 30.6131 114.605 31.2786 113.817 31.839C113.029 32.3994 112.101 32.8372 111.05 33.1525C109.999 33.4677 108.826 33.6253 107.548 33.6253ZM107.25 16.5851C105.884 16.5851 104.868 16.9879 104.15 17.7935C103.449 18.5991 102.994 19.6849 102.784 21.0684H111.348C111.243 19.6674 110.84 18.564 110.104 17.7759C109.386 16.9703 108.423 16.5851 107.25 16.5851Z" fill="white"/>
<path d="M128.931 40C126.164 40 123.94 39.4571 122.259 38.3538C120.577 37.2679 119.579 35.7268 119.282 33.7303H125.043C125.236 34.3257 125.639 34.8161 126.234 35.2014C126.83 35.5867 127.705 35.7618 128.861 35.7618C130.262 35.7618 131.313 35.4291 132.014 34.746C132.697 34.063 133.047 33.1173 133.047 31.8739V31.4536C133.047 30.3678 133.082 29.4921 133.152 28.8091H132.994C131.803 30.7706 130 31.7513 127.565 31.7513C126.409 31.7513 125.306 31.5411 124.255 31.1208C123.204 30.7005 122.276 30.0876 121.471 29.2644C120.665 28.4413 120.017 27.4431 119.544 26.2697C119.071 25.0963 118.826 23.7478 118.826 22.2417C118.826 20.7881 119.036 19.4396 119.457 18.2312C119.877 17.0052 120.455 15.972 121.208 15.0963C121.961 14.2207 122.854 13.5552 123.887 13.0823C124.921 12.6094 126.042 12.3643 127.285 12.3643C128.651 12.3643 129.807 12.6094 130.753 13.0823C131.716 13.5552 132.469 14.3608 133.047 15.4991H133.117V12.9597H138.774V31.2434C138.774 32.7495 138.546 34.0455 138.073 35.1138C137.6 36.1821 136.97 37.0753 136.164 37.8108C135.289 38.5639 134.22 39.1243 132.994 39.4746C131.768 39.8249 130.42 40 128.931 40ZM128.896 27.3205C129.649 27.3205 130.297 27.1804 130.84 26.9177C131.383 26.655 131.838 26.2872 132.206 25.8143C132.574 25.3415 132.837 24.7811 132.994 24.1506C133.152 23.5201 133.239 22.8371 133.239 22.084C133.239 20.5954 132.872 19.3695 132.154 18.3713C131.418 17.373 130.332 16.8826 128.879 16.8826C127.565 16.8826 126.532 17.3555 125.779 18.3012C125.026 19.2469 124.641 20.5254 124.641 22.1366C124.641 23.7128 125.026 24.9912 125.779 25.9194C126.514 26.8651 127.565 27.3205 128.896 27.3205Z" fill="white"/>
<path d="M141.943 4.97363H147.933V10.14H141.943V4.97363ZM141.978 12.9596H147.898V33.0297H141.978V12.9596Z" fill="white"/>
<path d="M149.859 12.9597H152.872V11.2609C152.872 9.14179 153.432 7.58312 154.57 6.54984C155.218 5.97191 156.059 5.55159 157.075 5.30641C158.091 5.06123 159.246 4.93863 160.525 4.97366C160.928 4.97366 161.33 4.99117 161.733 5.00869C162.136 5.0262 162.556 5.07874 162.977 5.11377V9.33443C162.224 9.31692 161.576 9.31692 161.05 9.33443C160.525 9.35194 160.087 9.45702 159.754 9.61464C159.422 9.77226 159.176 10.0174 159.019 10.3502C158.861 10.6829 158.791 11.1208 158.791 11.6637V12.9597H162.977V16.8125H158.791V33.0297H152.872V16.8125H149.859V12.9597Z" fill="white"/>
<path d="M164.045 12.9596H167.057V6.5498H172.854V12.9596H176.777V16.7249H172.854V26.6724C172.854 27.4255 173.047 27.9333 173.432 28.196C173.817 28.4587 174.36 28.5988 175.078 28.5988C175.271 28.5988 175.498 28.5988 175.761 28.5813C176.006 28.5638 176.234 28.5463 176.444 28.5288H176.742V32.9421C176.409 32.9946 175.954 33.0472 175.376 33.1347C174.798 33.2048 174.115 33.2398 173.309 33.2398C172.381 33.2398 171.523 33.1523 170.77 32.9946C169.999 32.837 169.351 32.5393 168.791 32.119C168.231 31.6987 167.81 31.1558 167.513 30.4903C167.215 29.8248 167.057 28.9841 167.057 27.9509V16.7249H164.045V12.9596Z" fill="white"/>
<path d="M187.828 33.6604C186.374 33.6604 185.061 33.5027 183.905 33.17C182.749 32.8372 181.768 32.3819 180.945 31.7689C180.122 31.1735 179.491 30.4379 179.019 29.5973C178.546 28.7567 178.283 27.8285 178.213 26.8302H183.8C183.975 27.7935 184.413 28.5115 185.096 29.0194C185.779 29.5273 186.707 29.7724 187.863 29.7724C188.913 29.7724 189.737 29.5798 190.314 29.177C190.892 28.7742 191.19 28.2138 191.19 27.4782C191.19 27.0229 191.05 26.6551 190.77 26.3924C190.49 26.1122 190.122 25.8845 189.631 25.7094C189.159 25.5343 188.598 25.3942 187.985 25.2716C187.372 25.1665 186.707 25.0439 186.006 24.9213C185.096 24.7462 184.22 24.536 183.362 24.3259C182.504 24.0982 181.733 23.7654 181.068 23.3101C180.385 22.8548 179.842 22.2593 179.421 21.5413C179.001 20.8057 178.791 19.86 178.791 18.6691C178.791 17.6358 179.018 16.7252 179.456 15.9546C179.894 15.184 180.49 14.5185 181.243 13.9931C181.996 13.4677 182.889 13.0649 183.922 12.8022C184.955 12.5395 186.059 12.3994 187.25 12.3994C190.034 12.3994 192.153 12.9423 193.589 14.0456C195.026 15.1315 195.884 16.5675 196.146 18.3189H190.647C190.262 16.8828 189.141 16.1647 187.25 16.1647C186.339 16.1647 185.621 16.3399 185.078 16.6901C184.535 17.0404 184.272 17.5483 184.272 18.1963C184.272 18.5816 184.395 18.8793 184.658 19.1245C184.903 19.3696 185.253 19.5623 185.709 19.7024C186.164 19.86 186.689 19.9826 187.285 20.0877C187.88 20.1928 188.528 20.2978 189.211 20.4204C190.122 20.578 191.015 20.7707 191.926 20.9984C192.836 21.2435 193.642 21.5938 194.378 22.0667C195.113 22.5395 195.709 23.1875 196.164 23.9756C196.637 24.7637 196.864 25.797 196.864 27.0404C196.864 28.1262 196.637 29.0719 196.181 29.9125C195.726 30.7357 195.096 31.4362 194.29 31.9791C193.484 32.5395 192.521 32.9423 191.418 33.2225C190.349 33.5203 189.141 33.6604 187.828 33.6604Z" fill="white"/>
<path d="M21.8564 9.22942C22.9772 8.56392 23.923 7.8634 24.4834 7.30298C26.1296 5.63923 26.1296 2.92469 24.4834 1.26095C23.6953 0.437828 22.627 0 21.5061 0C20.3853 0 19.317 0.437828 18.5114 1.24343C17.0403 2.73205 15.5692 5.48161 14.711 7.79334C13.8529 5.4641 12.3818 2.71454 10.9107 1.24343C10.1226 0.437828 9.05429 0 7.93345 0C6.7951 0 5.74431 0.437828 4.93871 1.24343C3.29247 2.90718 3.29247 5.62172 4.93871 7.28546C5.49913 7.84588 6.46235 8.54641 7.56568 9.21191H0V35.289H19.4046C18.3538 33.958 15.6392 33.6252 12.5394 33.0298C7.4606 32.0666 2.32925 30.7881 2.32925 24.1506C2.32925 21.1734 3.71279 18.9142 5.97198 17.4256C8.1261 16.007 11.0508 15.2715 14.3082 15.2715C18.0911 15.2715 20.9807 16.0595 23.0298 17.4256C25.2715 18.9142 26.5324 21.0858 26.9177 23.6778H19.1068C18.5814 21.6462 16.9702 20.6305 14.2907 20.6305C11.7163 20.6305 10.0701 21.6988 10.0701 23.5201C10.0701 25.6567 13.1699 25.972 17.0753 26.6725C21.9615 27.5482 27.4606 28.8266 27.8809 35.289H29.4046V9.22942H21.8564ZM19.8949 2.94221C20.3152 2.52189 20.8757 2.27671 21.4711 2.27671C22.0666 2.27671 22.627 2.50438 23.0473 2.94221C23.923 3.81786 23.923 5.27145 23.0473 6.14711C22.1541 7.05779 19.387 8.56392 17.951 8.56392C17.6532 8.56392 17.5657 8.49387 17.5657 8.49387C17.0928 7.96848 18.4939 4.36077 19.8949 2.94221ZM6.61997 2.94221C7.04028 2.52189 7.6007 2.27671 8.19615 2.27671C8.7916 2.27671 9.35202 2.50438 9.77233 2.94221C11.1734 4.36077 12.5744 7.98599 12.1016 8.49387C12.1016 8.49387 12.014 8.56392 11.7163 8.56392C10.2627 8.56392 7.51314 7.05779 6.61997 6.14711C5.74431 5.25394 5.74431 3.81786 6.61997 2.94221Z" fill="white"/>
</svg>
