<svg width="30" height="30" viewBox="0 0 30 30" fill="none" xmlns="http://www.w3.org/2000/svg">
<path d="M7.53475 10.7907L8.25865 10.9869L7.53475 10.7907ZM12.698 5.37778L12.4667 4.66433V4.66433L12.698 5.37778ZM7.47871 10.9975L6.75481 10.8014V10.8014L7.47871 10.9975ZM7.23695 16.0843L7.97619 15.9577H7.97619L7.23695 16.0843ZM7.26508 16.2486L6.52584 16.3752L6.52584 16.3752L7.26508 16.2486ZM7.85949 21.8215L8.0092 21.0865L7.85949 21.8215ZM8.31898 21.9151L8.4687 21.1802H8.4687L8.31898 21.9151ZM21.681 21.9151L21.5313 21.1802H21.5313L21.681 21.9151ZM22.1405 21.8215L22.2902 22.5564L22.1405 21.8215ZM22.7403 16.2171L23.4796 16.3437L22.7403 16.2171ZM22.7701 16.0428L22.0309 15.9163L22.7701 16.0428ZM22.5521 11.0328L21.8267 11.2231V11.2231L22.5521 11.0328ZM22.4741 10.7354L23.1996 10.5451V10.5451L22.4741 10.7354ZM17.4588 5.38547L17.694 4.6733L17.4588 5.38547ZM22.9412 16.626L22.575 17.2805L22.9412 16.626ZM7.08496 16.6115L6.72579 15.9531L7.08496 16.6115ZM15.75 3.75C15.75 3.33579 15.4142 3 15 3C14.5858 3 14.25 3.33579 14.25 3.75H15.75ZM14.25 5.00592C14.25 5.42014 14.5858 5.75592 15 5.75592C15.4142 5.75592 15.75 5.42014 15.75 5.00592H14.25ZM11.2614 22.3792L11.3452 21.6339L10.4478 21.5331L10.5134 22.4337L11.2614 22.3792ZM18.7386 22.3792L19.4866 22.4337L19.5522 21.5331L18.6548 21.6339L18.7386 22.3792ZM18.6252 23.0965L19.3535 23.2756L18.6252 23.0965ZM18.5227 23.5132L17.7944 23.3341L18.5227 23.5132ZM15.8799 26.1462L16.0543 26.8756H16.0543L15.8799 26.1462ZM14.1201 26.1462L13.9457 26.8756L14.1201 26.1462ZM11.4773 23.5132L10.749 23.6923H10.749L11.4773 23.5132ZM11.3748 23.0965L12.1031 22.9174L11.3748 23.0965ZM8.25865 10.9869C8.88478 8.67599 10.658 6.82746 12.9292 6.09124L12.4667 4.66433C9.71701 5.55565 7.57052 7.79085 6.81085 10.5946L8.25865 10.9869ZM8.20261 11.1937L8.25865 10.9869L6.81085 10.5946L6.75481 10.8014L8.20261 11.1937ZM7.97619 15.9577C7.70471 14.3721 7.782 12.746 8.20261 11.1937L6.75481 10.8014C6.2772 12.5641 6.18945 14.4105 6.49771 16.2109L7.97619 15.9577ZM8.00433 16.122L7.97619 15.9577L6.49771 16.2109L6.52584 16.3752L8.00433 16.122ZM6.375 19.0755C6.375 18.2954 6.80692 17.6175 7.44413 17.2699L6.72579 15.9531C5.62382 16.5542 4.875 17.7273 4.875 19.0755H6.375ZM8.0092 21.0865C7.06082 20.8933 6.375 20.0542 6.375 19.0755H4.875C4.875 20.7624 6.05804 22.2199 7.70977 22.5564L8.0092 21.0865ZM8.4687 21.1802L8.0092 21.0865L7.70977 22.5564L8.16927 22.65L8.4687 21.1802ZM21.5313 21.1802C17.2209 22.0583 12.7791 22.0583 8.4687 21.1802L8.16927 22.65C12.6772 23.5683 17.3228 23.5683 21.8307 22.65L21.5313 21.1802ZM21.9908 21.0865L21.5313 21.1802L21.8307 22.65L22.2902 22.5564L21.9908 21.0865ZM23.625 19.0755C23.625 20.0542 22.9392 20.8933 21.9908 21.0865L22.2902 22.5564C23.942 22.2199 25.125 20.7624 25.125 19.0755H23.625ZM22.575 17.2805C23.2018 17.6312 23.625 18.3033 23.625 19.0755H25.125C25.125 17.7409 24.3912 16.5779 23.3075 15.9715L22.575 17.2805ZM22.0309 15.9163L22.0011 16.0905L23.4796 16.3437L23.5094 16.1694L22.0309 15.9163ZM21.8267 11.2231C22.2285 12.7547 22.2982 14.3552 22.0309 15.9163L23.5094 16.1694C23.8128 14.3976 23.7337 12.581 23.2776 10.8425L21.8267 11.2231ZM21.7487 10.9258L21.8267 11.2231L23.2776 10.8425L23.1996 10.5451L21.7487 10.9258ZM17.2236 6.09764C19.4471 6.83198 21.1512 8.64845 21.7487 10.9258L23.1996 10.5451C22.4738 7.77865 20.4024 5.56777 17.694 4.6733L17.2236 6.09764ZM12.9292 6.09124C14.3222 5.63971 15.8366 5.63954 17.2236 6.09764L17.694 4.6733C16.0008 4.11409 14.1596 4.11557 12.4667 4.66433L12.9292 6.09124ZM23.3075 15.9715C23.4218 16.0355 23.5084 16.1751 23.4796 16.3437L22.0011 16.0905C21.916 16.5876 22.1708 17.0543 22.575 17.2805L23.3075 15.9715ZM6.52584 16.3752C6.49382 16.1882 6.5901 16.0271 6.72579 15.9531L7.44413 17.2699C7.83967 17.0541 8.08647 16.6018 8.00433 16.122L6.52584 16.3752ZM14.25 3.75V5.00592H15.75V3.75H14.25ZM11.1776 23.1245C13.7179 23.4101 16.2821 23.4101 18.8224 23.1245L18.6548 21.6339C16.2259 21.907 13.7741 21.907 11.3452 21.6339L11.1776 23.1245ZM19.3535 23.2756C19.4215 22.999 19.466 22.7173 19.4866 22.4337L17.9906 22.3248C17.9761 22.5245 17.9447 22.7228 17.8969 22.9174L19.3535 23.2756ZM19.251 23.6923L19.3535 23.2756L17.8969 22.9174L17.7944 23.3341L19.251 23.6923ZM16.0543 26.8756C17.6309 26.4985 18.8633 25.269 19.251 23.6923L17.7944 23.3341C17.5401 24.3684 16.7329 25.171 15.7054 25.4168L16.0543 26.8756ZM13.9457 26.8756C14.6389 27.0415 15.3612 27.0415 16.0543 26.8756L15.7054 25.4168C15.2416 25.5277 14.7584 25.5277 14.2946 25.4168L13.9457 26.8756ZM10.749 23.6923C11.1367 25.269 12.3691 26.4985 13.9457 26.8756L14.2946 25.4168C13.2671 25.171 12.4599 24.3684 12.2056 23.3341L10.749 23.6923ZM10.6465 23.2756L10.749 23.6923L12.2056 23.3341L12.1031 22.9174L10.6465 23.2756ZM10.5134 22.4337C10.534 22.7173 10.5785 22.999 10.6465 23.2756L12.1031 22.9174C12.0553 22.7228 12.0239 22.5245 12.0094 22.3248L10.5134 22.4337Z" fill="white"/>
</svg>
