<svg width="424" height="314" viewBox="0 0 424 314" fill="none" xmlns="http://www.w3.org/2000/svg">
<g filter="url(#filter0_b)">
<rect x="0.55957" y="34.9634" width="400" height="280" rx="30" transform="rotate(-5 0.55957 34.9634)" fill="url(#paint0_angular)"/>
<rect x="1.64292" y="35.8724" width="398" height="278" rx="29" transform="rotate(-5 1.64292 35.8724)" stroke="url(#paint1_linear)" stroke-width="2"/>
</g>
<path d="M210.581 135.04L214.183 147.412C214.81 149.567 216.586 151.191 218.788 151.623L233.873 154.585L219.531 160.121C217.438 160.929 215.971 162.837 215.727 165.067L214.329 177.877L210.727 165.504C210.1 163.35 208.324 161.726 206.122 161.294L191.037 158.332L205.379 152.796C207.472 151.988 208.939 150.08 209.183 147.85L210.581 135.04Z" fill="#100F15"/>
<path d="M336.896 276.57L333.149 233.733C330.261 200.722 354.68 171.62 387.691 168.732L400.642 167.599" stroke="#100F15" stroke-width="15"/>
<path d="M310 278.923L305.642 229.113C301.791 185.098 334.35 146.296 378.365 142.445L401.277 140.44" stroke="#100F15" stroke-width="15"/>
<path d="M285.094 281.101L280.126 224.318C275.313 169.3 316.012 120.797 371.03 115.983L398.924 113.543" stroke="#100F15" stroke-width="15"/>
<path d="M52.2653 93.6808C52.1865 92.7802 52.1102 91.9076 52.0363 91.0628C51.9617 90.2101 51.8773 89.2457 51.7832 88.1699L51.2738 82.3481C51.1755 81.2244 51.088 80.2242 51.0113 79.3476C50.9339 78.4629 50.8548 77.5584 50.7739 76.6339L55.0296 76.2616C55.7956 77.2145 56.5075 78.0998 57.1653 78.9176C57.8223 79.7274 58.4844 80.5488 59.1516 81.3818L61.7048 84.5433L62.0515 84.513L61.7817 81.4288C61.6834 80.3051 61.5959 79.3049 61.5192 78.4282C61.4418 77.5436 61.3626 76.6391 61.2818 75.7146L65.8842 75.3119C65.9651 76.2364 66.0442 77.141 66.1216 78.0256C66.1983 78.9022 66.2858 79.9024 66.3841 81.0261L66.8934 86.8479C66.9876 87.9238 67.0719 88.8881 67.1465 89.7408C67.2205 90.5856 67.2968 91.4583 67.3756 92.3588L63.1677 92.727C62.538 91.9549 61.8859 91.1567 61.2115 90.3324C60.5451 89.5073 59.8199 88.6071 59.0359 87.6317L56.4316 84.4385L56.0969 84.4678L56.3856 87.7672C56.4797 88.8431 56.5641 89.8074 56.6387 90.6601C56.7126 91.5049 56.7889 92.3776 56.8677 93.2781L52.2653 93.6808ZM70.1382 92.1171C70.0594 91.2166 69.983 90.3439 69.9091 89.4991C69.8345 88.6464 69.7501 87.6821 69.656 86.6062L69.1456 80.7725C69.048 79.6567 68.9609 78.6605 68.8842 77.7839C68.8068 76.8993 68.7276 75.9947 68.6468 75.0702L80.3859 74.0432L80.73 77.9762C80.0287 78.0375 79.2756 78.1034 78.4706 78.1739C77.6737 78.2436 76.7333 78.3259 75.6494 78.4207L71.7762 78.7595L73.5453 75.4367C73.6262 76.3612 73.7054 77.2657 73.7827 78.1503C73.8594 79.027 73.9469 80.0272 74.0453 81.1509L74.4155 85.3827C74.5096 86.4586 74.594 87.4229 74.6686 88.2757C74.7432 89.1284 74.8199 90.0051 74.8987 90.9056L72.8902 87.9133L76.7874 87.5723C77.6959 87.4928 78.5486 87.4182 79.3456 87.3485C80.1505 87.2781 80.9236 87.2105 81.6647 87.1456L82.0088 91.0786L70.1382 92.1171ZM73.239 85.0159L72.9263 81.4415L75.9388 81.1779C76.951 81.0894 77.8196 81.0134 78.5449 80.9499C79.2701 80.8865 79.9714 80.8251 80.6488 80.7659L80.9615 84.3402C80.2523 84.4023 79.535 84.465 78.8098 84.5285C78.0845 84.5919 77.2278 84.6669 76.2396 84.7533L73.239 85.0159ZM87.8098 90.5711C87.5208 89.7451 87.2109 88.8648 86.8801 87.93C86.5567 86.9866 86.2554 86.1136 85.9764 85.3108L84.156 80.0615C83.8339 79.1341 83.4803 78.121 83.0951 77.0224C82.7178 75.9231 82.3578 74.8825 82.0149 73.9007L87.6095 73.4112C87.8352 74.3391 88.0774 75.3177 88.3361 76.3471C88.6028 77.3757 88.849 78.354 89.0747 79.2819L90.3696 84.4446L90.7163 84.4143L91.1594 79.0152C91.2187 78.4077 91.2749 77.7643 91.3279 77.0851C91.3881 76.3973 91.4444 75.7097 91.4967 75.0226C91.557 74.3347 91.6161 73.679 91.674 73.0556L96.8143 72.6059C97.072 73.531 97.337 74.4955 97.6096 75.4996C97.8821 76.5037 98.1479 77.4762 98.4069 78.4172L99.8255 83.6174L100.16 83.5881L100.544 78.1941C100.608 77.2731 100.678 76.2832 100.754 75.2245C100.83 74.1659 100.895 73.1724 100.951 72.244L106.545 71.7546C106.371 72.7897 106.189 73.8817 106.001 75.0305C105.811 76.1713 105.634 77.2148 105.467 78.1609L104.541 83.6866C104.392 84.5509 104.236 85.472 104.073 86.45C103.917 87.4273 103.768 88.3397 103.625 89.1874L97.708 89.7051C97.4682 88.8909 97.2129 88.0379 96.9421 87.1461C96.6786 86.2456 96.4266 85.3843 96.186 84.5622L94.8176 79.9358L94.4709 79.9662L93.9745 84.7557C93.8949 85.5898 93.8038 86.4771 93.7014 87.4176C93.607 88.3574 93.516 89.2447 93.4284 90.0795L87.8098 90.5711ZM123.032 87.8268C121.573 87.9544 120.251 87.8533 119.066 87.5233C117.889 87.1927 116.867 86.6717 116.002 85.9604C115.136 85.2411 114.445 84.362 113.928 83.3231C113.419 82.2755 113.108 81.1022 112.994 79.8031C112.841 78.0498 113.064 76.4724 113.664 75.0707C114.264 73.6691 115.209 72.5304 116.497 71.6548C117.786 70.7792 119.398 70.2566 121.335 70.0872C121.933 70.0349 122.518 70.0199 123.09 70.0421C123.67 70.0636 124.224 70.1115 124.753 70.1857C125.281 70.2599 125.775 70.3572 126.236 70.4776C126.703 70.5892 127.119 70.7094 127.484 70.8382L127.534 75.3992C126.822 75.0679 126.141 74.8063 125.489 74.6144C124.838 74.4224 124.229 74.295 123.661 74.2322C123.093 74.1695 122.575 74.1587 122.104 74.1998C121.499 74.2528 120.934 74.4026 120.409 74.6493C119.892 74.8872 119.447 75.2233 119.076 75.6573C118.704 76.0913 118.429 76.6213 118.251 77.2472C118.08 77.8645 118.03 78.5715 118.1 79.3685C118.157 80.03 118.304 80.6516 118.54 81.2332C118.783 81.8142 119.112 82.3155 119.527 82.737C119.949 83.1577 120.462 83.4742 121.067 83.6863C121.671 83.8904 122.364 83.9583 123.145 83.89C123.663 83.8447 124.139 83.7829 124.574 83.7047C125.016 83.6178 125.432 83.5052 125.821 83.3667C126.218 83.2196 126.605 83.0492 126.981 82.8557C127.366 82.6614 127.752 82.4349 128.139 82.1762L129.102 86.4405C128.849 86.5751 128.507 86.7094 128.077 86.8434C127.647 86.9773 127.157 87.1086 126.606 87.2371C126.064 87.3729 125.488 87.4915 124.878 87.593C124.269 87.6945 123.653 87.7725 123.032 87.8268ZM124.508 86.9388C124.428 86.0303 124.358 85.2293 124.298 84.536C124.236 83.8347 124.175 83.1373 124.115 82.444C124.043 81.6311 123.981 80.9138 123.926 80.2922C123.872 79.6706 123.816 79.037 123.76 78.3915L128.362 77.9888C128.419 78.6343 128.474 79.2679 128.529 79.8895C128.583 80.5112 128.646 81.2284 128.717 82.0413C128.778 82.7347 128.838 83.424 128.898 84.1094C128.958 84.7948 129.026 85.5718 129.102 86.4405L124.508 86.9388ZM131.862 86.717C131.783 85.8164 131.707 84.9438 131.633 84.099C131.558 83.2463 131.474 82.2819 131.38 81.2061L130.87 75.3843C130.772 74.2606 130.685 73.2604 130.608 72.3838C130.531 71.4991 130.451 70.5946 130.371 69.6701L135.403 69.2298C135.484 70.1543 135.563 71.0588 135.641 71.9434C135.717 72.8201 135.805 73.8203 135.903 74.944L136.413 80.7657C136.507 81.8416 136.591 82.806 136.666 83.6587C136.74 84.5035 136.816 85.3761 136.895 86.2767L131.862 86.717ZM139.775 86.0247C139.696 85.1242 139.62 84.2515 139.546 83.4067C139.471 82.554 139.387 81.5897 139.293 80.5138L138.783 74.692C138.685 73.5683 138.597 72.5681 138.521 71.6915C138.443 70.8068 138.364 69.9023 138.283 68.9778L149.867 67.9644L150.224 72.0408C149.53 72.1015 148.781 72.167 147.976 72.2374C147.179 72.3072 146.239 72.3894 145.155 72.4843L141.497 72.8043L143.17 69.3453C143.251 70.2698 143.33 71.1743 143.407 72.059C143.484 72.9356 143.572 73.9358 143.67 75.0595L144.11 80.0923C144.204 81.1682 144.289 82.1325 144.363 82.9852C144.437 83.83 144.514 84.7027 144.592 85.6032L139.775 86.0247ZM142.785 79.4012L142.444 75.504L145.421 75.2436C146.433 75.1551 147.301 75.0791 148.027 75.0156C148.752 74.9522 149.453 74.8908 150.131 74.8316L150.472 78.7287C149.754 78.7914 149.033 78.8545 148.308 78.918C147.591 78.9807 146.738 79.0553 145.75 79.1418L142.785 79.4012ZM157.529 84.4714C157.451 83.5708 157.374 82.6982 157.3 81.8534C157.226 81.0007 157.141 80.0363 157.047 78.9604L156.607 73.9277C156.509 72.804 156.421 71.8038 156.344 70.9271C156.267 70.0425 156.188 69.138 156.107 68.2135L158.252 71.5311L155.861 71.7403C154.993 71.8163 154.224 71.8836 153.554 71.9422C152.893 72 152.263 72.0551 151.666 72.1074L151.292 67.8397L165.697 66.5794L166.07 70.8471C165.473 70.8994 164.839 70.9549 164.17 71.0134C163.508 71.0713 162.743 71.1382 161.875 71.2142L159.484 71.4234L161.02 67.7836C161.101 68.7081 161.18 69.6127 161.258 70.4973C161.334 71.3739 161.422 72.3741 161.52 73.4978L161.96 78.5306C162.055 79.6065 162.139 80.5708 162.214 81.4235C162.288 82.2683 162.364 83.141 162.443 84.0415L157.529 84.4714ZM182.194 82.6628C180.792 82.7855 179.507 82.6892 178.339 82.3738C177.179 82.0577 176.166 81.548 175.302 80.8446C174.437 80.1413 173.746 79.2662 173.229 78.2193C172.712 77.1724 172.394 75.9755 172.276 74.6286C172.127 72.9232 172.336 71.367 172.904 69.9602C173.472 68.5534 174.379 67.4059 175.626 66.5178C176.873 65.6218 178.445 65.0908 180.341 64.9248C180.883 64.8774 181.424 64.8662 181.965 64.8912C182.512 64.9076 183.042 64.9535 183.555 65.0291C184.067 65.0968 184.548 65.1872 185 65.3002C185.459 65.4046 185.868 65.5335 186.226 65.6868L186.277 70.2598C185.621 69.9157 184.995 69.6492 184.4 69.4603C183.813 69.2628 183.259 69.1305 182.739 69.0636C182.219 68.9966 181.736 68.9827 181.29 69.0217C180.469 69.0935 179.752 69.337 179.138 69.7521C178.523 70.1592 178.059 70.7338 177.747 71.4759C177.434 72.218 177.324 73.115 177.416 74.167C177.472 74.8125 177.622 75.4218 177.865 75.9948C178.107 76.5598 178.439 77.0488 178.86 77.4616C179.29 77.8737 179.811 78.1855 180.424 78.3969C181.036 78.6003 181.74 78.6672 182.537 78.5974C182.888 78.5668 183.245 78.5115 183.607 78.4316C183.969 78.3437 184.332 78.2276 184.697 78.0833C185.062 77.9389 185.423 77.7508 185.78 77.5188C186.145 77.286 186.51 77.0092 186.876 76.6881L187.507 81.1501C187.179 81.3554 186.811 81.5442 186.4 81.7167C185.989 81.8891 185.553 82.0357 185.089 82.1566C184.635 82.2847 184.162 82.3903 183.672 82.4734C183.181 82.5564 182.689 82.6196 182.194 82.6628ZM189.005 81.7177C189.204 80.7847 189.415 79.7986 189.637 78.7593C189.859 77.712 190.074 76.7255 190.282 75.7998L191.575 69.7843C191.808 68.6878 192.019 67.7056 192.208 66.8378C192.397 65.9701 192.586 65.0943 192.773 64.2106L199.073 63.6594C199.431 64.5356 199.774 65.3849 200.103 66.2073C200.44 67.0291 200.813 67.9401 201.222 68.9403L203.527 74.641C203.904 75.5556 204.288 76.4978 204.678 77.4675C205.076 78.4365 205.454 79.363 205.813 80.2472L200.72 80.6927C200.438 79.8581 200.146 79.0003 199.844 78.1192C199.55 77.2375 199.265 76.4072 198.988 75.6284L196.409 68.0363L196.062 68.0666L194.796 75.8988C194.662 76.7537 194.519 77.6496 194.368 78.5863C194.217 79.523 194.071 80.4232 193.93 81.2868L189.005 81.7177ZM193.367 78.1559L193.598 74.4617L200.639 73.8457L201.4 77.4531L193.367 78.1559ZM207.543 80.0958C207.464 79.1952 207.388 78.3225 207.314 77.4778C207.239 76.625 207.155 75.6607 207.061 74.5848L206.55 68.7511C206.453 67.6354 206.366 66.6392 206.289 65.7625C206.212 64.8779 206.132 63.9734 206.052 63.0489C206.601 63.0008 207.259 62.9433 208.024 62.8763C208.797 62.8087 209.614 62.7372 210.475 62.6619C211.343 62.5859 212.196 62.5113 213.033 62.4381C214.475 62.3119 215.716 62.3559 216.755 62.5702C217.793 62.7845 218.612 63.2389 219.211 63.9334C219.81 64.6278 220.166 65.6285 220.28 66.9355C220.37 67.9557 220.245 68.866 219.905 69.6667C219.574 70.4666 219 71.119 218.185 71.624C217.37 72.129 216.289 72.4404 214.942 72.5582L216.772 70.7598L219.191 74.0295C219.564 74.5349 219.961 75.0744 220.38 75.648C220.808 76.2209 221.222 76.7829 221.624 77.334C222.025 77.8772 222.38 78.356 222.689 78.7707L217.13 79.257C216.716 78.6508 216.316 78.0715 215.93 77.519C215.553 76.9658 215.18 76.4242 214.812 75.8942L211.866 71.5385L214.943 73.2568L210.95 73.6061L210.673 70.4382L213.303 70.2081C213.733 70.1705 214.103 70.0819 214.412 69.9424C214.721 69.795 214.945 69.5665 215.087 69.257C215.236 68.9388 215.287 68.5088 215.239 67.9669C215.207 67.6003 215.133 67.3016 215.016 67.0709C214.899 66.8322 214.746 66.6448 214.557 66.5087C214.369 66.3726 214.16 66.2825 213.932 66.2382C213.703 66.194 213.465 66.1827 213.218 66.2043L207.683 66.6885L210.962 63.4143C211.044 64.3547 211.124 65.2672 211.202 66.1518C211.278 67.0285 211.365 68.0207 211.462 69.1285L211.902 74.1612C211.996 75.2371 212.081 76.2015 212.155 77.0542C212.229 77.899 212.306 78.7716 212.384 79.6722L207.543 80.0958ZM224.366 78.624C224.287 77.7234 224.211 76.8507 224.137 76.006C224.062 75.1532 223.978 74.1889 223.884 73.113L223.374 67.2913C223.276 66.1676 223.188 65.1674 223.112 64.2907C223.034 63.4061 222.955 62.5016 222.874 61.5771C223.52 61.5206 224.233 61.4582 225.014 61.3899C225.803 61.3208 226.628 61.2487 227.489 61.1734C228.357 61.0974 229.226 61.0214 230.095 60.9454C231.386 60.8324 232.55 60.9193 233.587 61.206C234.632 61.492 235.533 61.9673 236.289 62.6319C237.053 63.2878 237.665 64.1257 238.123 65.1456C238.582 66.1655 238.871 67.3529 238.989 68.7077C239.094 69.9111 239.029 71.0491 238.794 72.1217C238.566 73.1857 238.131 74.1392 237.49 74.9822C236.849 75.8253 235.962 76.5173 234.829 77.0581C233.695 77.5909 232.283 77.9313 230.594 78.0791C229.781 78.1502 229.016 78.2171 228.299 78.2799C227.581 78.3426 226.896 78.4026 226.243 78.4598C225.597 78.5162 224.971 78.571 224.366 78.624ZM228.962 74.2949L230.229 74.1841C231.225 74.0969 232 73.8243 232.555 73.3663C233.108 72.9002 233.481 72.3014 233.674 71.5698C233.867 70.8303 233.923 70.0062 233.844 69.0977C233.784 68.4203 233.655 67.8132 233.455 67.2766C233.264 66.7392 232.991 66.2853 232.638 65.9147C232.291 65.5354 231.865 65.2595 231.361 65.0868C230.856 64.9142 230.26 64.8578 229.575 64.9178L228.152 65.0423C228.191 65.4886 228.232 65.9468 228.273 66.417C228.314 66.8872 228.362 67.4371 228.417 68.0667L228.711 71.4259C228.762 72.0077 228.807 72.5257 228.847 72.9799C228.887 73.4342 228.925 73.8725 228.962 74.2949Z" fill="#100F15"/>
<g filter="url(#filter1_b)">
<rect x="13.0186" y="45.4173" width="377" height="257" rx="23.5" transform="rotate(-5 13.0186 45.4173)" stroke="#100F15" stroke-width="3"/>
</g>
<defs>
<filter id="filter0_b" x="-41.9414" y="-42.4004" width="507.884" height="398.799" filterUnits="userSpaceOnUse" color-interpolation-filters="sRGB">
<feFlood flood-opacity="0" result="BackgroundImageFix"/>
<feGaussianBlur in="BackgroundImage" stdDeviation="22.5"/>
<feComposite in2="SourceAlpha" operator="in" result="effect1_backgroundBlur"/>
<feBlend mode="normal" in="SourceGraphic" in2="effect1_backgroundBlur" result="shape"/>
</filter>
<filter id="filter1_b" x="-31.5244" y="-31.9834" width="487.05" height="377.965" filterUnits="userSpaceOnUse" color-interpolation-filters="sRGB">
<feFlood flood-opacity="0" result="BackgroundImageFix"/>
<feGaussianBlur in="BackgroundImage" stdDeviation="22.5"/>
<feComposite in2="SourceAlpha" operator="in" result="effect1_backgroundBlur"/>
<feBlend mode="normal" in="SourceGraphic" in2="effect1_backgroundBlur" result="shape"/>
</filter>
<radialGradient id="paint0_angular" cx="0" cy="0" r="1" gradientUnits="userSpaceOnUse" gradientTransform="translate(200.56 174.963) rotate(51.7556) scale(152.044 174.758)">
<stop offset="0.0371284" stop-color="#A082F4"/>
<stop offset="0.296875" stop-color="#A6E8F7"/>
<stop offset="0.567708" stop-color="#FFF5DD"/>
<stop offset="0.848958" stop-color="#FFF4D9"/>
<stop offset="1" stop-color="#CC9AC7"/>
</radialGradient>
<linearGradient id="paint1_linear" x1="237.597" y1="327.283" x2="190.867" y2="36.601" gradientUnits="userSpaceOnUse">
<stop stop-color="white"/>
<stop offset="1" stop-color="white" stop-opacity="0.17"/>
</linearGradient>
</defs>
</svg>
