<svg width="21" height="25" viewBox="0 0 21 25" fill="none" xmlns="http://www.w3.org/2000/svg">
<path d="M8.25491 21.6735C7.74207 21.792 7.1875 22.0688 7.1875 22.6731C7.21732 23.2483 7.55483 23.7584 8.02234 24.0811C8.62582 24.5536 9.33543 24.8521 10.0784 24.9597C10.4744 25.0141 10.8775 25.0129 11.2878 24.9597C12.0296 24.8521 12.7392 24.5536 13.3439 24.0823C13.8102 23.7584 14.1477 23.2483 14.1775 22.6731C14.1775 22.0688 13.623 21.792 13.1101 21.6735C12.5102 21.5466 8.8548 21.5466 8.25491 21.6735Z" fill="white"/>
<path fill-rule="evenodd" clip-rule="evenodd" d="M11.817 1.07039C11.4638 1.02385 11.1085 1 10.7543 1H10.6469C8.20322 1 5.73328 2.13004 4.19239 4.01423C3.156 5.30622 2.6527 6.62601 2.6527 8.64436V9.1556C2.6527 10.6627 2.2806 11.551 1.37659 12.5747C0.713481 13.3289 0.5 14.297 0.5 15.3472C0.5 16.3963 0.845864 17.3922 1.5364 18.2007C2.43922 19.17 3.71415 19.7888 5.0165 19.8964C6.90206 20.1115 8.78761 20.1925 10.7006 20.1925C12.6124 20.1925 14.4991 20.0571 16.3847 19.8964C17.6859 19.7888 18.9608 19.17 19.8648 18.2007C20.5553 17.3922 20.9 16.3963 20.9 15.3472C20.9 14.297 20.6877 13.3289 20.0234 12.5747C19.1468 11.551 18.7485 10.6627 18.7485 9.1556V8.86993C18.3458 8.95516 17.9281 9 17.5 9C14.1863 9 11.5 6.31371 11.5 3C11.5 2.32496 11.6115 1.67596 11.817 1.07039Z" fill="white"/>
<circle cx="17.5" cy="3" r="3" fill="#FF4F6E"/>
</svg>
