<svg width="50" height="50" viewBox="0 0 50 50" fill="none" xmlns="http://www.w3.org/2000/svg">
<rect width="50" height="50" rx="25" fill="#100F15"/>
<path fill-rule="evenodd" clip-rule="evenodd" d="M12.5 18.5C12.5 16.8431 13.8431 15.5 15.5 15.5H34.5C36.1569 15.5 37.5 16.8431 37.5 18.5V31.5C37.5 33.1569 36.1569 34.5 34.5 34.5H15.5C13.8431 34.5 12.5 33.1569 12.5 31.5V18.5ZM16 22C16 21.4477 16.4477 21 17 21H33C33.5523 21 34 21.4477 34 22C34 22.5523 33.5523 23 33 23H17C16.4477 23 16 22.5523 16 22ZM17 27C16.4477 27 16 27.4477 16 28C16 28.5523 16.4477 29 17 29H23C23.5523 29 24 28.5523 24 28C24 27.4477 23.5523 27 23 27H17Z" fill="white"/>
</svg>
