<svg width="23" height="22" viewBox="0 0 23 22" fill="none" xmlns="http://www.w3.org/2000/svg">
<path fill-rule="evenodd" clip-rule="evenodd" d="M18.6543 4.25391V3.22266C18.6543 1.44568 17.2086 0 15.4316 0H7.52539C5.74842 0 4.30273 1.44568 4.30273 3.22266V4.25391H18.6543ZM5.5918 13.707V18.9492V20.0664V20.7109C5.5918 21.4228 6.16891 22 6.88086 22H16.0762C16.7881 22 17.3652 21.4228 17.3652 20.7109V20.0664V18.9492V13.707H5.5918ZM13.1973 19.207H9.75977C9.40381 19.207 9.11523 18.9185 9.11523 18.5625C9.11523 18.2065 9.40381 17.918 9.75977 17.918H13.1973C13.5532 17.918 13.8418 18.2065 13.8418 18.5625C13.8418 18.9185 13.5532 19.207 13.1973 19.207ZM13.1973 16.457H9.75977C9.40381 16.457 9.11523 16.1685 9.11523 15.8125C9.11523 15.4565 9.40381 15.168 9.75977 15.168H13.1973C13.5532 15.168 13.8418 15.4565 13.8418 15.8125C13.8418 16.1685 13.5532 16.457 13.1973 16.457ZM3.74414 5.54297H19.2559C21.0328 5.54297 22.4785 6.98865 22.4785 8.76562V13.9219C22.4785 15.6988 21.0328 17.1445 19.2559 17.1445H18.6543V13.707H19.041C19.397 13.707 19.6855 13.4185 19.6855 13.0625C19.6855 12.7065 19.397 12.418 19.041 12.418H18.0098H4.94727H3.91602C3.56006 12.418 3.27148 12.7065 3.27148 13.0625C3.27148 13.4185 3.56006 13.707 3.91602 13.707H4.30273V17.1445H3.74414C1.96717 17.1445 0.521484 15.6988 0.521484 13.9219V8.76562C0.521484 6.98865 1.96717 5.54297 3.74414 5.54297ZM3.91602 9.58203H5.97852C6.33447 9.58203 6.62305 9.29345 6.62305 8.9375C6.62305 8.58155 6.33447 8.29297 5.97852 8.29297H3.91602C3.56006 8.29297 3.27148 8.58155 3.27148 8.9375C3.27148 9.29345 3.56006 9.58203 3.91602 9.58203Z" fill="white"/>
</svg>
