<svg width="81" height="24" viewBox="0 0 81 24" fill="none" xmlns="http://www.w3.org/2000/svg">
<path d="M3.18555 13.5908C4.14258 13.7666 5.0166 13.7861 5.80762 13.6494C6.6084 13.5029 7.29199 13.2002 7.8584 12.7412C8.43457 12.2725 8.87891 11.6426 9.19141 10.8516C9.51367 10.0605 9.6748 9.09375 9.6748 7.95117C9.6748 7.16016 9.5918 6.44238 9.42578 5.79785C9.25977 5.14355 9.01074 4.5918 8.67871 4.14258C8.35645 3.68359 7.94629 3.33203 7.44824 3.08789C6.9502 2.83398 6.36914 2.70703 5.70508 2.70703C5.28516 2.70703 4.91895 2.72656 4.60645 2.76562C4.29395 2.79492 4.03027 2.8291 3.81543 2.86816C3.56152 2.91699 3.35156 2.9707 3.18555 3.0293V13.5908ZM0.0947266 1.88672C0.290039 1.90625 0.495117 1.92578 0.709961 1.94531C0.895508 1.96484 1.10059 1.97949 1.3252 1.98926C1.55957 1.98926 1.79883 1.98926 2.04297 1.98926C2.42383 1.98926 2.93652 1.94531 3.58105 1.85742C4.23535 1.75977 5.06543 1.71094 6.07129 1.71094C7.00879 1.71094 7.87305 1.84766 8.66406 2.12109C9.46484 2.39453 10.1582 2.79492 10.7441 3.32227C11.3301 3.84961 11.7842 4.49414 12.1064 5.25586C12.4385 6.00781 12.6045 6.86719 12.6045 7.83398C12.6045 9.13281 12.3457 10.2559 11.8281 11.2031C11.3105 12.1504 10.6172 12.917 9.74805 13.5029C8.87891 14.0889 7.87793 14.4893 6.74512 14.7041C5.6123 14.9092 4.42578 14.9189 3.18555 14.7334V17.165C3.18555 17.9951 3.19531 18.7227 3.21484 19.3477C3.24414 19.9629 3.27344 20.4951 3.30273 20.9443C3.3418 21.3936 3.38574 21.7695 3.43457 22.0723C3.49316 22.375 3.55176 22.6289 3.61035 22.834V22.8926H0.0947266V22.834C0.15332 22.6289 0.207031 22.375 0.255859 22.0723C0.314453 21.7695 0.363281 21.3936 0.402344 20.9443C0.441406 20.4951 0.470703 19.9629 0.490234 19.3477C0.509766 18.7227 0.519531 17.9951 0.519531 17.165V7.62891C0.519531 6.79883 0.509766 6.07617 0.490234 5.46094C0.470703 4.83594 0.441406 4.29883 0.402344 3.84961C0.363281 3.39063 0.314453 3.00977 0.255859 2.70703C0.207031 2.4043 0.15332 2.15039 0.0947266 1.94531V1.88672ZM25.7148 13.0195C25.7148 11.7305 25.4561 10.7832 24.9385 10.1777C24.4209 9.57227 23.7275 9.26953 22.8584 9.26953C22.5361 9.26953 22.1748 9.33789 21.7744 9.47461C21.3838 9.60156 20.9785 9.77734 20.5586 10.002C20.1484 10.2266 19.7383 10.4902 19.3281 10.793C18.918 11.0859 18.5371 11.3984 18.1855 11.7305V17.165C18.1855 17.9951 18.1953 18.7227 18.2148 19.3477C18.2344 19.9629 18.2637 20.4951 18.3027 20.9443C18.3418 21.3936 18.3857 21.7695 18.4346 22.0723C18.4834 22.375 18.5371 22.6289 18.5957 22.834V22.8926H15.2119V22.834C15.2705 22.6289 15.3242 22.375 15.373 22.0723C15.4316 21.7695 15.4756 21.3936 15.5049 20.9443C15.5439 20.4951 15.5732 19.9629 15.5928 19.3477C15.6221 18.7227 15.6367 17.9951 15.6367 17.165V6.7207C15.6367 5.89062 15.6221 5.16797 15.5928 4.55273C15.5732 3.92773 15.5439 3.39063 15.5049 2.94141C15.4756 2.49219 15.4316 2.11621 15.373 1.81348C15.3242 1.51074 15.2705 1.25684 15.2119 1.05176V0.993164H18.5957V1.05176C18.5371 1.25684 18.4834 1.51074 18.4346 1.81348C18.3857 2.11621 18.3418 2.49219 18.3027 2.94141C18.2637 3.39063 18.2344 3.92773 18.2148 4.55273C18.1953 5.16797 18.1855 5.89062 18.1855 6.7207V10.4707C18.5762 10.1191 19.0059 9.77246 19.4746 9.43066C19.9531 9.08887 20.4463 8.78125 20.9541 8.50781C21.4619 8.23438 21.9795 8.01465 22.5068 7.84863C23.0342 7.68262 23.5518 7.59961 24.0596 7.59961C24.8213 7.59961 25.4658 7.73145 25.9932 7.99512C26.5303 8.25879 26.9648 8.60547 27.2969 9.03516C27.6387 9.46484 27.8828 9.95801 28.0293 10.5146C28.1855 11.0615 28.2637 11.6182 28.2637 12.1846V17.165C28.2637 17.9951 28.2734 18.7227 28.293 19.3477C28.3125 19.9629 28.3418 20.4951 28.3809 20.9443C28.4199 21.3936 28.4639 21.7695 28.5127 22.0723C28.5615 22.375 28.6152 22.6289 28.6738 22.834V22.8926H25.29V22.834C25.3486 22.6289 25.4023 22.375 25.4512 22.0723C25.5098 21.7695 25.5537 21.3936 25.583 20.9443C25.6221 20.4951 25.6514 19.9629 25.6709 19.3477C25.7002 18.7227 25.7148 17.9951 25.7148 17.165V13.0195ZM31.457 15.3633C31.457 14.2598 31.6621 13.2393 32.0723 12.3018C32.4824 11.3545 33.0439 10.5342 33.7568 9.84082C34.4795 9.14746 35.3291 8.60547 36.3057 8.21484C37.2822 7.82422 38.332 7.62891 39.4551 7.62891C40.5586 7.62891 41.5938 7.81445 42.5605 8.18555C43.5371 8.54688 44.3867 9.06445 45.1094 9.73828C45.832 10.4121 46.3984 11.2324 46.8086 12.1992C47.2285 13.166 47.4385 14.25 47.4385 15.4512C47.4385 16.457 47.2627 17.4238 46.9111 18.3516C46.5596 19.2793 46.042 20.0996 45.3584 20.8125C44.6748 21.5254 43.835 22.0967 42.8389 22.5264C41.8525 22.9463 40.7148 23.1562 39.4258 23.1562C38.332 23.1562 37.3018 22.9756 36.335 22.6143C35.3682 22.2529 34.5234 21.7354 33.8008 21.0615C33.0781 20.3877 32.5068 19.5723 32.0869 18.6152C31.667 17.6484 31.457 16.5645 31.457 15.3633ZM39.7627 22.0869C40.4561 22.0869 41.0908 21.9502 41.667 21.6768C42.2529 21.4033 42.7559 21.0078 43.1758 20.4902C43.5957 19.9727 43.9229 19.3428 44.1572 18.6006C44.3916 17.8584 44.5088 17.0186 44.5088 16.0811C44.5088 15.0264 44.3965 14.0498 44.1719 13.1514C43.9473 12.2432 43.6104 11.4619 43.1611 10.8076C42.7217 10.1436 42.165 9.62598 41.4912 9.25488C40.8174 8.88379 40.0312 8.69824 39.1328 8.69824C38.4395 8.69824 37.8047 8.83496 37.2285 9.1084C36.6523 9.37207 36.1494 9.75781 35.7197 10.2656C35.2998 10.7734 34.9727 11.3984 34.7383 12.1406C34.5039 12.873 34.3867 13.708 34.3867 14.6455C34.3867 15.7002 34.499 16.6816 34.7236 17.5898C34.958 18.498 35.2998 19.2891 35.749 19.9629C36.1982 20.627 36.7549 21.1494 37.4189 21.5303C38.0928 21.9014 38.874 22.0869 39.7627 22.0869ZM60.8125 13.0195C60.8125 11.7305 60.5537 10.7832 60.0361 10.1777C59.5186 9.57227 58.8252 9.26953 57.9561 9.26953C57.6436 9.26953 57.292 9.33789 56.9014 9.47461C56.5107 9.60156 56.1104 9.77734 55.7002 10.002C55.29 10.2168 54.8799 10.4707 54.4697 10.7637C54.0596 11.0566 53.6738 11.3691 53.3125 11.7012L53.2832 13.6201V17.165C53.2832 17.9951 53.293 18.7227 53.3125 19.3477C53.332 19.9629 53.3613 20.4951 53.4004 20.9443C53.4395 21.3936 53.4834 21.7695 53.5322 22.0723C53.5811 22.375 53.6348 22.6289 53.6934 22.834V22.8926H50.3096V22.834C50.3682 22.6289 50.4219 22.375 50.4707 22.0723C50.5293 21.7695 50.5732 21.3936 50.6025 20.9443C50.6416 20.4951 50.6709 19.9629 50.6904 19.3477C50.7197 18.7227 50.7344 17.9951 50.7344 17.165V13.6201C50.7344 12.79 50.7197 12.0674 50.6904 11.4521C50.6709 10.8271 50.6416 10.29 50.6025 9.84082C50.5732 9.3916 50.5293 9.01562 50.4707 8.71289C50.4219 8.41016 50.3682 8.15625 50.3096 7.95117V7.89258H53.6934V7.95117C53.6152 8.19531 53.5518 8.50781 53.5029 8.88867C53.4639 9.25977 53.4199 9.74805 53.3711 10.3535C53.7715 10.0215 54.2012 9.68945 54.6602 9.35742C55.1289 9.02539 55.6123 8.73242 56.1104 8.47852C56.6084 8.21484 57.1162 8.00488 57.6338 7.84863C58.1514 7.68262 58.6592 7.59961 59.1572 7.59961C59.9189 7.59961 60.5635 7.73145 61.0908 7.99512C61.6279 8.25879 62.0625 8.60547 62.3945 9.03516C62.7363 9.46484 62.9805 9.95801 63.127 10.5146C63.2832 11.0615 63.3613 11.6182 63.3613 12.1846V17.165C63.3613 17.9951 63.3711 18.7227 63.3906 19.3477C63.4102 19.9629 63.4395 20.4951 63.4785 20.9443C63.5176 21.3936 63.5615 21.7695 63.6104 22.0723C63.6592 22.375 63.7129 22.6289 63.7715 22.834V22.8926H60.3877V22.834C60.4463 22.6289 60.5 22.375 60.5488 22.0723C60.6074 21.7695 60.6514 21.3936 60.6807 20.9443C60.7197 20.4951 60.749 19.9629 60.7686 19.3477C60.7979 18.7227 60.8125 17.9951 60.8125 17.165V13.0195ZM74.3477 23.1562C73.2637 23.1562 72.248 22.9854 71.3008 22.6436C70.3535 22.3018 69.5283 21.8037 68.8252 21.1494C68.1221 20.4854 67.5654 19.6699 67.1553 18.7031C66.7549 17.7266 66.5547 16.6133 66.5547 15.3633C66.5547 14.2598 66.7402 13.2393 67.1113 12.3018C67.4824 11.3545 67.9951 10.5342 68.6494 9.84082C69.3037 9.14746 70.0654 8.60547 70.9346 8.21484C71.8135 7.82422 72.7607 7.62891 73.7764 7.62891C74.7822 7.62891 75.7148 7.80469 76.5742 8.15625C77.4336 8.49805 78.1758 9.00098 78.8008 9.66504C79.4355 10.3193 79.9336 11.1348 80.2949 12.1113C80.666 13.0781 80.8662 14.1816 80.8955 15.4219C79.792 15.4023 78.6885 15.3877 77.585 15.3779C76.4814 15.3682 75.334 15.3633 74.1426 15.3633C73.293 15.3633 72.4629 15.3682 71.6523 15.3779C70.8516 15.3877 70.1289 15.4023 69.4844 15.4219C69.543 16.4375 69.6992 17.3555 69.9531 18.1758C70.2168 18.9961 70.5732 19.6992 71.0225 20.2852C71.4814 20.8613 72.0332 21.3057 72.6777 21.6182C73.332 21.9307 74.0693 22.0869 74.8896 22.0869C75.4561 22.0869 75.9883 22.0234 76.4863 21.8965C76.9941 21.7598 77.4531 21.5742 77.8633 21.3398C78.2734 21.1055 78.6396 20.832 78.9619 20.5195C79.2842 20.1973 79.5576 19.8506 79.7822 19.4795L79.958 19.5674L78.874 22.1748C78.3467 22.4482 77.7168 22.6826 76.9844 22.8779C76.252 23.0635 75.373 23.1562 74.3477 23.1562ZM72.3994 14.2207C73.376 14.2207 74.3525 14.2207 75.3291 14.2207C76.3154 14.2109 77.209 14.1914 78.0098 14.1621C77.9219 13.3125 77.7559 12.5508 77.5117 11.877C77.2676 11.2031 76.9551 10.6318 76.5742 10.1631C76.1934 9.69434 75.7441 9.33301 75.2266 9.0791C74.709 8.8252 74.1377 8.69824 73.5127 8.69824C72.9463 8.69824 72.4238 8.8252 71.9453 9.0791C71.4766 9.32324 71.0664 9.67969 70.7148 10.1484C70.3633 10.6172 70.0801 11.1934 69.8652 11.877C69.6504 12.5508 69.5234 13.3223 69.4844 14.1914C69.9238 14.2109 70.3877 14.2207 70.876 14.2207C71.3643 14.2207 71.8721 14.2207 72.3994 14.2207Z" fill="white"/>
</svg>
