<svg width="50" height="50" viewBox="0 0 50 50" fill="none" xmlns="http://www.w3.org/2000/svg">
<rect width="50" height="50" rx="25" fill="#100F15"/>
<path fill-rule="evenodd" clip-rule="evenodd" d="M29.2904 12.4965C26.4684 11.8345 23.5316 11.8345 20.7096 12.4965C16.6344 13.4524 13.4524 16.6344 12.4965 20.7096C11.8345 23.5316 11.8345 26.4684 12.4965 29.2904C13.4524 33.3656 16.6344 36.5476 20.7096 37.5036C23.5316 38.1655 26.4684 38.1655 29.2904 37.5036C33.3656 36.5476 36.5476 33.3656 37.5036 29.2904C38.1655 26.4684 38.1655 23.5316 37.5036 20.7096C36.5476 16.6344 33.3656 13.4524 29.2904 12.4965ZM23.3508 19.736C23.5851 19.9703 23.5851 20.3502 23.3508 20.5846L20.5853 23.3501C20.4728 23.4626 20.3202 23.5258 20.161 23.5258C20.0019 23.5258 19.8493 23.4626 19.7368 23.3501L18.354 21.9673C18.1197 21.733 18.1197 21.3531 18.354 21.1188C18.5883 20.8845 18.9682 20.8845 19.2025 21.1188L20.161 22.0773L22.5023 19.736C22.7366 19.5017 23.1165 19.5017 23.3508 19.736ZM25.7834 22.2344C25.7834 21.903 26.052 21.6344 26.3834 21.6344H31.223C31.5544 21.6344 31.823 21.903 31.823 22.2344C31.823 22.5658 31.5544 22.8344 31.223 22.8344H26.3834C26.052 22.8344 25.7834 22.5658 25.7834 22.2344ZM23.3508 26.6498C23.5851 26.8841 23.5851 27.264 23.3508 27.4983L20.5853 30.2638C20.4728 30.3763 20.3202 30.4395 20.161 30.4395C20.0019 30.4395 19.8493 30.3763 19.7368 30.2638L18.354 28.881C18.1197 28.6467 18.1197 28.2668 18.354 28.0325C18.5883 27.7982 18.9682 27.7982 19.2025 28.0325L20.161 28.991L22.5023 26.6498C22.7366 26.4155 23.1165 26.4155 23.3508 26.6498ZM25.7834 29.1482C25.7834 28.8168 26.052 28.5482 26.3834 28.5482H31.223C31.5544 28.5482 31.823 28.8168 31.823 29.1482C31.823 29.4795 31.5544 29.7482 31.223 29.7482H26.3834C26.052 29.7482 25.7834 29.4795 25.7834 29.1482Z" fill="white"/>
</svg>
