<svg width="40" height="40" viewBox="0 0 40 40" fill="none" xmlns="http://www.w3.org/2000/svg">
<rect width="40" height="40" rx="15" fill="white"/>
<g clip-path="url(#clip0)">
<path d="M27.4283 14.6839C27.4655 14.3812 27.485 14.073 27.485 13.7602C27.485 11.1312 25.3538 9 22.7248 9H14.7694C14.269 9 13.8418 9.36137 13.7588 9.85482L10.8275 27.2776C10.7223 27.9028 11.2042 28.4725 11.8381 28.4725H14.7476C15.248 28.4725 15.6833 28.1114 15.7662 27.6179C15.7662 27.6179 15.7711 27.589 15.7799 27.5369H15.7799L15.3744 29.9468C15.2818 30.4978 15.7066 31 16.2653 31H18.8106C19.2517 31 19.6283 30.6815 19.7014 30.2465L20.4245 25.9488C20.5492 25.2079 21.1906 24.6655 21.9418 24.6655H22.6105C26.2426 24.6655 29.187 21.721 29.187 18.0889C29.187 16.6835 28.4923 15.4411 27.4283 14.6839Z" fill="#002987"/>
<path d="M27.4278 14.6841C26.9726 18.3871 23.8166 21.2544 19.9905 21.2544H17.7706C17.2695 21.2544 16.8368 21.5882 16.701 22.0601L15.3741 29.947C15.2814 30.498 15.7061 31.0002 16.2649 31.0002H18.8102C19.2513 31.0002 19.6278 30.6817 19.701 30.2468L20.4241 25.949C20.5488 25.2081 21.1901 24.6657 21.9414 24.6657H22.61C26.2422 24.6657 29.1866 21.7212 29.1866 18.0891C29.1866 16.6836 28.4919 15.4413 27.4278 14.6841Z" fill="#0085CC"/>
<path d="M17.7708 21.2544H19.9907C23.8168 21.2544 26.9729 18.3871 27.428 14.6841C26.7453 14.1983 25.9111 13.9116 25.0093 13.9116H19.215C18.5553 13.9116 17.992 14.388 17.8825 15.0386L16.7012 22.06C16.8369 21.5881 17.2697 21.2544 17.7708 21.2544Z" fill="#00186A"/>
</g>
<defs>
<clipPath id="clip0">
<rect width="22" height="22" fill="white" transform="translate(9 9)"/>
</clipPath>
</defs>
</svg>
