<svg width="80" height="80" viewBox="0 0 80 80" fill="none" xmlns="http://www.w3.org/2000/svg">
<rect width="80" height="80" rx="40" fill="#FF4F6E"/>
<path fill-rule="evenodd" clip-rule="evenodd" d="M56.6157 55.203C57.3968 54.4219 57.3968 53.1556 56.6157 52.3745L44.2416 40.0004L56.6159 27.6261C57.397 26.8451 57.397 25.5788 56.6159 24.7977L55.2017 23.3835C54.4206 22.6025 53.1543 22.6025 52.3733 23.3835L39.999 35.7578L27.6243 23.3831C26.8433 22.6021 25.5769 22.6021 24.7959 23.3831L23.3817 24.7974C22.6006 25.5784 22.6006 26.8447 23.3817 27.6258L35.7563 40.0004L23.3819 52.3749C22.6008 53.1559 22.6008 54.4223 23.3819 55.2033L24.7961 56.6175C25.5772 57.3986 26.8435 57.3986 27.6245 56.6175L39.999 44.2431L52.3731 56.6172C53.1541 57.3982 54.4204 57.3982 55.2015 56.6172L56.6157 55.203Z" fill="#100F15"/>
</svg>
