<svg width="35" height="21" viewBox="0 0 35 21" fill="none" xmlns="http://www.w3.org/2000/svg">
<path d="M33.9904 7.47118C34.548 7.47118 35 7.01912 35 6.46158V1.07698C35 0.519375 34.5479 0.0673828 33.9904 0.0673828H11.7789V5.11545C11.7789 5.67306 11.3268 6.12505 10.7693 6.12505C10.2117 6.12505 9.75967 5.67299 9.75967 5.11545V0.0673828H1.00967C0.452061 0.0673828 0 0.519375 0 1.07698V6.46158C0 7.01919 0.452061 7.47118 1.0096 7.47118C2.67969 7.47118 4.03847 8.82989 4.03847 10.5C4.03847 12.1702 2.67976 13.5289 1.0096 13.5289C0.452061 13.5289 0 13.9809 0 14.5385V19.9231C0 20.4807 0.452061 20.9327 1.0096 20.9327H9.7596V15.8846C9.7596 15.327 10.2117 14.875 10.7692 14.875C11.3267 14.875 11.7788 15.3271 11.7788 15.8846V20.9327H33.9903C34.5479 20.9327 34.9999 20.4807 34.9999 19.9231V14.5385C34.9999 13.9809 34.5479 13.5289 33.9903 13.5289C32.3202 13.5289 30.9615 12.1702 30.9615 10.5C30.9615 8.82989 32.3202 7.47118 33.9904 7.47118ZM11.7789 11.8462C11.7789 12.4038 11.3268 12.8558 10.7693 12.8558C10.2117 12.8558 9.75967 12.4037 9.75967 11.8462V9.15385C9.75967 8.59624 10.2117 8.14425 10.7693 8.14425C11.3268 8.14425 11.7789 8.59631 11.7789 9.15385V11.8462Z" fill="#100F15"/>
</svg>
