<svg width="35" height="30" viewBox="0 0 35 30" fill="none" xmlns="http://www.w3.org/2000/svg">
<path fill-rule="evenodd" clip-rule="evenodd" d="M22.8796 0.0302686C24.9626 0.574203 30.8163 2.12431 33.717 2.89242C34.1604 3.00986 34.5385 3.2966 34.7681 3.68955C34.9976 4.08247 35.0598 4.54943 34.941 4.98769C34.5398 6.46729 33.9569 8.61739 33.5702 10.0436C33.3412 10.8885 32.5042 11.4265 31.6298 11.291C30.7046 11.1475 29.5166 10.9633 28.519 10.8086C28.0191 10.7311 27.51 10.8736 27.1255 11.1987C26.741 11.5237 26.5196 11.9987 26.5196 12.4987V28.2892C26.5196 28.743 26.3372 29.1781 26.0126 29.4989C25.6879 29.8198 25.2477 30 24.7885 30H10.2599C9.30391 30 8.52889 29.2341 8.52889 28.2892V12.5271C8.52889 12.0294 8.30954 11.5563 7.9281 11.2314C7.54661 10.9064 7.04087 10.7617 6.54274 10.835C5.52279 10.9852 4.29936 11.1653 3.35424 11.3045C2.48395 11.4326 1.65483 10.8951 1.4271 10.0552C1.04178 8.6341 0.459787 6.48743 0.058988 5.00924C-0.0598454 4.57097 0.00238802 4.10397 0.231926 3.71106C0.461464 3.3181 0.839598 3.03141 1.28306 2.91397C4.18246 2.14616 10.0316 0.59724 12.107 0.0476529C12.5204 -0.061712 12.9547 0.130623 13.1472 0.508321C13.9496 2.07199 15.5935 3.14103 17.488 3.14103C19.3909 3.14103 21.041 2.06255 21.8459 0.490852C22.0358 0.113876 22.4681 -0.0787138 22.8796 0.0302686ZM11.1849 7.63681C10.6138 7.15035 9.85679 6.93378 9.11117 7.04353C8.68505 7.10628 8.68505 7.10628 8.24668 7.17083L8.00019 7.20712C7.171 7.32921 7.10294 7.33923 6.28622 7.45948C5.57345 7.56442 5.57345 7.56442 5.39526 7.59066C4.92539 7.65984 4.60122 8.09237 4.67123 8.55674C4.74123 9.02111 5.17888 9.34147 5.64876 9.27229C5.82695 9.24606 5.82695 9.24606 6.53972 9.14111C7.43069 9.00993 7.43069 9.00993 8.5002 8.85246C8.93857 8.78791 8.93857 8.78791 9.36465 8.72517C9.61523 8.68828 9.86971 8.76108 10.0617 8.9246C10.2535 9.08804 10.3639 9.32606 10.3639 9.57647V25.067C10.3639 25.5365 10.749 25.9171 11.224 25.9171C11.6991 25.9171 12.0842 25.5365 12.0842 25.067V9.57647C12.0842 8.83142 11.7559 8.12329 11.1849 7.63681Z" fill="#100F15"/>
<path d="M11.1849 7.63681C10.6138 7.15035 9.85679 6.93378 9.11117 7.04353L8.24668 7.17083L8.00019 7.20712L6.28622 7.45948L5.39526 7.59066C4.92539 7.65984 4.60122 8.09237 4.67123 8.55674C4.74123 9.02111 5.17888 9.34147 5.64876 9.27229L6.53972 9.14111L8.5002 8.85246L9.36465 8.72517C9.61523 8.68828 9.86971 8.76108 10.0617 8.9246C10.2535 9.08804 10.3639 9.32606 10.3639 9.57647V25.067C10.3639 25.5365 10.749 25.9171 11.224 25.9171C11.6991 25.9171 12.0842 25.5365 12.0842 25.067V9.57647C12.0842 8.83142 11.7559 8.12329 11.1849 7.63681Z" fill="#100F15"/>
</svg>
