<svg width="31" height="25" viewBox="0 0 31 25" fill="none" xmlns="http://www.w3.org/2000/svg">
<path fill-rule="evenodd" clip-rule="evenodd" d="M27.5 2.09815e-06C29.1569 2.24299e-06 30.5 1.34315 30.5 3V4.45455C30.5 5.00683 30.0523 5.45455 29.5 5.45455L1.5 5.45455C0.947715 5.45455 0.5 5.00683 0.5 4.45454V3C0.5 1.34315 1.84315 0 3.5 0L27.5 2.09815e-06ZM3.5 24.5461C1.84315 24.5461 0.5 23.203 0.5 21.5461V10.5461C0.5 9.99382 0.947717 9.5461 1.5 9.5461H29.5C30.0523 9.5461 30.5 9.99382 30.5 10.5461V21.5461C30.5 23.203 29.1569 24.5461 27.5 24.5461H3.5Z" fill="#100F15"/>
</svg>
