<svg width="110" height="17" viewBox="0 0 110 17" fill="none" xmlns="http://www.w3.org/2000/svg">
<path fill-rule="evenodd" clip-rule="evenodd" d="M59.7703 8.24646C59.7703 8.24646 58.6811 7.56571 58.0684 7.36149C58.0684 7.36149 56.0262 6.40843 55.6177 5.99998C55.6177 5.99998 54.8008 5.25116 55.2773 4.36618C55.2773 4.36618 55.4816 3.82158 56.2985 3.82158C56.2985 3.82158 57.3877 3.88965 57.3877 4.77463V6.06806H61.2679V4.23003C61.2679 4.23003 61.5402 1.16665 56.6388 1.0305C56.6388 1.0305 52.7585 0.758203 51.6693 2.86853C51.6693 2.86853 51.2609 3.34506 51.2609 4.91078V6.06806C51.2609 6.06806 51.1928 7.42956 51.8736 8.24646C51.8736 8.24646 52.282 8.79106 53.2351 9.47181C53.2351 9.47181 55.2093 10.4929 56.3665 11.1056C56.3665 11.1056 57.5238 11.7864 57.3877 12.8756C57.3877 12.8756 57.3196 13.9648 56.1623 13.8967C56.1623 13.8967 55.1412 13.8286 55.1412 12.8075V11.5141H50.9886V13.3521C50.9886 13.3521 50.8524 16.892 56.2304 16.892C56.2304 16.892 61.336 17.0281 61.6083 13.284V11.7864C61.5402 11.7183 61.7445 9.47181 59.7703 8.24646Z" fill="white"/>
<path fill-rule="evenodd" clip-rule="evenodd" d="M39.7565 1.37061L38.4631 9.60769H38.1908L36.8974 1.43868H30.3621L30.0898 16.2791H33.9021L33.9701 5.11474H34.3105L36.3528 16.2791H40.3692L42.4114 5.11474H42.6837L42.7518 16.2791H46.6321L46.2236 1.37061H39.7565Z" fill="white"/>
<path fill-rule="evenodd" clip-rule="evenodd" d="M16.8144 1.43872L14.2275 16.2791H18.3801L19.8778 4.7744H20.2181L21.7839 16.2791H25.9365L23.3496 1.43872H16.8144Z" fill="white"/>
<path fill-rule="evenodd" clip-rule="evenodd" d="M104.019 8.04214V10.2205H105.108V12.5351C105.108 13.6924 104.155 13.6924 104.155 13.6924C102.93 13.6924 102.998 12.6032 102.998 12.6032V4.57031C102.998 3.75341 104.087 3.68534 104.087 3.68534C105.108 3.68534 105.108 4.70646 105.108 4.70646V5.93182H108.988C109.125 3.54919 108.648 2.93651 108.648 2.93651C107.695 0.758109 104.019 0.894259 104.019 0.894259C98.3687 0.894259 98.9814 5.25107 98.9814 5.25107V13.0797C99.1175 17.1642 104.632 16.7558 104.768 16.7558C107.218 16.4835 107.967 15.6666 107.967 15.6666C108.648 15.122 108.852 14.4412 108.852 14.4412C109.056 14.0328 109.125 12.7393 109.125 12.7393V8.11022H104.019V8.04214Z" fill="white"/>
<path fill-rule="evenodd" clip-rule="evenodd" d="M91.0168 10.4927H90.8806L86.8642 1.37061H82.167V16.2791H85.9792L85.775 7.22506H85.9792L90.0637 16.2791H94.6928V1.37061H90.7444L91.0168 10.4927Z" fill="white"/>
<path fill-rule="evenodd" clip-rule="evenodd" d="M72.7043 12.603C72.7043 12.603 72.7724 13.8283 71.6151 13.8283C71.6151 13.8283 70.3897 13.8964 70.3897 12.603V1.37061H66.1691V12.4668C66.1691 12.4668 65.7606 16.6875 71.6832 16.6875C71.6832 16.6875 76.8569 16.7556 76.8569 12.6711V1.43868H72.7043V12.603Z" fill="white"/>
<path fill-rule="evenodd" clip-rule="evenodd" d="M8.71393 8.24623C8.71393 8.24623 7.62473 7.56548 7.01205 7.36126C7.01205 7.36126 4.9698 6.40821 4.56135 5.99976C4.56135 5.99976 3.74445 5.25093 4.22097 4.36595C4.22097 4.36595 4.4252 3.82135 5.2421 3.82135C5.2421 3.82135 6.3313 3.88943 6.3313 4.7744V6.06783H10.2116V4.22981C10.2116 4.22981 10.4839 1.16642 5.58247 1.03027C5.58247 1.03027 5.2421 1.03027 4.6975 1.03027C4.6975 1.03027 1.70219 1.16642 0.681067 2.80022C0.681067 2.80022 0.272616 3.27675 0.272616 4.84248V5.99976C0.272616 5.99976 0.204541 7.36126 0.885292 8.17816C0.885292 8.17816 1.29374 8.72276 2.24679 9.40351C2.24679 9.40351 4.1529 10.4246 5.37825 11.0373C5.37825 11.0373 6.53552 11.7181 6.39937 12.8073C6.39937 12.8073 6.3313 13.8965 5.17402 13.8284C5.17402 13.8284 4.1529 13.7603 4.1529 12.7392V11.4458H0.00031622V13.2838C0.00031622 13.2838 -0.135835 16.8237 5.2421 16.8237C5.2421 16.8237 10.3477 16.9598 10.62 13.2157V11.7181C10.552 11.7181 10.6881 9.47158 8.71393 8.24623Z" fill="white"/>
</svg>
