<svg width="50" height="50" viewBox="0 0 50 50" fill="none" xmlns="http://www.w3.org/2000/svg">
<rect width="50" height="50" rx="25" fill="#100F15"/>
<path d="M15.4615 17.8286C15.4615 14.6095 18.0962 12 21.3462 12C24.5961 12 27.2308 14.6095 27.2308 17.8286C27.2308 21.0476 24.5961 23.6571 21.3462 23.6571C18.0962 23.6571 15.4615 21.0476 15.4615 17.8286Z" fill="white"/>
<path d="M17.6268 26.2892L17.8734 26.2502C20.174 25.8866 22.5183 25.8866 24.8189 26.2502L25.0655 26.2892C28.3071 26.8016 30.6923 29.5711 30.6923 32.8224C30.6923 34.5774 29.256 36 27.4842 36H15.2081C13.4363 36 12 34.5774 12 32.8224C12 29.5711 14.3852 26.8016 17.6268 26.2892Z" fill="white"/>
<path d="M29.6538 12C29.0803 12 28.6154 12.4605 28.6154 13.0286C28.6154 13.5966 29.0803 14.0571 29.6538 14.0571C31.7568 14.0571 33.4615 15.7457 33.4615 17.8286C33.4615 19.9115 31.7568 21.6 29.6538 21.6C29.0803 21.6 28.6154 22.0605 28.6154 22.6286C28.6154 23.1966 29.0803 23.6571 29.6538 23.6571C32.9038 23.6571 35.5385 21.0476 35.5385 17.8286C35.5385 14.6095 32.9038 12 29.6538 12Z" fill="white"/>
<path d="M31.3724 26.2374C30.7989 26.2374 30.3339 26.6979 30.3339 27.2659C30.3339 27.834 30.7989 28.2945 31.3724 28.2945H32.7129C32.8244 28.2945 32.9359 28.3033 33.0458 28.3206C35.2795 28.6737 36.9231 30.5821 36.9231 32.8224C36.9231 33.4412 36.4166 33.9429 35.7919 33.9429H32.9629C32.3894 33.9429 31.9244 34.4034 31.9244 34.9714C31.9244 35.5395 32.3894 36 32.9629 36H35.7919C37.5637 36 39 34.5774 39 32.8224C39 29.5711 36.6148 26.8016 33.3731 26.2892C33.1548 26.2547 32.9338 26.2374 32.7129 26.2374H31.3724Z" fill="white"/>
</svg>
