<svg width="20" height="21" viewBox="0 0 20 21" fill="none" xmlns="http://www.w3.org/2000/svg">
<path d="M17.7345 16.9884L14.8629 14.1383C17.1051 11.2685 16.8691 7.18009 14.2926 4.60515C12.9355 3.24888 11.126 2.50195 9.19852 2.50195C7.27105 2.50195 5.46159 3.24888 4.10449 4.60515C2.74739 5.96141 2 7.76977 2 9.69606C2 11.6223 2.74739 13.4307 4.10449 14.787C5.46159 16.1432 7.27105 16.8902 9.19852 16.8902C10.7916 16.8902 12.3651 16.3594 13.6238 15.357L16.4757 18.2464C16.6527 18.4233 16.8691 18.502 17.1051 18.502C17.3411 18.502 17.5575 18.4037 17.7345 18.2464C18.0885 17.9123 18.0885 17.3422 17.7345 16.9884ZM14.6269 9.69606C14.6269 11.1506 14.0565 12.5069 13.0338 13.529C12.0111 14.5511 10.6343 15.1211 9.19852 15.1211C7.76275 15.1211 6.38599 14.5511 5.36325 13.529C4.3405 12.5069 3.77013 11.1309 3.77013 9.69606C3.77013 8.24151 4.3405 6.88525 5.36325 5.86313C6.38599 4.84102 7.76275 4.271 9.19852 4.271C10.654 4.271 12.0111 4.84102 13.0338 5.86313C14.0565 6.88525 14.6269 8.24151 14.6269 9.69606Z" fill="white"/>
</svg>
