<svg width="30" height="30" viewBox="0 0 30 30" fill="none" xmlns="http://www.w3.org/2000/svg">
<path d="M26.6017 24.7297L22.2944 20.4545C25.6577 16.1499 25.3036 10.0172 21.4388 6.15479C19.4032 4.12039 16.689 3 13.7978 3C10.9066 3 8.19238 4.12039 6.15673 6.15479C4.12108 8.18919 3 10.9017 3 13.7912C3 16.6806 4.12108 19.3931 6.15673 21.4275C8.19238 23.4619 10.9066 24.5823 13.7978 24.5823C16.1875 24.5823 18.5476 23.7862 20.4358 22.2826L24.7136 26.6167C24.9791 26.8821 25.3036 27 25.6577 27C26.0117 27 26.3362 26.8526 26.6017 26.6167C27.1328 26.1155 27.1328 25.2604 26.6017 24.7297ZM21.9404 13.7912C21.9404 15.973 21.0848 18.0074 19.5507 19.5405C18.0166 21.0737 15.9514 21.9287 13.7978 21.9287C11.6441 21.9287 9.57898 21.0737 8.04487 19.5405C6.51076 18.0074 5.65519 15.9435 5.65519 13.7912C5.65519 11.6093 6.51076 9.57494 8.04487 8.04177C9.57898 6.5086 11.6441 5.65356 13.7978 5.65356C15.9809 5.65356 18.0166 6.5086 19.5507 8.04177C21.0848 9.57494 21.9404 11.6093 21.9404 13.7912Z" fill="white" fill-opacity="0.3"/>
</svg>
