<svg width="26" height="20" viewBox="0 0 26 20" fill="none" xmlns="http://www.w3.org/2000/svg">
<path fill-rule="evenodd" clip-rule="evenodd" d="M0.5 3.5C0.5 1.84315 1.84315 0.5 3.5 0.5H22.5C24.1569 0.5 25.5 1.84315 25.5 3.5V16.5C25.5 18.1569 24.1569 19.5 22.5 19.5H3.5C1.84315 19.5 0.5 18.1569 0.5 16.5V3.5ZM4 7C4 6.44772 4.44772 6 5 6H21C21.5523 6 22 6.44772 22 7C22 7.55228 21.5523 8 21 8H5C4.44772 8 4 7.55228 4 7ZM5 12C4.44772 12 4 12.4477 4 13C4 13.5523 4.44772 14 5 14H11C11.5523 14 12 13.5523 12 13C12 12.4477 11.5523 12 11 12H5Z" fill="white" fill-opacity="0.3"/>
</svg>
