<svg width="147" height="30" viewBox="0 0 147 30" fill="none" xmlns="http://www.w3.org/2000/svg">
<path fill-rule="evenodd" clip-rule="evenodd" d="M129.913 20.3712V22.1972C129.957 23.3277 129.696 24.1103 128.565 24.7625C127.479 25.4146 123.913 25.3712 121.609 21.9799C120.305 20.0668 119.479 17.6755 119.479 15.1972C119.479 8.58855 124.826 3.19724 131.479 3.19724C138.087 3.19724 143.479 8.58855 143.479 15.1972C143.479 17.6755 142.739 20.0668 141.479 21.9799C138.957 25.1972 135.696 25.5885 134.261 24.719C133.305 24.1538 133 23.2407 133 22.1538V20.3277H140.826C138.783 18.0233 136.609 14.8059 134.479 10.6755C133.261 8.2842 132.174 5.80594 131.392 3.71898C130.739 5.84942 129.696 8.37116 128.479 10.719C126.392 14.8494 124.174 17.9799 122.131 20.3277H129.913V20.3712ZM116.479 15.2407C116.479 6.93638 123.174 0.240723 131.479 0.240723C139.739 0.240723 146.479 6.97985 146.479 15.2407C146.479 23.5451 139.783 29.5016 131.522 29.5016C123.174 29.5016 116.479 23.5451 116.479 15.2407Z" fill="white"/>
<path d="M45.783 10.4145C45.783 10.4145 47.6091 10.458 47.6091 12.1971C47.6091 14.1536 45.0439 13.9797 45.0439 13.9797H34.3048C34.3048 16.2406 35.87 17.8058 38.0004 17.8058C38.4787 17.8058 42.87 17.8058 46.9569 17.8058C49.6961 17.8058 52.0439 14.8928 52.0439 12.0667C52.0439 8.97971 49.3048 6.45798 46.1309 6.45798C46.0004 6.45798 33.9135 6.45798 33.9135 6.45798C31.0874 6.28406 29.1309 8.58841 29.1309 11.2841V21.2406C29.1309 22.7623 30.0439 23.8058 31.3048 23.8058H31.3917C32.6091 23.8058 33.5656 22.7623 33.5656 21.2406V10.371H45.783" fill="white"/>
<path fill-rule="evenodd" clip-rule="evenodd" d="M62.0007 15.7189L65.6964 10.7624C65.8268 10.5885 66.0877 10.458 66.3051 10.458C66.5225 10.458 66.7833 10.5885 66.9138 10.7624L70.479 15.7189H62.0007ZM62.8268 8.24064C64.1746 6.58846 65.7833 6.41455 66.2616 6.41455C66.7833 6.41455 68.5659 6.67542 69.8268 8.28412L78.9138 20.4145C79.7833 21.5885 79.392 22.7189 78.4355 23.3711C77.479 24.0232 76.3485 23.8928 75.5225 22.8059L73.3051 19.8493C72.3051 19.8493 60.1746 19.8493 59.2181 19.8493L57.2616 22.7624C56.2616 24.1102 55.0442 23.9363 54.1746 23.4145L54.0877 23.3276C53.1311 22.6754 53.3051 21.3276 53.8703 20.3711L62.8268 8.24064Z" fill="white"/>
<path fill-rule="evenodd" clip-rule="evenodd" d="M102.913 17.0667C104.696 16.2406 105.913 14.5884 105.913 12.0667C105.913 8.97975 103.565 6.45801 100.348 6.45801C100.261 6.45801 87.0434 6.45801 87.0434 6.45801C84.7391 6.45801 83.0869 8.28409 83.0869 10.5884V21.3711C83.0869 22.8928 83.913 23.7624 85.1304 23.7624C86.3478 23.7624 87.4782 22.8493 87.4782 21.3276V10.2841H99.6956C99.6956 10.2841 101.478 10.3711 101.522 12.1102C101.522 13.9363 99.3043 13.9363 99.3043 13.9363H88.3043C88.3043 16.1971 90.1304 17.8058 92.3913 17.8058C92.3913 17.8058 96.5217 17.8058 97.826 17.8058L101.304 22.545C102.13 23.8058 103.609 24.1537 104.696 23.545C105.783 22.9797 105.87 21.6319 105.217 20.6319L102.913 17.2841V17.0667Z" fill="white"/>
<path d="M6.17429 12.9797C6.17429 12.9797 4.5656 13.1101 4.5656 11.7188C4.5656 10.2841 6.34821 10.5014 6.34821 10.5014H21.7395C21.7395 8.50144 19.8699 6.54492 17.6091 6.54492C17.1743 6.54492 4.91343 6.54492 4.91343 6.54492C3.13082 6.54492 0.217773 8.32753 0.217773 11.7623C0.217773 14.458 2.08734 16.9362 5.52212 16.9362C6.43516 16.9362 16.1308 16.9362 16.1308 16.9362C16.1308 16.9362 17.7395 16.8493 17.7395 18.2406C17.7395 19.7188 16.2178 19.5884 16.2178 19.5884H0.304729C0.304729 22.2841 2.5656 23.5014 4.34821 23.5014C4.82647 23.5014 13.8265 23.5014 17.6091 23.5014C20.3917 23.5014 22.5221 21.5449 22.5221 18.1971C22.5221 15.3275 20.1308 13.0232 16.6091 13.0232C14.8265 12.9797 6.17429 12.9797 6.17429 12.9797Z" fill="white"/>
</svg>
