<svg width="40" height="38" viewBox="0 0 40 38" fill="none" xmlns="http://www.w3.org/2000/svg">
<path d="M20 9C16.1344 9 13 12.1344 13 16C13 19.8656 16.1344 23 20 23C20.6456 23 21.1667 22.4789 21.1667 21.8333C21.1667 21.53 21.0539 21.2578 20.8633 21.0517C20.6806 20.8456 20.5717 20.5772 20.5717 20.2778C20.5717 19.6322 21.0928 19.1111 21.7383 19.1111H23.1111C25.2578 19.1111 27 17.3689 27 15.2222C27 11.7844 23.8656 9 20 9ZM15.7222 16C15.0767 16 14.5556 15.4789 14.5556 14.8333C14.5556 14.1878 15.0767 13.6667 15.7222 13.6667C16.3678 13.6667 16.8889 14.1878 16.8889 14.8333C16.8889 15.4789 16.3678 16 15.7222 16ZM18.0556 12.8889C17.41 12.8889 16.8889 12.3678 16.8889 11.7222C16.8889 11.0767 17.41 10.5556 18.0556 10.5556C18.7011 10.5556 19.2222 11.0767 19.2222 11.7222C19.2222 12.3678 18.7011 12.8889 18.0556 12.8889ZM21.9444 12.8889C21.2989 12.8889 20.7778 12.3678 20.7778 11.7222C20.7778 11.0767 21.2989 10.5556 21.9444 10.5556C22.59 10.5556 23.1111 11.0767 23.1111 11.7222C23.1111 12.3678 22.59 12.8889 21.9444 12.8889ZM24.2778 16C23.6322 16 23.1111 15.4789 23.1111 14.8333C23.1111 14.1878 23.6322 13.6667 24.2778 13.6667C24.9233 13.6667 25.4444 14.1878 25.4444 14.8333C25.4444 15.4789 24.9233 16 24.2778 16Z" fill="white"/>
<rect x="11.5" y="26.5" width="17" height="4" rx="2" fill="white" stroke="white"/>
</svg>
