<svg width="27" height="31" viewBox="0 0 27 31" fill="none" xmlns="http://www.w3.org/2000/svg">
<path fill-rule="evenodd" clip-rule="evenodd" d="M7.35074 5.36976C7.35074 2.40413 9.75486 0 12.7205 0C15.6861 0 18.0903 2.40412 18.0903 5.36976V7.10451C17.8075 7.82638 17.6523 8.6122 17.6523 9.43427C17.6523 12.7853 20.2313 15.534 23.5127 15.8038L25.1489 28.7488C25.2999 29.9434 24.3688 30.9996 23.1647 30.9996H2.26788C1.06378 30.9996 0.132676 29.9434 0.283665 28.7488L2.63524 10.1437C2.76159 9.14409 3.61185 8.39453 4.61945 8.39453H7.35074V5.36976ZM16.0903 5.36976V8.39453H9.35074V5.36976C9.35074 3.50869 10.8594 2 12.7205 2C14.5816 2 16.0903 3.50869 16.0903 5.36976Z" fill="#100F15"/>
<circle cx="24.0444" cy="9.43455" r="2.95652" fill="#100F15"/>
</svg>
