<svg width="50" height="50" viewBox="0 0 50 50" fill="none" xmlns="http://www.w3.org/2000/svg">
<rect width="50" height="50" rx="25" fill="#100F15"/>
<path d="M24.6429 11C21.2897 11 18.5714 13.7183 18.5714 17.0714C18.5714 20.4246 21.2897 23.1429 24.6429 23.1429C27.996 23.1429 30.7143 20.4246 30.7143 17.0714C30.7143 13.7183 27.996 11 24.6429 11Z" fill="white"/>
<path d="M28.2258 25.844C25.8522 25.4652 23.4335 25.4652 21.0599 25.844L20.8055 25.8846C17.461 26.4183 15 29.3032 15 32.69C15 34.5181 16.4819 36 18.31 36H30.9758C32.8038 36 34.2857 34.5181 34.2857 32.69C34.2857 29.3032 31.8248 26.4183 28.4802 25.8846L28.2258 25.844Z" fill="white"/>
<path fill-rule="evenodd" clip-rule="evenodd" d="M36.0714 19.5714C36.6632 19.5714 37.1429 20.0511 37.1429 20.6429V22.4286H38.9286C39.5203 22.4286 40 22.9083 40 23.5C40 24.0917 39.5203 24.5714 38.9286 24.5714H37.1429V26.3571C37.1429 26.9489 36.6632 27.4286 36.0714 27.4286C35.4797 27.4286 35 26.9489 35 26.3571V24.5714H33.2143C32.6226 24.5714 32.1429 24.0917 32.1429 23.5C32.1429 22.9083 32.6226 22.4286 33.2143 22.4286H35V20.6429C35 20.0511 35.4797 19.5714 36.0714 19.5714Z" fill="white"/>
</svg>
