<svg width="15" height="16" viewBox="0 0 15 16" fill="none" xmlns="http://www.w3.org/2000/svg">
<g clip-path="url(#clip0)">
<path fill-rule="evenodd" clip-rule="evenodd" d="M7.76092 3.50949C7.45152 3.383 7.08589 3.70853 6.96475 4.17353C6.05608 7.66148 3.68203 9.75274 1.24789 9.20942C0.923382 9.13698 0.555796 9.45732 0.472892 9.92939C0.410578 10.2842 0.532728 10.611 0.771915 10.6839C3.89958 11.6376 7.01715 8.89134 8.0397 4.28187C8.1179 3.92936 7.99348 3.60456 7.76092 3.50949Z" fill="white"/>
<path fill-rule="evenodd" clip-rule="evenodd" d="M7.23908 3.50949C7.54848 3.383 7.91411 3.70853 8.03525 4.17353C8.94392 7.66148 11.318 9.75274 13.7521 9.20942C14.0766 9.13698 14.4442 9.45732 14.5271 9.92939C14.5894 10.2842 14.4673 10.611 14.2281 10.6839C11.1004 11.6376 7.98285 8.89134 6.9603 4.28187C6.8821 3.92936 7.00652 3.60456 7.23908 3.50949Z" fill="white"/>
</g>
<defs>
<clipPath id="clip0">
<rect width="15" height="15" fill="white" transform="matrix(1 0 0 -1 0 15.0022)"/>
</clipPath>
</defs>
</svg>
