<svg width="34" height="34" viewBox="0 0 34 34" fill="none" xmlns="http://www.w3.org/2000/svg">
<path fill-rule="evenodd" clip-rule="evenodd" d="M31.9365 32.1949H33.0211C33.5088 32.1949 33.9041 32.599 33.9041 33.0975C33.9041 33.5959 33.5088 34 33.0211 34H0.883058C0.395359 34 0 33.5959 0 33.0975C0 32.599 0.395359 32.1949 0.883058 32.1949H1.89905V21.7159C1.89905 21.2175 2.29431 20.8134 2.78194 20.8133L5.70709 20.8127V31.0784C5.70709 31.5768 6.10244 31.9809 6.59014 31.9809H12.2657C12.7534 31.9809 13.1488 31.5768 13.1488 31.0784V20.8113L15.1497 20.8109V25.5766C15.1497 26.0751 15.5451 26.4792 16.0328 26.4792H27.3775C27.8652 26.4792 28.2606 26.0751 28.2606 25.5766V20.8082L31.0532 20.8077C31.541 20.8077 31.9365 21.2117 31.9365 21.7102V32.1949ZM31.0532 1.78493e-08C31.541 -9.80608e-05 31.9365 0.404009 31.9365 0.902535V2.98026C31.9365 3.47865 31.5412 3.8827 31.0536 3.8828L2.78229 3.88848C2.29452 3.88858 1.89905 3.48447 1.89905 2.98595V0.908222C1.89905 0.409835 2.29431 0.00578333 2.78194 0.00568519L31.0532 1.78493e-08ZM33.7367 13.2807C33.9061 13.6677 34 14.0948 34 14.5436C34 16.2916 32.5749 17.7108 30.8196 17.7108C29.6377 17.7108 28.6056 17.0674 28.0573 16.1135C27.509 17.0674 26.4769 17.7108 25.295 17.7108C24.1132 17.7108 23.081 17.0675 22.5327 16.1136C21.9844 17.0675 20.9523 17.7108 19.7704 17.7108C18.5886 17.7108 17.5564 17.0674 17.0081 16.1135C16.4599 17.0674 15.4277 17.7108 14.2459 17.7108C13.064 17.7108 12.0318 17.0675 11.4836 16.1136C10.9353 17.0675 9.90312 17.7108 8.72125 17.7108C7.5394 17.7108 6.50725 17.0674 5.95898 16.1135C5.41071 17.0674 4.37855 17.7108 3.1967 17.7108C1.44134 17.7108 0.0162319 16.2916 0.0162319 14.5436C0.0162319 14.1528 0.0874572 13.7784 0.217677 13.4327L2.10382 6.45533C2.20958 6.0641 2.55786 5.79315 2.95499 5.79315H31.1753C31.5787 5.79315 31.9307 6.07245 32.0308 6.4718L33.7367 13.2807Z" fill="#100F15"/>
</svg>
