<svg width="51" height="50" viewBox="0 0 51 50" fill="none" xmlns="http://www.w3.org/2000/svg">
<rect x="0.833008" width="50" height="50" rx="25" fill="#100F15"/>
<path d="M39.0542 22.7115C39.4843 22.7115 39.833 22.3628 39.833 21.9327V17.7788C39.833 17.3487 39.4843 17 39.0542 17H21.9196V20.8942C21.9196 21.3244 21.5708 21.6731 21.1407 21.6731C20.7106 21.6731 20.3619 21.3243 20.3619 20.8942V17H13.6119C13.1817 17 12.833 17.3487 12.833 17.7788V21.9327C12.833 22.3628 13.1817 22.7115 13.6118 22.7115C14.9002 22.7115 15.9484 23.7597 15.9484 25.0481C15.9484 26.3365 14.9002 27.3846 13.6118 27.3846C13.1817 27.3846 12.833 27.7333 12.833 28.1634V32.3173C12.833 32.7474 13.1817 33.0961 13.6118 33.0961H20.3618V29.2019C20.3618 28.7717 20.7106 28.4231 21.1407 28.4231C21.5708 28.4231 21.9195 28.7718 21.9195 29.2019V33.0961H39.0541C39.4843 33.0961 39.833 32.7474 39.833 32.3173V28.1634C39.833 27.7333 39.4842 27.3846 39.0541 27.3846C37.7658 27.3846 36.7176 26.3365 36.7176 25.0481C36.7176 23.7597 37.7658 22.7115 39.0542 22.7115ZM21.9196 26.0865C21.9196 26.5167 21.5708 26.8653 21.1407 26.8653C20.7106 26.8653 20.3619 26.5166 20.3619 26.0865V24.0096C20.3619 23.5794 20.7106 23.2307 21.1407 23.2307C21.5708 23.2307 21.9196 23.5795 21.9196 24.0096V26.0865Z" fill="white"/>
</svg>
