<svg width="34" height="29" viewBox="0 0 34 29" fill="none" xmlns="http://www.w3.org/2000/svg">
<path fill-rule="evenodd" clip-rule="evenodd" d="M31.043 11.8258C31.5494 11.8258 32.0439 11.7748 32.5217 11.6778V24.087C32.5217 26.2961 30.7309 28.087 28.5217 28.087H4C1.79086 28.087 0 26.2961 0 24.087V4C0 1.79086 1.79086 0 4 0H25.1292C24.2014 1.23527 23.6517 2.77066 23.6517 4.43445C23.6517 8.51655 26.9609 11.8258 31.043 11.8258ZM5.91198 8.86954C5.09556 8.86954 4.43372 8.2077 4.43372 7.39128C4.43372 6.57486 5.09556 5.91302 5.91198 5.91302H17.7381C18.5545 5.91302 19.2163 6.57486 19.2163 7.39128C19.2163 8.2077 18.5545 8.86954 17.7381 8.86954H5.91198ZM4.43372 14.7823C4.43372 15.5987 5.09556 16.2606 5.91198 16.2606H26.6076C27.4241 16.2606 28.0859 15.5987 28.0859 14.7823C28.0859 13.9659 27.4241 13.304 26.6076 13.304H5.91198C5.09556 13.304 4.43372 13.9659 4.43372 14.7823ZM5.91198 22.174C5.09556 22.174 4.43372 21.5122 4.43372 20.6958C4.43372 19.8794 5.09556 19.2175 5.91198 19.2175H16.2598C17.0762 19.2175 17.7381 19.8794 17.7381 20.6958C17.7381 21.5122 17.0762 22.174 16.2598 22.174H5.91198ZM31.0442 7.39102C32.677 7.39102 34.0007 6.06734 34.0007 4.43449C34.0007 2.80165 32.677 1.47797 31.0442 1.47797C29.4113 1.47797 28.0876 2.80165 28.0876 4.43449C28.0876 6.06734 29.4113 7.39102 31.0442 7.39102Z" fill="#100F15"/>
</svg>
