<svg width="124" height="25" viewBox="0 0 124 25" fill="none" xmlns="http://www.w3.org/2000/svg">
<g clip-path="url(#clip0)">
<path d="M31.5563 21.0376C30.6478 21.0376 29.8269 20.9391 29.1045 20.7311C28.3821 20.5232 27.7691 20.2386 27.2547 19.8555C26.7402 19.4833 26.3462 19.0236 26.0506 18.4982C25.7551 17.9728 25.5909 17.3927 25.5471 16.7688H29.0388C29.1483 17.3708 29.4219 17.8196 29.8488 18.137C30.2757 18.4544 30.8558 18.6077 31.5782 18.6077C32.235 18.6077 32.7494 18.4873 33.1106 18.2355C33.4718 17.9838 33.6579 17.6335 33.6579 17.1738C33.6579 16.8892 33.5703 16.6593 33.3952 16.4951C33.2201 16.32 32.9902 16.1777 32.6837 16.0683C32.3882 15.9588 32.0379 15.8712 31.6548 15.7946C31.2717 15.729 30.8558 15.6523 30.418 15.5757C29.8488 15.4663 29.3015 15.3349 28.7652 15.2036C28.2288 15.0613 27.7472 14.8533 27.3313 14.5687C26.9044 14.2841 26.5651 13.912 26.3024 13.4632C26.0397 13.0035 25.9083 12.4124 25.9083 11.6681C25.9083 11.0223 26.0506 10.4531 26.3243 9.97151C26.5979 9.48989 26.9701 9.07396 27.4407 8.74559C27.9114 8.41722 28.4696 8.16546 29.1154 8.00128C29.7612 7.83709 30.4508 7.74953 31.1951 7.74953C32.9355 7.74953 34.2599 8.08884 35.1575 8.77842C36.055 9.45706 36.5913 10.3546 36.7555 11.4492H33.3186C33.0778 10.5516 32.3772 10.1029 31.1951 10.1029C30.6259 10.1029 30.1772 10.2123 29.8378 10.4312C29.4985 10.6501 29.3343 10.9676 29.3343 11.3726C29.3343 11.6134 29.411 11.7994 29.5751 11.9527C29.7284 12.1059 29.9473 12.2263 30.2319 12.3139C30.5165 12.4124 30.8448 12.489 31.217 12.5547C31.5892 12.6204 31.9941 12.686 32.421 12.7627C32.9902 12.8612 33.5484 12.9816 34.1176 13.1239C34.6868 13.2771 35.1903 13.496 35.65 13.7916C36.1097 14.0871 36.4819 14.4921 36.7665 14.9846C37.062 15.4772 37.2043 16.123 37.2043 16.9001C37.2043 17.5788 37.062 18.1698 36.7774 18.6952C36.4928 19.2097 36.0988 19.6475 35.5953 19.9868C35.0918 20.3371 34.4898 20.5888 33.8002 20.764C33.1325 20.9501 32.3772 21.0376 31.5563 21.0376Z" fill="#100F15"/>
<path d="M46.738 20.6435V18.8484H46.6723C46.2126 19.5817 45.6872 20.129 45.0962 20.4793C44.4941 20.8295 43.7717 20.9937 42.907 20.9937C41.4731 20.9937 40.3895 20.5778 39.6342 19.735C38.879 18.8922 38.5068 17.7866 38.5068 16.3965V8.09969H42.2065V15.6851C42.2065 16.3965 42.3707 16.9329 42.71 17.316C43.0493 17.6881 43.5419 17.8851 44.2096 17.8851C44.9648 17.8851 45.5559 17.6334 45.9718 17.1299C46.3987 16.6264 46.6067 15.9806 46.6067 15.1925V8.09969H50.2625V20.6435H46.738Z" fill="#100F15"/>
<path d="M55.7899 10.3437H55.8556C56.2606 9.46809 56.7532 8.83324 57.3114 8.46108C57.8806 8.08893 58.5483 7.89191 59.3363 7.89191C59.7085 7.89191 59.9712 7.92474 60.1135 7.99042V11.2194H60.015C59.7523 11.1756 59.4896 11.1537 59.2378 11.1537C58.2308 11.1428 57.4318 11.4383 56.8188 12.0622C56.2168 12.6861 55.9103 13.6056 55.9103 14.8315V20.6546H52.2107V8.09988H55.768V10.3437H55.7899Z" fill="#100F15"/>
<path d="M67.2173 21.0157C66.1994 21.0157 65.2799 20.8515 64.459 20.5122C63.6381 20.1729 62.9485 19.7022 62.3684 19.1112C61.7992 18.5092 61.3504 17.8196 61.044 17.0096C60.7375 16.2106 60.5842 15.3349 60.5842 14.3936C60.5842 13.4522 60.7375 12.5766 61.0549 11.7666C61.3723 10.9566 61.8102 10.2561 62.3793 9.65408C62.9485 9.05207 63.6162 8.59235 64.4043 8.25303C65.1924 7.91371 66.0571 7.74953 67.0203 7.74953C67.9179 7.74953 68.7169 7.89182 69.4393 8.17641C70.1508 8.461 70.7856 8.85504 71.3329 9.35855C72.0444 10.0481 72.5589 10.9019 72.8872 11.9308C73.2156 12.9597 73.3688 14.0871 73.3579 15.324H64.2182C64.3386 16.2653 64.656 17.0096 65.1595 17.535C65.663 18.0713 66.3636 18.334 67.2611 18.334C67.8412 18.334 68.3229 18.2246 68.6841 18.0166C69.0562 17.8086 69.3408 17.5022 69.5488 17.1081H73.128C72.9748 17.6554 72.723 18.1698 72.3837 18.6515C72.0444 19.1331 71.6285 19.549 71.1359 19.8993C70.6434 20.2495 70.0632 20.5232 69.4065 20.7202C68.7497 20.9172 68.0164 21.0157 67.2173 21.0157ZM67.0313 10.3656C66.1775 10.3656 65.5426 10.6173 65.0939 11.1208C64.656 11.6243 64.3715 12.3029 64.2401 13.1677H69.5926C69.5269 12.292 69.2751 11.6024 68.8154 11.1099C68.3666 10.6064 67.7646 10.3656 67.0313 10.3656Z" fill="#100F15"/>
<path d="M80.582 25.0001C78.8526 25.0001 77.4625 24.6607 76.4117 23.9712C75.3609 23.2925 74.737 22.3293 74.5509 21.0815H78.1521C78.2725 21.4537 78.5242 21.7601 78.8964 22.0009C79.2685 22.2417 79.8158 22.3512 80.5382 22.3512C81.4139 22.3512 82.0706 22.1432 82.5085 21.7163C82.9354 21.2895 83.1543 20.6984 83.1543 19.9213V19.6586C83.1543 18.9799 83.1762 18.4326 83.2199 18.0058H83.1214C82.3771 19.2317 81.2497 19.8446 79.7283 19.8446C79.0059 19.8446 78.3163 19.7133 77.6595 19.4506C77.0028 19.1879 76.4227 18.8048 75.9192 18.2903C75.4157 17.7759 75.0107 17.152 74.7151 16.4186C74.4196 15.6853 74.2664 14.8424 74.2664 13.9011C74.2664 12.9926 74.3977 12.1498 74.6604 11.3945C74.9231 10.6283 75.2843 9.98255 75.755 9.43526C76.2256 8.88797 76.7839 8.47204 77.4297 8.1765C78.0755 7.88097 78.776 7.72773 79.5531 7.72773C80.4069 7.72773 81.1293 7.88097 81.7204 8.1765C82.3224 8.47204 82.7931 8.97554 83.1543 9.68701H83.1981V8.09988H86.7335V19.5272C86.7335 20.4685 86.5912 21.2785 86.2957 21.9462C86.0002 22.6139 85.6061 23.1721 85.1026 23.6318C84.5553 24.1025 83.8876 24.4528 83.1214 24.6717C82.3552 24.8906 81.5124 25.0001 80.582 25.0001ZM80.5601 17.0754C81.0308 17.0754 81.4358 16.9878 81.7751 16.8236C82.1144 16.6594 82.399 16.4296 82.6289 16.134C82.8587 15.8385 83.0229 15.4882 83.1214 15.0942C83.2199 14.7001 83.2747 14.2733 83.2747 13.8026C83.2747 12.8722 83.0448 12.106 82.596 11.4821C82.1363 10.8582 81.4577 10.5517 80.5492 10.5517C79.7283 10.5517 79.0825 10.8473 78.6118 11.4383C78.1411 12.0294 77.9003 12.8284 77.9003 13.8354C77.9003 14.8206 78.1411 15.6196 78.6118 16.1997C79.0715 16.7908 79.7283 17.0754 80.5601 17.0754Z" fill="#100F15"/>
<path d="M88.7147 3.10845H92.4582V6.33744H88.7147V3.10845ZM88.7366 8.0997H92.4363V20.6435H88.7366V8.0997Z" fill="#100F15"/>
<path d="M93.6622 8.09974H95.5449V7.03801C95.5449 5.71358 95.8952 4.73941 96.6066 4.09361C97.0116 3.73241 97.537 3.46971 98.1719 3.31647C98.8067 3.16323 99.5291 3.08661 100.328 3.1085C100.58 3.1085 100.832 3.11945 101.083 3.13039C101.335 3.14134 101.598 3.17417 101.861 3.19607V5.83398C101.39 5.82304 100.985 5.82304 100.657 5.83398C100.328 5.84493 100.055 5.9106 99.8466 6.00911C99.6386 6.10762 99.4853 6.26086 99.3868 6.46883C99.2883 6.6768 99.2445 6.95044 99.2445 7.28976V8.09974H101.861V10.5078H99.2445V20.6435H95.5449V10.5078H93.6622V8.09974Z" fill="#100F15"/>
<path d="M102.528 8.0997H104.411V4.09357H108.034V8.0997H110.486V10.453H108.034V16.6702C108.034 17.1409 108.154 17.4583 108.395 17.6225C108.636 17.7867 108.975 17.8742 109.424 17.8742C109.545 17.8742 109.687 17.8742 109.851 17.8633C110.004 17.8523 110.147 17.8414 110.278 17.8304H110.464V20.5888C110.256 20.6216 109.971 20.6544 109.61 20.7092C109.249 20.7529 108.822 20.7748 108.319 20.7748C107.738 20.7748 107.202 20.7201 106.731 20.6216C106.25 20.5231 105.845 20.337 105.495 20.0743C105.144 19.8116 104.882 19.4723 104.696 19.0564C104.509 18.6404 104.411 18.115 104.411 17.4692V10.453H102.528V8.0997Z" fill="#100F15"/>
<path d="M117.393 21.0376C116.484 21.0376 115.663 20.9391 114.941 20.7311C114.218 20.5232 113.605 20.2386 113.091 19.8555C112.577 19.4833 112.182 19.0236 111.887 18.4982C111.591 17.9728 111.427 17.3927 111.383 16.7688H114.875C114.985 17.3708 115.258 17.8196 115.685 18.137C116.112 18.4544 116.692 18.6077 117.415 18.6077C118.071 18.6077 118.586 18.4873 118.947 18.2355C119.308 17.9838 119.494 17.6335 119.494 17.1738C119.494 16.8892 119.407 16.6593 119.232 16.4951C119.056 16.32 118.827 16.1777 118.52 16.0683C118.224 15.9588 117.874 15.8712 117.491 15.7946C117.108 15.729 116.692 15.6523 116.254 15.5757C115.685 15.4663 115.138 15.3349 114.601 15.2036C114.065 15.0613 113.584 14.8533 113.168 14.5687C112.741 14.2841 112.401 13.912 112.139 13.4632C111.876 13.0035 111.745 12.4124 111.745 11.6681C111.745 11.0223 111.887 10.4531 112.161 9.97151C112.434 9.48989 112.806 9.07396 113.277 8.74559C113.748 8.41722 114.306 8.16546 114.952 8.00128C115.598 7.83709 116.287 7.74953 117.031 7.74953C118.772 7.74953 120.096 8.08884 120.994 8.77842C121.891 9.45706 122.428 10.3546 122.592 11.4492H119.155C118.914 10.5516 118.214 10.1029 117.031 10.1029C116.462 10.1029 116.013 10.2123 115.674 10.4312C115.335 10.6501 115.171 10.9676 115.171 11.3726C115.171 11.6134 115.247 11.7994 115.411 11.9527C115.565 12.1059 115.784 12.2263 116.068 12.3139C116.353 12.4124 116.681 12.489 117.053 12.5547C117.425 12.6204 117.83 12.686 118.257 12.7627C118.827 12.8612 119.385 12.9816 119.954 13.1239C120.523 13.2771 121.027 13.496 121.486 13.7916C121.946 14.0871 122.318 14.4921 122.603 14.9846C122.898 15.4772 123.041 16.123 123.041 16.9001C123.041 17.5788 122.898 18.1698 122.614 18.6952C122.329 19.2097 121.935 19.6475 121.432 19.9868C120.928 20.3371 120.326 20.5888 119.636 20.764C118.969 20.9501 118.214 21.0376 117.393 21.0376Z" fill="#100F15"/>
<path d="M13.6602 5.76824C14.3608 5.3523 14.9518 4.91447 15.3021 4.56421C16.331 3.52437 16.331 1.82778 15.3021 0.787938C14.8095 0.27349 14.1419 -0.000152588 13.4413 -0.000152588C12.7408 -0.000152588 12.0731 0.27349 11.5696 0.776993C10.6502 1.70738 9.73074 3.42585 9.1944 4.87069C8.65806 3.41491 7.73862 1.69643 6.81918 0.776993C6.32662 0.27349 5.65893 -0.000152588 4.95841 -0.000152588C4.24694 -0.000152588 3.59019 0.27349 3.08669 0.776993C2.05779 1.81684 2.05779 3.51342 3.08669 4.55326C3.43695 4.90353 4.03897 5.34135 4.72855 5.75729H0V22.0555H12.1279C11.4711 21.2236 9.77452 21.0156 7.83713 20.6435C4.66287 20.0414 1.45578 19.2424 1.45578 15.094C1.45578 13.2332 2.32049 11.8212 3.73249 10.8908C5.07881 10.0042 6.90674 9.54451 8.94265 9.54451C11.3069 9.54451 13.113 10.0371 14.3936 10.8908C15.7947 11.8212 16.5828 13.1785 16.8236 14.7984H11.9418C11.6134 13.5287 10.6064 12.8939 8.9317 12.8939C7.32268 12.8939 6.29378 13.5616 6.29378 14.6999C6.29378 16.0353 8.23118 16.2323 10.6721 16.6702C13.7259 17.2174 17.1629 18.0165 17.4256 22.0555H18.3779V5.76824H13.6602ZM12.4343 1.83873C12.697 1.57603 13.0473 1.42279 13.4194 1.42279C13.7916 1.42279 14.1419 1.56508 14.4046 1.83873C14.9518 2.38601 14.9518 3.29451 14.4046 3.84179C13.8463 4.41097 12.1169 5.3523 11.2194 5.3523C11.0333 5.3523 10.9785 5.30852 10.9785 5.30852C10.683 4.98015 11.5587 2.72533 12.4343 1.83873ZM4.13748 1.83873C4.40018 1.57603 4.75044 1.42279 5.12259 1.42279C5.49475 1.42279 5.84501 1.56508 6.10771 1.83873C6.98336 2.72533 7.85902 4.99109 7.56349 5.30852C7.56349 5.30852 7.50876 5.3523 7.32268 5.3523C6.41419 5.3523 4.69571 4.41097 4.13748 3.84179C3.59019 3.28356 3.59019 2.38601 4.13748 1.83873Z" fill="#100F15"/>
</g>
<defs>
<clipPath id="clip0">
<rect width="123.052" height="25" fill="white" transform="translate(0 -0.000152588)"/>
</clipPath>
</defs>
</svg>
